<svg width="142" height="142" viewBox="0 0 142 142" fill="none" xmlns="http://www.w3.org/2000/svg">
<path fill-rule="evenodd" clip-rule="evenodd" d="M71 137.047C96.4051 137.047 117 116.452 117 91.0474C117 65.6423 96.4051 45.0474 71 45.0474C45.5949 45.0474 25 65.6423 25 91.0474C25 116.452 45.5949 137.047 71 137.047ZM37.3839 72.8864L42.7502 76.01C44.2196 73.4442 47.1356 69.2093 51.0583 65.9642C55.3027 62.4529 60.5067 60.1743 63.5252 59.3655L62.059 53.8936C61.5838 54.0797 61.066 54.2754 60.5138 54.4842C56.9828 55.8191 52.041 57.6875 47.781 60.9776C43.863 64.0034 40.7818 68.2448 38.7216 71.0809C38.2124 71.7817 37.7656 72.3968 37.3839 72.8864Z" fill="black"/>
<rect x="90.981" y="23.4395" width="7.05808" height="7.05808" transform="rotate(18.2386 90.981 23.4395)" fill="black"/>
<rect x="98.4512" y="5" width="4.4113" height="13.675" transform="rotate(18.2386 98.4512 5)" fill="black"/>
<rect x="116.124" y="33.1182" width="4.4113" height="13.675" transform="rotate(108.239 116.124 33.1182)" fill="black"/>
<rect x="84.7012" y="22.7632" width="4.4113" height="13.675" transform="rotate(108.239 84.7012 22.7632)" fill="black"/>
<rect x="90.7339" y="18.3872" width="4.26426" height="13.8588" transform="rotate(153.239 90.7339 18.3872)" fill="black"/>
<rect x="95.6211" y="37.5488" width="4.26426" height="13.8588" transform="rotate(-26.7614 95.6211 37.5488)" fill="black"/>
<rect x="102.758" y="25.5244" width="4.26426" height="13.8588" transform="rotate(-116.761 102.758 25.5244)" fill="black"/>
<rect x="83.5967" y="30.4111" width="4.26426" height="13.8588" transform="rotate(63.2386 83.5967 30.4111)" fill="black"/>
<rect x="88.0059" y="50.791" width="4.4113" height="13.675" transform="rotate(-161.761 88.0059 50.791)" fill="black"/>
</svg>
