<svg width="136" height="133" viewBox="0 0 136 133" fill="none" xmlns="http://www.w3.org/2000/svg">
<path d="M76.5302 87.812C76.4414 76.2238 65.4543 64.1741 58.0545 55.9422C51.3693 48.5052 42.9492 42.2704 34.1317 37.6363C27.5458 34.1749 21.289 33.1725 14.1154 31.9863C10.8312 31.4432 7.49521 31.1301 4.30544 30.1696C2.0246 29.4829 8.5266 34.4496 9.2396 34.8877C18.1085 40.3381 24.7651 48.2254 32.3075 55.2552C37.9324 60.4979 22.7121 43.1171 16.8834 38.1028C13.1913 34.9266 9.17794 31.5839 5.05822 28.9781C4.55655 28.6608 -0.259764 25.6044 2.11174 27.9759C7.8689 33.7331 20.8573 27.9923 26.806 26.2059C34.2518 23.9698 38.3614 20.354 43.646 15.0694" stroke="black" stroke-linecap="round"/>
<path d="M121.15 117.801C117.601 119.158 113.604 119.725 109.874 120.314C101.575 121.625 93.1504 122.22 84.7871 122.945C66.7264 124.512 48.6297 125.312 30.6042 127.268C7.18102 129.811 77.5042 122.702 100.964 120.52C111.049 119.582 121.092 119.104 131.214 118.945C131.68 118.938 134.121 118.898 134.989 118.857C135.124 118.851 135.49 118.908 135.39 118.818C134.973 118.442 134.27 118.733 133.708 118.72C112.751 118.24 91.8494 119.665 70.9187 120.402C58.4249 120.843 45.9261 121.048 33.4308 121.419C30.8234 121.497 28.6278 121.559 26.076 121.772C25.4255 121.826 24.7752 121.89 24.1297 121.987C23.7583 122.042 22.7959 122.125 23.0734 122.378C23.5667 122.827 24.3551 122.758 25.0099 122.887C27.9336 123.462 30.8888 123.884 33.8513 124.197C43.2446 125.19 52.7209 125.201 62.1555 125.195C75.3315 125.186 88.4618 124.725 101.609 123.865C111.133 123.241 120.783 122.834 130.226 121.361C131.177 121.213 132.997 120.873 134.041 120.559C135.017 120.265 134.579 120.128 133.875 120.128C128.961 120.128 123.979 120.817 119.096 121.263C106.222 122.44 93.375 123.745 80.5523 125.4C67.2231 127.121 53.9162 129.024 40.5802 130.691C36.8966 131.152 25.7817 131.884 29.4893 131.699C33.7392 131.486 38.0092 131.538 42.2624 131.493C66.9597 131.234 91.6935 130.931 116.358 129.557C119.651 129.373 124.041 129.076 127.41 128.794C129.58 128.612 132.198 128.598 134.324 127.933C134.903 127.752 134.818 127.639 134.315 127.474C132.633 126.92 130.63 126.816 128.896 126.642C121.974 125.949 115.004 125.806 108.054 125.635C98.5835 125.402 89.1141 125.095 79.6427 124.882C72.4764 124.72 65.3127 124.714 58.1456 124.657C56.6766 124.645 55.1866 124.653 53.7249 124.491" stroke="black" stroke-linecap="round"/>
<path d="M33.5434 112.531C33.322 112.258 33.1202 111.88 32.9379 111.398C32.7687 110.917 32.6254 110.376 32.5082 109.777C32.3911 109.178 32.3064 108.553 32.2543 107.902C32.2023 107.238 32.1957 106.607 32.2348 106.008C32.2739 105.396 32.365 104.842 32.5082 104.348C32.6515 103.84 32.8533 103.443 33.1137 103.156C33.3871 102.857 33.7192 102.694 34.1098 102.668C34.5134 102.642 34.9887 102.805 35.5356 103.156C35.9913 103.43 36.4015 103.768 36.7661 104.172C37.1437 104.562 37.4562 104.992 37.7036 105.461C37.7036 105.422 37.7036 105.35 37.7036 105.246C37.7166 105.142 37.7231 105.038 37.7231 104.934C37.7231 104.816 37.7166 104.706 37.7036 104.602C37.7036 104.497 37.7036 104.426 37.7036 104.387C37.6905 104.296 37.6645 104.068 37.6254 103.703C37.5994 103.339 37.5668 102.954 37.5278 102.551C37.4887 102.134 37.4562 101.743 37.4301 101.379C37.4041 101.014 37.3911 100.786 37.3911 100.695C37.378 100.552 37.365 100.37 37.352 100.148C37.352 99.9271 37.352 99.7122 37.352 99.5039C37.352 99.2826 37.352 99.0938 37.352 98.9375C37.365 98.7812 37.378 98.7031 37.3911 98.7031L37.5473 98.5469C37.6775 98.4036 37.8012 98.3776 37.9184 98.4688C38.0486 98.5599 38.1593 98.7096 38.2504 98.918C38.3546 99.1263 38.4457 99.3737 38.5239 99.6602C38.602 99.9466 38.6671 100.227 38.7192 100.5C38.7843 100.773 38.8299 101.014 38.8559 101.223C38.8819 101.431 38.9015 101.561 38.9145 101.613C38.9275 101.717 38.934 101.984 38.934 102.414C38.947 102.844 38.9536 103.352 38.9536 103.938C38.9536 104.523 38.9536 105.148 38.9536 105.812C38.9536 106.464 38.9536 107.069 38.9536 107.629C38.9666 108.189 38.9796 108.658 38.9926 109.035C39.0056 109.413 39.0317 109.608 39.0707 109.621L39.4028 109.758V111.926C39.4028 112.056 39.3377 112.115 39.2075 112.102C39.0773 112.089 38.934 112.049 38.7778 111.984C38.6215 111.906 38.4783 111.815 38.3481 111.711C38.2179 111.607 38.1528 111.522 38.1528 111.457V109.914C37.9184 110.331 37.658 110.734 37.3715 111.125C37.0981 111.503 36.7921 111.835 36.4536 112.121C36.115 112.408 35.7309 112.622 35.3012 112.766C34.8715 112.896 34.3898 112.922 33.8559 112.844C33.8299 112.818 33.7778 112.766 33.6996 112.688C33.6215 112.609 33.5694 112.557 33.5434 112.531ZM33.8559 111.613C33.8689 111.626 33.9145 111.659 33.9926 111.711C34.0838 111.75 34.1424 111.77 34.1684 111.77C34.8064 111.848 35.3663 111.717 35.8481 111.379C36.3299 111.04 36.7205 110.598 37.02 110.051C37.3325 109.504 37.5603 108.911 37.7036 108.273C37.8468 107.622 37.8989 107.043 37.8598 106.535C37.5473 106.77 37.3064 106.906 37.1371 106.945C36.9809 106.984 36.8637 106.965 36.7856 106.887C36.7205 106.796 36.6749 106.665 36.6489 106.496C36.6358 106.327 36.6228 106.145 36.6098 105.949C36.5968 105.741 36.5707 105.539 36.5317 105.344C36.5056 105.135 36.434 104.966 36.3168 104.836C35.822 104.25 35.3858 103.872 35.0082 103.703C34.6306 103.534 34.3116 103.521 34.0512 103.664C33.7908 103.794 33.5759 104.048 33.4067 104.426C33.2504 104.803 33.1332 105.246 33.0551 105.754C32.99 106.262 32.964 106.809 32.977 107.395C32.99 107.98 33.0291 108.547 33.0942 109.094C33.1723 109.641 33.2765 110.142 33.4067 110.598C33.5369 111.04 33.6866 111.379 33.8559 111.613ZM41.7075 112.844C41.3299 112.557 41.0499 112.245 40.8676 111.906C40.6853 111.555 40.5616 111.19 40.4965 110.812C40.4444 110.422 40.4444 110.025 40.4965 109.621C40.5616 109.204 40.6528 108.788 40.77 108.371C40.8481 108.111 40.9197 107.798 40.9848 107.434C41.0629 107.069 41.1541 106.704 41.2582 106.34C41.3624 105.962 41.4861 105.617 41.6293 105.305C41.7726 104.979 41.9483 104.725 42.1567 104.543C42.2869 104.426 42.4562 104.341 42.6645 104.289C42.8728 104.224 43.0877 104.191 43.309 104.191C43.5304 104.178 43.7452 104.178 43.9536 104.191C44.1619 104.204 44.3312 104.217 44.4614 104.23C45.0343 104.27 45.477 104.465 45.7895 104.816C46.102 105.155 46.3103 105.578 46.4145 106.086C46.5187 106.594 46.5317 107.16 46.4536 107.785C46.3884 108.41 46.2452 109.029 46.0239 109.641C45.8155 110.24 45.5486 110.806 45.2231 111.34C44.8976 111.874 44.5395 112.31 44.1489 112.648C43.7713 112.974 43.3676 113.169 42.9379 113.234C42.5213 113.299 42.1111 113.169 41.7075 112.844ZM42.0004 111.77C42.3259 112.03 42.6775 112.089 43.0551 111.945C43.4327 111.802 43.7908 111.535 44.1293 111.145C44.4809 110.754 44.7934 110.285 45.0668 109.738C45.3403 109.178 45.5356 108.625 45.6528 108.078C45.77 107.518 45.7895 107.004 45.7114 106.535C45.6332 106.053 45.4249 105.695 45.0864 105.461C44.6046 105.135 44.1489 105.038 43.7192 105.168C43.2895 105.285 42.9119 105.539 42.5864 105.93C42.2608 106.307 41.9874 106.783 41.7661 107.355C41.5577 107.928 41.421 108.501 41.3559 109.074C41.2908 109.647 41.3038 110.181 41.395 110.676C41.4991 111.171 41.7009 111.535 42.0004 111.77ZM47.3911 112.844C47.365 112.818 47.3325 112.766 47.2934 112.688C47.2543 112.609 47.2283 112.557 47.2153 112.531C47.2543 112.362 47.2934 111.984 47.3325 111.398C47.3845 110.799 47.4366 110.109 47.4887 109.328C47.5538 108.547 47.6254 107.733 47.7036 106.887C47.7947 106.04 47.8924 105.285 47.9965 104.621C48.1007 103.957 48.2244 103.449 48.3676 103.098C48.5108 102.733 48.6736 102.642 48.8559 102.824C49.2465 103.111 49.6111 103.475 49.9496 103.918C50.2882 104.348 50.6137 104.816 50.9262 105.324C51.2387 105.832 51.5382 106.359 51.8246 106.906C52.1241 107.44 52.4301 107.954 52.7426 108.449C53.0681 108.931 53.4067 109.374 53.7582 109.777C54.1228 110.168 54.5134 110.474 54.9301 110.695H55.0668C55.0929 110.383 55.1189 109.999 55.145 109.543C55.184 109.074 55.2231 108.566 55.2621 108.02C55.3012 107.473 55.3403 106.913 55.3793 106.34C55.4184 105.754 55.464 105.188 55.5161 104.641C55.5812 104.081 55.6463 103.566 55.7114 103.098C55.7765 102.629 55.8481 102.232 55.9262 101.906C55.9392 101.88 55.9653 101.828 56.0043 101.75C56.0564 101.659 56.1085 101.574 56.1606 101.496C56.2257 101.405 56.2908 101.333 56.3559 101.281C56.421 101.229 56.4861 101.229 56.5512 101.281L57.4692 102.219C57.5082 102.258 57.4822 102.342 57.3911 102.473C57.3129 102.59 57.2153 102.727 57.0981 102.883C56.9809 103.026 56.8637 103.169 56.7465 103.312C56.6293 103.443 56.5642 103.54 56.5512 103.605C56.4601 103.944 56.3819 104.354 56.3168 104.836C56.2517 105.305 56.1996 105.812 56.1606 106.359C56.1215 106.893 56.089 107.447 56.0629 108.02C56.0369 108.592 56.0108 109.152 55.9848 109.699C55.9718 110.233 55.9588 110.741 55.9457 111.223C55.9457 111.704 55.9392 112.121 55.9262 112.473C55.4575 112.46 55.0082 112.316 54.5786 112.043C54.1489 111.77 53.7322 111.411 53.3286 110.969C52.9379 110.513 52.5538 110.005 52.1762 109.445C51.8116 108.872 51.4536 108.299 51.102 107.727C50.7634 107.141 50.4314 106.568 50.1059 106.008C49.7804 105.448 49.4679 104.953 49.1684 104.523H48.9926C48.9405 104.523 48.895 104.667 48.8559 104.953C48.8299 105.227 48.8038 105.585 48.7778 106.027C48.7517 106.47 48.7257 106.978 48.6996 107.551C48.6736 108.111 48.6345 108.677 48.5825 109.25C48.5434 109.81 48.4913 110.35 48.4262 110.871C48.3611 111.379 48.283 111.809 48.1918 112.16C48.1007 112.512 47.99 112.759 47.8598 112.902C47.7296 113.046 47.5733 113.026 47.3911 112.844ZM59.9301 104.074C59.9041 104.061 59.8715 104.016 59.8325 103.938C59.8064 103.859 59.7869 103.807 59.7739 103.781C59.7478 103.599 59.6697 103.286 59.5395 102.844C59.4223 102.388 59.3051 101.913 59.1879 101.418C59.0707 100.923 58.9796 100.461 58.9145 100.031C58.8624 99.6016 58.8884 99.3086 58.9926 99.1523C59.1098 98.9831 59.24 98.944 59.3832 99.0352C59.5265 99.1263 59.6697 99.3021 59.8129 99.5625C59.9692 99.8099 60.1124 100.122 60.2426 100.5C60.3728 100.878 60.4835 101.268 60.5746 101.672C60.6658 102.062 60.7309 102.447 60.77 102.824C60.809 103.189 60.809 103.501 60.77 103.762C60.7309 104.009 60.6398 104.172 60.4965 104.25C60.3663 104.328 60.1775 104.27 59.9301 104.074ZM64.4418 112.844C64.4418 112.596 64.4483 112.264 64.4614 111.848C64.4874 111.431 64.5069 110.975 64.52 110.48C64.533 109.986 64.5395 109.478 64.5395 108.957C64.5395 108.436 64.5265 107.948 64.5004 107.492C64.4744 107.036 64.4288 106.639 64.3637 106.301C64.3116 105.962 64.2335 105.734 64.1293 105.617C63.309 105.682 62.684 105.676 62.2543 105.598C61.8246 105.52 61.6033 105.415 61.5903 105.285C61.5903 105.155 61.8116 105.018 62.2543 104.875C62.697 104.719 63.3806 104.608 64.3051 104.543C64.3051 104.387 64.3051 104.113 64.3051 103.723C64.3181 103.319 64.3246 102.896 64.3246 102.453C64.3246 102.01 64.3181 101.594 64.3051 101.203C64.3051 100.812 64.3051 100.539 64.3051 100.383C64.2921 100.292 64.2726 100.168 64.2465 100.012C64.2205 99.8555 64.1944 99.6927 64.1684 99.5234C64.1424 99.3411 64.1228 99.1654 64.1098 98.9961C64.0968 98.8138 64.1033 98.6641 64.1293 98.5469C64.1554 98.3906 64.2205 98.2865 64.3246 98.2344C64.4418 98.1693 64.559 98.1432 64.6762 98.1562C64.7934 98.1562 64.8976 98.1953 64.9887 98.2734C65.0929 98.3385 65.145 98.4297 65.145 98.5469V104.387C65.145 104.517 65.3077 104.582 65.6332 104.582C65.9588 104.569 66.3559 104.536 66.8246 104.484C67.2934 104.432 67.7817 104.38 68.2895 104.328C68.8103 104.263 69.253 104.243 69.6176 104.27C69.9952 104.296 70.2491 104.387 70.3793 104.543C70.5095 104.686 70.4314 104.94 70.145 105.305C70.1189 105.331 70.0668 105.363 69.9887 105.402C69.9106 105.441 69.8585 105.461 69.8325 105.461C69.1293 105.435 68.3871 105.428 67.6059 105.441C66.8246 105.454 66.0825 105.513 65.3793 105.617C65.145 105.656 65.0148 105.878 64.9887 106.281C64.9757 106.672 65.0082 107.154 65.0864 107.727C65.1775 108.299 65.2752 108.911 65.3793 109.562C65.4965 110.201 65.5681 110.786 65.5942 111.32C65.6202 111.854 65.5616 112.29 65.4184 112.629C65.2882 112.954 65.0148 113.078 64.5981 113C64.572 113 64.5395 112.98 64.5004 112.941C64.4614 112.902 64.4418 112.87 64.4418 112.844ZM83.2309 112.707C82.8924 112.447 82.5733 112.049 82.2739 111.516C81.9874 110.982 81.7465 110.389 81.5512 109.738C81.3559 109.074 81.2192 108.384 81.1411 107.668C81.0629 106.952 81.0564 106.281 81.1215 105.656C81.1866 105.018 81.3364 104.465 81.5707 103.996C81.8181 103.514 82.1632 103.182 82.6059 103C82.9705 102.857 83.283 102.889 83.5434 103.098C83.8168 103.293 84.0382 103.56 84.2075 103.898C84.3767 104.224 84.4874 104.562 84.5395 104.914C84.6046 105.266 84.6046 105.526 84.5395 105.695C84.4744 105.852 84.3442 105.865 84.1489 105.734C83.9666 105.591 83.7127 105.194 83.3871 104.543C83.2439 104.243 83.0877 104.146 82.9184 104.25C82.7621 104.341 82.6124 104.569 82.4692 104.934C82.339 105.298 82.2283 105.76 82.1371 106.32C82.059 106.867 82.0134 107.44 82.0004 108.039C82.0004 108.638 82.046 109.224 82.1371 109.797C82.2413 110.357 82.4106 110.839 82.645 111.242C82.8793 111.633 83.1918 111.906 83.5825 112.062C83.9861 112.206 84.4809 112.16 85.0668 111.926C85.184 111.874 85.3728 111.711 85.6332 111.438C85.8937 111.164 86.1736 110.858 86.4731 110.52C86.7856 110.181 87.0916 109.855 87.3911 109.543C87.6905 109.23 87.9379 109.016 88.1332 108.898C88.3416 108.781 88.4718 108.801 88.5239 108.957C88.5759 109.1 88.5043 109.471 88.309 110.07C88.1658 110.526 87.9054 110.988 87.5278 111.457C87.1632 111.913 86.74 112.297 86.2582 112.609C85.7895 112.909 85.2882 113.085 84.7543 113.137C84.2205 113.202 83.7127 113.059 83.2309 112.707ZM89.8325 112.707C89.7804 112.499 89.7413 112.212 89.7153 111.848C89.6892 111.483 89.6762 111.079 89.6762 110.637C89.6762 110.181 89.6762 109.706 89.6762 109.211C89.6892 108.716 89.7023 108.234 89.7153 107.766C89.7283 107.297 89.7283 106.861 89.7153 106.457C89.7153 106.053 89.7023 105.721 89.6762 105.461C89.6632 105.266 89.6437 104.979 89.6176 104.602C89.6046 104.211 89.5851 103.775 89.559 103.293C89.533 102.811 89.5004 102.303 89.4614 101.77C89.4353 101.236 89.4158 100.728 89.4028 100.246C89.3898 99.7513 89.3832 99.3021 89.3832 98.8984C89.3832 98.4818 89.3963 98.1628 89.4223 97.9414C89.6176 97.7721 89.7739 97.8177 89.8911 98.0781C90.0213 98.3255 90.1189 98.6901 90.184 99.1719C90.2491 99.6406 90.2882 100.174 90.3012 100.773C90.3273 101.372 90.3403 101.939 90.3403 102.473C90.3403 103.007 90.3338 103.456 90.3207 103.82C90.3077 104.185 90.3012 104.374 90.3012 104.387C90.3663 105.611 90.4054 106.822 90.4184 108.02C90.4444 109.204 90.5095 110.402 90.6137 111.613C90.7439 111.861 90.809 112.128 90.809 112.414C90.822 112.688 90.783 112.909 90.6918 113.078C90.6137 113.247 90.4965 113.319 90.3403 113.293C90.184 113.267 90.0148 113.072 89.8325 112.707ZM91.8442 112.531C91.8181 112.453 91.7986 112.193 91.7856 111.75C91.7726 111.294 91.7595 110.747 91.7465 110.109C91.7465 109.471 91.753 108.781 91.7661 108.039C91.7791 107.284 91.7921 106.581 91.8051 105.93C91.8312 105.266 91.8572 104.693 91.8832 104.211C91.9223 103.729 91.9614 103.423 92.0004 103.293C92.0786 103.254 92.1632 103.254 92.2543 103.293C92.3455 103.332 92.4236 103.384 92.4887 103.449C92.5668 103.514 92.6319 103.592 92.684 103.684C92.7361 103.775 92.7621 103.853 92.7621 103.918V112.531C92.7621 112.674 92.7231 112.785 92.645 112.863C92.5668 112.928 92.4692 112.961 92.352 112.961C92.2478 112.961 92.1437 112.928 92.0395 112.863C91.9483 112.785 91.8832 112.674 91.8442 112.531ZM92.0004 100.246C91.9874 100.207 91.9744 100.155 91.9614 100.09C91.9614 100.012 91.9614 99.9336 91.9614 99.8555C91.9614 99.7643 91.9614 99.6862 91.9614 99.6211C91.9744 99.543 91.9874 99.4909 92.0004 99.4648C92.1046 99.4128 92.2218 99.3672 92.352 99.3281C92.4822 99.2891 92.6189 99.2826 92.7621 99.3086C92.9835 99.5951 93.1202 99.8294 93.1723 100.012C93.2374 100.181 93.2439 100.318 93.1918 100.422C93.1398 100.513 93.0486 100.572 92.9184 100.598C92.8012 100.611 92.6775 100.604 92.5473 100.578C92.4171 100.552 92.2934 100.513 92.1762 100.461C92.072 100.396 92.0134 100.324 92.0004 100.246ZM96.1606 112.707C95.822 112.447 95.503 112.049 95.2036 111.516C94.9171 110.982 94.6762 110.389 94.4809 109.738C94.2856 109.074 94.1489 108.384 94.0707 107.668C93.9926 106.952 93.9861 106.281 94.0512 105.656C94.1163 105.018 94.2661 104.465 94.5004 103.996C94.7478 103.514 95.0929 103.182 95.5356 103C95.9002 102.857 96.2127 102.889 96.4731 103.098C96.7465 103.293 96.9679 103.56 97.1371 103.898C97.3064 104.224 97.4171 104.562 97.4692 104.914C97.5343 105.266 97.5343 105.526 97.4692 105.695C97.4041 105.852 97.2739 105.865 97.0786 105.734C96.8963 105.591 96.6424 105.194 96.3168 104.543C96.1736 104.243 96.0174 104.146 95.8481 104.25C95.6918 104.341 95.5421 104.569 95.3989 104.934C95.2687 105.298 95.158 105.76 95.0668 106.32C94.9887 106.867 94.9431 107.44 94.9301 108.039C94.9301 108.638 94.9757 109.224 95.0668 109.797C95.171 110.357 95.3403 110.839 95.5746 111.242C95.809 111.633 96.1215 111.906 96.5121 112.062C96.9158 112.206 97.4106 112.16 97.9965 111.926C98.1137 111.874 98.3025 111.711 98.5629 111.438C98.8233 111.164 99.1033 110.858 99.4028 110.52C99.7153 110.181 100.021 109.855 100.321 109.543C100.62 109.23 100.868 109.016 101.063 108.898C101.271 108.781 101.401 108.801 101.454 108.957C101.506 109.1 101.434 109.471 101.239 110.07C101.095 110.526 100.835 110.988 100.457 111.457C100.093 111.913 99.6697 112.297 99.1879 112.609C98.7192 112.909 98.2179 113.085 97.684 113.137C97.1502 113.202 96.6424 113.059 96.1606 112.707ZM102.723 112.57C103.01 110.5 103.088 108.456 102.957 106.438C102.84 104.419 102.463 102.414 101.825 100.422C101.76 100.253 101.76 100.109 101.825 99.9922C101.89 99.875 101.981 99.8099 102.098 99.7969C102.215 99.7708 102.332 99.8099 102.45 99.9141C102.567 100.005 102.658 100.174 102.723 100.422C102.905 101.49 103.055 102.564 103.172 103.645C103.303 104.712 103.446 105.793 103.602 106.887C103.928 107.147 104.266 107.206 104.618 107.062C104.982 106.919 105.347 106.659 105.711 106.281C106.076 105.904 106.428 105.454 106.766 104.934C107.118 104.4 107.443 103.885 107.743 103.391C108.055 102.896 108.329 102.453 108.563 102.062C108.81 101.672 109.012 101.424 109.168 101.32C109.455 101.112 109.598 101.099 109.598 101.281C109.598 101.451 109.5 101.73 109.305 102.121C109.11 102.512 108.849 102.974 108.524 103.508C108.198 104.029 107.853 104.543 107.489 105.051C107.137 105.546 106.792 105.988 106.454 106.379C106.128 106.77 105.868 107.03 105.672 107.16C105.646 107.186 105.594 107.219 105.516 107.258C105.451 107.297 105.379 107.342 105.301 107.395C105.223 107.447 105.145 107.499 105.067 107.551C104.989 107.59 104.937 107.616 104.911 107.629V107.785C104.911 107.798 104.956 107.837 105.047 107.902C105.138 107.954 105.243 108.02 105.36 108.098C105.49 108.176 105.62 108.254 105.75 108.332C105.881 108.41 105.985 108.475 106.063 108.527C106.31 108.658 106.61 108.833 106.961 109.055C107.326 109.276 107.71 109.51 108.114 109.758C108.53 109.992 108.954 110.22 109.383 110.441C109.826 110.663 110.262 110.845 110.692 110.988C111.122 111.132 111.525 111.216 111.903 111.242C112.293 111.268 112.632 111.203 112.918 111.047C113.218 110.891 113.459 110.624 113.641 110.246C113.823 109.868 113.921 109.348 113.934 108.684H114.325C114.39 108.684 114.442 108.775 114.481 108.957C114.52 109.139 114.533 109.367 114.52 109.641C114.52 109.901 114.481 110.188 114.403 110.5C114.325 110.799 114.194 111.079 114.012 111.34C113.83 111.587 113.582 111.789 113.27 111.945C112.97 112.102 112.593 112.16 112.137 112.121C111.499 112.069 110.835 111.906 110.145 111.633C109.455 111.359 108.771 111.04 108.094 110.676C107.417 110.298 106.76 109.901 106.122 109.484C105.497 109.068 104.924 108.697 104.403 108.371C104.364 108.345 104.273 108.319 104.129 108.293C103.999 108.254 103.921 108.228 103.895 108.215H103.758C103.68 108.983 103.635 109.771 103.622 110.578C103.622 111.372 103.537 112.134 103.368 112.863C103.355 112.876 103.309 112.889 103.231 112.902C103.153 112.915 103.068 112.922 102.977 112.922C102.899 112.909 102.827 112.876 102.762 112.824C102.71 112.772 102.697 112.688 102.723 112.57ZM114.305 112.531C114.136 112.336 114.077 112.147 114.129 111.965C114.194 111.77 114.299 111.548 114.442 111.301C114.859 111.145 115.171 111.099 115.379 111.164C115.601 111.229 115.737 111.346 115.789 111.516C115.842 111.685 115.829 111.88 115.75 112.102C115.672 112.31 115.555 112.486 115.399 112.629C115.243 112.772 115.067 112.85 114.872 112.863C114.676 112.876 114.487 112.766 114.305 112.531ZM114.754 105.461C114.728 104.706 114.754 103.931 114.832 103.137C114.924 102.342 114.943 101.574 114.891 100.832C114.865 100.337 114.859 99.888 114.872 99.4844C114.885 99.0677 114.885 98.8008 114.872 98.6836C114.859 98.5534 114.826 98.4036 114.774 98.2344C114.735 98.0651 114.709 97.8958 114.696 97.7266C114.696 97.5573 114.722 97.4076 114.774 97.2773C114.839 97.1341 114.969 97.0365 115.164 96.9844C115.438 96.9062 115.646 97.0104 115.789 97.2969C115.803 97.6094 115.809 98.0651 115.809 98.6641C115.809 99.25 115.809 99.8685 115.809 100.52C115.809 101.171 115.809 101.796 115.809 102.395C115.809 102.993 115.816 103.449 115.829 103.762C115.829 103.827 115.789 103.996 115.711 104.27C115.646 104.53 115.555 104.784 115.438 105.031C115.334 105.279 115.217 105.467 115.086 105.598C114.969 105.728 114.859 105.682 114.754 105.461ZM117.079 112.531C116.909 112.336 116.851 112.147 116.903 111.965C116.968 111.77 117.072 111.548 117.215 111.301C117.632 111.145 117.944 111.099 118.153 111.164C118.374 111.229 118.511 111.346 118.563 111.516C118.615 111.685 118.602 111.88 118.524 112.102C118.446 112.31 118.329 112.486 118.172 112.629C118.016 112.772 117.84 112.85 117.645 112.863C117.45 112.876 117.261 112.766 117.079 112.531ZM117.528 105.461C117.502 104.706 117.528 103.931 117.606 103.137C117.697 102.342 117.717 101.574 117.664 100.832C117.638 100.337 117.632 99.888 117.645 99.4844C117.658 99.0677 117.658 98.8008 117.645 98.6836C117.632 98.5534 117.599 98.4036 117.547 98.2344C117.508 98.0651 117.482 97.8958 117.469 97.7266C117.469 97.5573 117.495 97.4076 117.547 97.2773C117.612 97.1341 117.743 97.0365 117.938 96.9844C118.211 96.9062 118.42 97.0104 118.563 97.2969C118.576 97.6094 118.582 98.0651 118.582 98.6641C118.582 99.25 118.582 99.8685 118.582 100.52C118.582 101.171 118.582 101.796 118.582 102.395C118.582 102.993 118.589 103.449 118.602 103.762C118.602 103.827 118.563 103.996 118.485 104.27C118.42 104.53 118.329 104.784 118.211 105.031C118.107 105.279 117.99 105.467 117.86 105.598C117.743 105.728 117.632 105.682 117.528 105.461ZM119.852 112.531C119.683 112.336 119.624 112.147 119.676 111.965C119.741 111.77 119.845 111.548 119.989 111.301C120.405 111.145 120.718 111.099 120.926 111.164C121.148 111.229 121.284 111.346 121.336 111.516C121.388 111.685 121.375 111.88 121.297 112.102C121.219 112.31 121.102 112.486 120.946 112.629C120.789 112.772 120.614 112.85 120.418 112.863C120.223 112.876 120.034 112.766 119.852 112.531ZM120.301 105.461C120.275 104.706 120.301 103.931 120.379 103.137C120.47 102.342 120.49 101.574 120.438 100.832C120.412 100.337 120.405 99.888 120.418 99.4844C120.431 99.0677 120.431 98.8008 120.418 98.6836C120.405 98.5534 120.373 98.4036 120.321 98.2344C120.282 98.0651 120.256 97.8958 120.243 97.7266C120.243 97.5573 120.269 97.4076 120.321 97.2773C120.386 97.1341 120.516 97.0365 120.711 96.9844C120.985 96.9062 121.193 97.0104 121.336 97.2969C121.349 97.6094 121.356 98.0651 121.356 98.6641C121.356 99.25 121.356 99.8685 121.356 100.52C121.356 101.171 121.356 101.796 121.356 102.395C121.356 102.993 121.362 103.449 121.375 103.762C121.375 103.827 121.336 103.996 121.258 104.27C121.193 104.53 121.102 104.784 120.985 105.031C120.881 105.279 120.763 105.467 120.633 105.598C120.516 105.728 120.405 105.682 120.301 105.461ZM122.625 112.531C122.456 112.336 122.398 112.147 122.45 111.965C122.515 111.77 122.619 111.548 122.762 111.301C123.179 111.145 123.491 111.099 123.7 111.164C123.921 111.229 124.058 111.346 124.11 111.516C124.162 111.685 124.149 111.88 124.071 112.102C123.993 112.31 123.875 112.486 123.719 112.629C123.563 112.772 123.387 112.85 123.192 112.863C122.997 112.876 122.808 112.766 122.625 112.531ZM123.075 105.461C123.049 104.706 123.075 103.931 123.153 103.137C123.244 102.342 123.263 101.574 123.211 100.832C123.185 100.337 123.179 99.888 123.192 99.4844C123.205 99.0677 123.205 98.8008 123.192 98.6836C123.179 98.5534 123.146 98.4036 123.094 98.2344C123.055 98.0651 123.029 97.8958 123.016 97.7266C123.016 97.5573 123.042 97.4076 123.094 97.2773C123.159 97.1341 123.289 97.0365 123.485 96.9844C123.758 96.9062 123.967 97.0104 124.11 97.2969C124.123 97.6094 124.129 98.0651 124.129 98.6641C124.129 99.25 124.129 99.8685 124.129 100.52C124.129 101.171 124.129 101.796 124.129 102.395C124.129 102.993 124.136 103.449 124.149 103.762C124.149 103.827 124.11 103.996 124.032 104.27C123.967 104.53 123.875 104.784 123.758 105.031C123.654 105.279 123.537 105.467 123.407 105.598C123.289 105.728 123.179 105.682 123.075 105.461Z" fill="black"/>
</svg>
