<svg width="284" height="284" viewBox="0 0 284 284" fill="none" xmlns="http://www.w3.org/2000/svg">
<path opacity="0.6" d="M142 0L158.216 39.6162L185.88 6.94998L189.061 49.6383L225.466 27.1196L215.299 68.7013L256.88 58.5345L234.362 94.9393L277.05 98.1196L244.384 125.784L284 142L244.384 158.216L277.05 185.88L234.362 189.061L256.88 225.466L215.299 215.299L225.466 256.88L189.061 234.362L185.88 277.05L158.216 244.384L142 284L125.784 244.384L98.1196 277.05L94.9393 234.362L58.5345 256.88L68.7013 215.299L27.1196 225.466L49.6383 189.061L6.94998 185.88L39.6162 158.216L0 142L39.6162 125.784L6.94998 98.1196L49.6383 94.9393L27.1196 58.5345L68.7013 68.7013L58.5345 27.1196L94.9393 49.6383L98.1196 6.94998L125.784 39.6162L142 0Z" fill="#CE2E07"/>
</svg>
