<svg width="315" height="40" viewBox="0 0 315 40" fill="none" xmlns="http://www.w3.org/2000/svg">
<path d="M19.5 0L21.0217 12.1537L26.9623 1.52241L23.8334 13.3482L33.2886 5.85786L25.9855 15.5554L37.5157 12.3463L27.1501 18.4393L39 20L27.1501 21.5607L37.5157 27.6537L25.9855 24.4446L33.2886 34.1421L23.8334 26.6518L26.9623 38.4776L21.0217 27.8463L19.5 40L17.9783 27.8463L12.0377 38.4776L15.1666 26.6518L5.71142 34.1421L13.0145 24.4446L1.48435 27.6537L11.8499 21.5607L0 20L11.8499 18.4393L1.48435 12.3463L13.0145 15.5554L5.71142 5.85786L15.1666 13.3482L12.0377 1.52241L17.9783 12.1537L19.5 0Z" fill="#F75129"/>
<path d="M23.7452 18C26.5296 18 28.7316 18.721 30.3512 20.1629C31.9709 21.5861 32.7807 23.6273 32.7807 26.2865H27.0209C27.0209 25.1629 26.7297 24.2734 26.1474 23.618C25.5832 22.9625 24.7734 22.6348 23.7179 22.6348C22.4986 22.6348 21.5978 23.0281 21.0155 23.8146C20.4513 24.6011 20.1692 25.6966 20.1692 27.1011V28.8989C20.1692 30.2846 20.4513 31.3801 21.0155 32.1854C21.5978 32.9719 22.4804 33.3652 23.6633 33.3652C24.828 33.3652 25.7106 33.0562 26.3112 32.4382C26.9117 31.8202 27.212 30.9494 27.212 29.8258H32.7807C32.7807 32.4663 31.9891 34.4888 30.4058 35.8933C28.8407 37.2978 26.6205 38 23.7452 38C20.5423 38 18.1128 37.1573 16.4568 35.4719C14.8189 33.7865 14 31.2959 14 28C14 24.7041 14.8189 22.2135 16.4568 20.5281C18.1128 18.8427 20.5423 18 23.7452 18Z" fill="black"/>
<path d="M48.7039 37.6629V30.3315H42.0706V37.6629H36.0378V18.3371H42.0706V25.3876H48.7039V18.3371H54.7366V37.6629H48.7039Z" fill="black"/>
<path d="M71.361 37.6629L70.5694 34.9382H63.9907L63.1991 37.6629H57.0298L63.8815 18.3371H70.8969L77.7486 37.6629H71.361ZM65.2464 30.6124H69.3137L67.3483 23.7303H67.2391L65.2464 30.6124Z" fill="black"/>
<path d="M93.4534 37.6629L85.5644 28.2809V37.6629H80.0231V18.3371H85.2915L93.1805 27.8596V18.3371H98.7218V37.6629H93.4534Z" fill="black"/>
<path d="M112.207 18C114.009 18 115.628 18.2809 117.066 18.8427C118.504 19.4045 119.641 20.2378 120.478 21.3427C121.333 22.4288 121.761 23.7584 121.761 25.3315H116.001C116.001 24.5262 115.656 23.8801 114.964 23.3933C114.273 22.8876 113.435 22.6348 112.453 22.6348C111.033 22.6348 109.96 23.0281 109.232 23.8146C108.504 24.5824 108.14 25.6779 108.14 27.1011V28.8989C108.14 30.3221 108.504 31.427 109.232 32.2135C109.96 32.9813 111.033 33.3652 112.453 33.3652C113.435 33.3652 114.273 33.1311 114.964 32.6629C115.656 32.176 116.001 31.5581 116.001 30.809H111.743V26.8764H121.761V37.6629H118.649L118.049 35.7528C116.338 37.2509 114.1 38 111.333 38C108.222 38 105.883 37.1667 104.318 35.5C102.753 33.8146 101.97 31.3146 101.97 28C101.97 24.7228 102.853 22.2416 104.618 20.5562C106.402 18.8521 108.931 18 112.207 18Z" fill="black"/>
<path d="M125.501 18.3371H141.743V22.9719H131.534V25.6404H140.269V30.0787H131.534V33.0281H141.934V37.6629H125.501V18.3371Z" fill="black"/>
<path d="M172.117 24.264C172.117 25.4438 171.807 26.5112 171.189 27.4663C170.57 28.4213 169.669 29.1236 168.486 29.573L172.663 37.6629H165.893L162.563 30.6124H160.324V37.6629H154.291V18.3371H165.784C167.13 18.3371 168.277 18.6086 169.223 19.1517C170.188 19.676 170.907 20.397 171.38 21.3146C171.871 22.2135 172.117 23.1966 172.117 24.264ZM165.975 24.5169C165.975 24.0112 165.811 23.5899 165.483 23.2528C165.156 22.9157 164.755 22.7472 164.282 22.7472H160.324V26.3146H164.282C164.755 26.3146 165.156 26.1461 165.483 25.809C165.811 25.4532 165.975 25.0225 165.975 24.5169Z" fill="black"/>
<path d="M175.538 18.3371H191.78V22.9719H181.57V25.6404H190.306V30.0787H181.57V33.0281H191.971V37.6629H175.538V18.3371Z" fill="black"/>
<path d="M207.822 37.6629L207.03 34.9382H200.452L199.66 37.6629H193.491L200.342 18.3371H207.358L214.209 37.6629H207.822ZM201.707 30.6124H205.775L203.809 23.7303H203.7L201.707 30.6124Z" fill="black"/>
<path d="M216.484 18.3371H222.517V32.7191H232.153V37.6629H216.484V18.3371Z" fill="black"/>
<path d="M234.964 37.6629V18.3371H240.997V37.6629H234.964Z" fill="black"/>
<path d="M256.111 23.2809V37.6629H250.078V23.2809H243.909V18.3371H262.253V23.2809H256.111Z" fill="black"/>
<path d="M276.657 37.6629H270.624V30.1629L263.172 18.3371H270.106L273.709 24.7697H273.818L277.421 18.3371H284L276.657 30.1629V37.6629Z" fill="black"/>
<path fill-rule="evenodd" clip-rule="evenodd" d="M315 31H286V28H315V31Z" fill="black"/>
</svg>
