<svg width="757" height="95" viewBox="0 0 757 95" fill="none" xmlns="http://www.w3.org/2000/svg">
<path d="M47.5 0L51.2067 28.8651L65.6775 3.61572L58.0558 31.7021L81.0876 13.9124L63.2979 36.9442L91.3843 29.3225L66.1349 43.7933L95 47.5L66.1349 51.2067L91.3843 65.6775L63.2979 58.0558L81.0876 81.0876L58.0558 63.2979L65.6775 91.3843L51.2067 66.1349L47.5 95L43.7933 66.1349L29.3225 91.3843L36.9442 63.2979L13.9124 81.0876L31.7021 58.0558L3.61572 65.6775L28.8651 51.2067L0 47.5L28.8651 43.7933L3.61572 29.3225L31.7021 36.9442L13.9124 13.9124L36.9442 31.7021L29.3225 3.61572L43.7933 28.8651L47.5 0Z" fill="#F75129"/>
<path d="M57.3885 44C64.0709 44 69.3557 45.6582 73.2429 48.9747C77.1301 52.2481 79.0736 56.9429 79.0736 63.059H65.2502C65.2502 60.4747 64.5514 58.4288 63.1537 56.9213C61.7998 55.4139 59.8562 54.6601 57.323 54.6601C54.3967 54.6601 52.2347 55.5646 50.8371 57.3736C49.4831 59.1826 48.8062 61.7022 48.8062 64.9326V69.0674C48.8062 72.2547 49.4831 74.7743 50.8371 76.6264C52.2347 78.4354 54.353 79.3399 57.192 79.3399C59.9872 79.3399 62.1055 78.6292 63.5468 77.2079C64.9881 75.7865 65.7088 73.7837 65.7088 71.1994H79.0736C79.0736 77.2725 77.1737 81.9242 73.3739 85.1545C69.6178 88.3848 64.2893 90 57.3885 90C49.7015 90 43.8708 88.0618 39.8963 84.1854C35.9654 80.309 34 74.5805 34 67C34 59.4195 35.9654 53.691 39.8963 49.8146C43.8708 45.9382 49.7015 44 57.3885 44Z" fill="black"/>
<path d="M117.289 89.2247V72.3624H101.369V89.2247H86.8908V44.7753H101.369V60.9916H117.289V44.7753H131.768V89.2247H117.289Z" fill="black"/>
<path d="M171.666 89.2247L169.767 82.9579H153.978L152.078 89.2247H137.272L153.716 44.7753H170.553L186.997 89.2247H171.666ZM156.991 73.0084H166.753L162.036 57.1798H161.774L156.991 73.0084Z" fill="black"/>
<path d="M224.688 89.2247L205.755 67.6461V89.2247H192.455V44.7753H205.1L224.033 66.677V44.7753H237.332V89.2247H224.688Z" fill="black"/>
<path d="M269.697 44C274.021 44 277.908 44.6461 281.358 45.9382C284.809 47.2303 287.538 49.147 289.548 51.6882C291.6 54.1863 292.627 57.2444 292.627 60.8624H278.803C278.803 59.0103 277.973 57.5243 276.314 56.4045C274.654 55.2416 272.645 54.6601 270.286 54.6601C266.88 54.6601 264.303 55.5646 262.556 57.3736C260.809 59.1395 259.935 61.6592 259.935 64.9326V69.0674C259.935 72.3408 260.809 74.882 262.556 76.691C264.303 78.4569 266.88 79.3399 270.286 79.3399C272.645 79.3399 274.654 78.8015 276.314 77.7247C277.973 76.6049 278.803 75.1835 278.803 73.4607H268.583V64.4157H292.627V89.2247H285.158L283.717 84.8315C279.611 88.2772 274.239 90 267.6 90C260.132 90 254.519 88.0833 250.763 84.25C247.007 80.3736 245.129 74.6236 245.129 67C245.129 59.4625 247.247 53.7556 251.484 49.8792C255.764 45.9597 261.835 44 269.697 44Z" fill="black"/>
<path d="M301.603 44.7753H340.584V55.4354H316.081V61.573H337.046V71.7809H316.081V78.5646H341.042V89.2247H301.603V44.7753Z" fill="black"/>
<path d="M413.48 58.4073C413.48 61.1208 412.738 63.5758 411.253 65.7725C409.768 67.9691 407.606 69.5843 404.767 70.618L414.79 89.2247H398.543L390.55 73.0084H385.178V89.2247H370.699V44.7753H398.281C401.513 44.7753 404.264 45.3998 406.536 46.6489C408.85 47.8549 410.576 49.5131 411.711 51.6236C412.891 53.691 413.48 55.9522 413.48 58.4073ZM398.739 58.9888C398.739 57.8258 398.346 56.8567 397.56 56.0815C396.774 55.3062 395.813 54.9185 394.678 54.9185H385.178V63.1236H394.678C395.813 63.1236 396.774 62.736 397.56 61.9607C398.346 61.1423 398.739 60.1517 398.739 58.9888Z" fill="black"/>
<path d="M421.69 44.7753H460.671V55.4354H436.169V61.573H457.133V71.7809H436.169V78.5646H461.13V89.2247H421.69V44.7753Z" fill="black"/>
<path d="M499.172 89.2247L497.273 82.9579H481.484L479.584 89.2247H464.778L481.222 44.7753H498.059L514.503 89.2247H499.172ZM484.497 73.0084H494.259L489.542 57.1798H489.28L484.497 73.0084Z" fill="black"/>
<path d="M519.961 44.7753H534.44V77.8539H557.566V89.2247H519.961V44.7753Z" fill="black"/>
<path d="M564.314 89.2247V44.7753H578.792V89.2247H564.314Z" fill="black"/>
<path d="M615.066 56.1461V89.2247H600.587V56.1461H585.781V44.7753H629.806V56.1461H615.066Z" fill="black"/>
<path d="M664.377 89.2247H649.898V71.9747L632.013 44.7753H648.653L657.301 59.5702H657.563L666.211 44.7753H682L664.377 71.9747V89.2247Z" fill="black"/>
<path fill-rule="evenodd" clip-rule="evenodd" d="M757 73H686V67H757V73Z" fill="black"/>
</svg>
