<svg width="1034" height="101" viewBox="0 0 1034 101" fill="none" xmlns="http://www.w3.org/2000/svg">
<path d="M47.5 0L51.2067 28.8651L65.6775 3.61572L58.0558 31.7021L81.0876 13.9124L63.2979 36.9442L91.3843 29.3225L66.1349 43.7933L95 47.5L66.1349 51.2067L91.3843 65.6775L63.2979 58.0558L81.0876 81.0876L58.0558 63.2979L65.6775 91.3843L51.2067 66.1349L47.5 95L43.7933 66.1349L29.3225 91.3843L36.9442 63.2979L13.9124 81.0876L31.7021 58.0558L3.61572 65.6775L28.8651 51.2067L0 47.5L28.8651 43.7933L3.61572 29.3225L31.7021 36.9442L13.9124 13.9124L36.9442 31.7021L29.3225 3.61572L43.7933 28.8651L47.5 0Z" fill="#F75129"/>
<path d="M62.8747 44C71.1246 44 77.649 46.0548 82.448 50.1643C87.247 54.2205 89.6465 60.0379 89.6465 67.6166H72.5805C72.5805 64.4143 71.7177 61.8792 69.9923 60.0112C68.3207 58.1433 65.9212 57.2093 62.7938 57.2093C59.1811 57.2093 56.512 58.3301 54.7865 60.5716C53.115 62.8132 52.2792 65.9354 52.2792 69.9382V75.0618C52.2792 79.0112 53.115 82.1334 54.7865 84.4284C56.512 86.6699 59.1272 87.7907 62.632 87.7907C66.083 87.7907 68.6982 86.9101 70.4775 85.1489C72.2569 83.3876 73.1466 80.9059 73.1466 77.7037H89.6465C89.6465 85.2289 87.3009 90.993 82.6098 94.9958C77.9726 98.9986 71.3942 101 62.8747 101C53.3846 101 46.1861 98.5983 41.2793 93.7949C36.4264 88.9916 34 81.8933 34 72.5C34 63.1067 36.4264 56.0084 41.2793 51.2051C46.1861 46.4017 53.3846 44 62.8747 44Z" fill="black"/>
<path d="M136.826 100.039V79.1447H117.172V100.039H99.2973V44.9607H117.172V65.0548H136.826V44.9607H154.701V100.039H136.826Z" fill="black"/>
<path d="M203.959 100.039L201.613 92.2739H182.121L179.775 100.039H161.496L181.797 44.9607H202.584L222.885 100.039H203.959ZM185.841 79.9452H197.892L192.069 60.3315H191.745L185.841 79.9452Z" fill="black"/>
<path d="M269.418 100.039L246.043 73.3006V100.039H229.624V44.9607H245.234L268.609 72.0997V44.9607H285.028V100.039H269.418Z" fill="black"/>
<path d="M324.984 44C330.322 44 335.121 44.8006 339.381 46.4017C343.64 48.0028 347.01 50.3778 349.491 53.5267C352.025 56.6222 353.292 60.4115 353.292 64.8947H336.226C336.226 62.5997 335.202 60.7584 333.153 59.3708C331.104 57.9298 328.623 57.2093 325.712 57.2093C321.506 57.2093 318.325 58.3301 316.168 60.5716C314.011 62.7598 312.932 65.882 312.932 69.9382V75.0618C312.932 79.118 314.011 82.2669 316.168 84.5084C318.325 86.6966 321.506 87.7907 325.712 87.7907C328.623 87.7907 331.104 87.1236 333.153 85.7893C335.202 84.4017 336.226 82.6404 336.226 80.5056H323.609V69.2978H353.292V100.039H344.072L342.292 94.5955C337.224 98.8652 330.592 101 322.396 101C313.175 101 306.246 98.625 301.609 93.875C296.972 89.0716 294.653 81.9466 294.653 72.5C294.653 63.1601 297.268 56.0885 302.499 51.2851C307.783 46.4284 315.278 44 324.984 44Z" fill="black"/>
<path d="M364.374 44.9607H412.498V58.1699H382.248V65.7753H408.131V78.4242H382.248V86.8301H413.064V100.039H364.374V44.9607Z" fill="black"/>
<path d="M502.494 61.8525C502.494 65.2149 501.577 68.257 499.744 70.9789C497.911 73.7008 495.242 75.7022 491.737 76.9831L504.112 100.039H484.053L474.185 79.9452H467.553V100.039H449.678V44.9607H483.729C487.72 44.9607 491.117 45.7346 493.921 47.2823C496.778 48.7767 498.908 50.8315 500.31 53.4466C501.766 56.0084 502.494 58.8104 502.494 61.8525ZM484.296 62.573C484.296 61.132 483.81 59.9312 482.84 58.9705C481.869 58.0098 480.683 57.5295 479.281 57.5295H467.553V67.6966H479.281C480.683 67.6966 481.869 67.2163 482.84 66.2556C483.81 65.2416 484.296 64.014 484.296 62.573Z" fill="black"/>
<path d="M512.63 44.9607H560.755V58.1699H530.505V65.7753H556.387V78.4242H530.505V86.8301H561.321V100.039H512.63V44.9607Z" fill="black"/>
<path d="M608.287 100.039L605.941 92.2739H586.449L584.103 100.039H565.824L586.125 44.9607H606.912L627.213 100.039H608.287ZM590.169 79.9452H602.221L596.397 60.3315H596.074L590.169 79.9452Z" fill="black"/>
<path d="M633.952 44.9607H651.827V85.9494H680.378V100.039H633.952V44.9607Z" fill="black"/>
<path d="M688.708 100.039V44.9607H706.583V100.039H688.708Z" fill="black"/>
<path d="M751.365 59.0506V100.039H733.49V59.0506H715.211V44.9607H769.563V59.0506H751.365Z" fill="black"/>
<path d="M812.243 100.039H794.368V78.6643L772.287 44.9607H792.831L803.508 63.2935H803.831L814.508 44.9607H834L812.243 78.6643V100.039Z" fill="black"/>
<path fill-rule="evenodd" clip-rule="evenodd" d="M1034 75H874V69H1034V75Z" fill="black"/>
</svg>
