<svg width="1401" height="202" viewBox="0 0 1401 202" fill="none" xmlns="http://www.w3.org/2000/svg">
<path d="M101 0L108.882 61.3763L139.651 7.68816L123.445 67.4086L172.418 29.5822L134.591 78.555L194.312 62.349L140.624 93.1184L202 101L140.624 108.882L194.312 139.651L134.591 123.445L172.418 172.418L123.445 134.591L139.651 194.312L108.882 140.624L101 202L93.1184 140.624L62.349 194.312L78.555 134.591L29.5822 172.418L67.4086 123.445L7.68816 139.651L61.3763 108.882L0 101L61.3763 93.1184L7.68816 62.349L67.4086 78.555L29.5822 29.5822L78.555 67.4086L62.349 7.68816L93.1184 61.3763L101 0Z" fill="#F75129"/>
<path d="M122.86 78C136.534 78 147.348 81.4246 155.303 88.2739C163.257 95.0342 167.234 104.73 167.234 117.361H138.947C138.947 112.024 137.517 107.799 134.657 104.685C131.887 101.572 127.909 100.015 122.726 100.015C116.738 100.015 112.314 101.883 109.454 105.619C106.683 109.355 105.298 114.559 105.298 121.23V129.77C105.298 136.352 106.683 141.556 109.454 145.381C112.314 149.117 116.648 150.985 122.458 150.985C128.178 150.985 132.512 149.517 135.462 146.581C138.411 143.646 139.886 139.51 139.886 134.173H167.234C167.234 146.715 163.346 156.322 155.571 162.993C147.885 169.664 136.981 173 122.86 173C107.13 173 95.1985 168.997 87.0655 160.992C79.0218 152.986 75 141.155 75 125.5C75 109.845 79.0218 98.014 87.0655 90.0084C95.1985 82.0028 107.13 78 122.86 78Z" fill="black"/>
<path d="M245.435 171.399V136.574H212.858V171.399H183.23V79.6011H212.858V113.091H245.435V79.6011H275.062V171.399H245.435Z" fill="black"/>
<path d="M356.706 171.399L352.818 158.456H320.51L316.622 171.399H286.324L319.974 79.6011H354.427L388.077 171.399H356.706ZM326.677 137.909H346.652L336.999 105.219H336.463L326.677 137.909Z" fill="black"/>
<path d="M465.205 171.399L426.461 126.834V171.399H399.247V79.6011H425.12L463.864 124.833V79.6011H491.078V171.399H465.205Z" fill="black"/>
<path d="M557.306 78C566.154 78 574.108 79.3343 581.168 82.0028C588.229 84.6713 593.815 88.6297 597.926 93.8778C602.127 99.037 604.227 105.353 604.227 112.824H575.94C575.94 109 574.242 105.931 570.846 103.618C567.45 101.216 563.338 100.015 558.512 100.015C551.541 100.015 546.268 101.883 542.693 105.619C539.118 109.266 537.33 114.47 537.33 121.23V129.77C537.33 136.53 539.118 141.778 542.693 145.514C546.268 149.161 551.541 150.985 558.512 150.985C563.338 150.985 567.45 149.873 570.846 147.649C574.242 145.336 575.94 142.401 575.94 138.843H555.027V120.163H604.227V171.399H588.944L585.995 162.326C577.594 169.442 566.6 173 553.016 173C537.733 173 526.248 169.042 518.562 161.125C510.876 153.119 507.033 141.244 507.033 125.5C507.033 109.934 511.367 98.1475 520.037 90.1419C528.795 82.0473 541.218 78 557.306 78Z" fill="black"/>
<path d="M622.594 79.6011H702.361V101.617H652.222V114.292H695.121V135.374H652.222V149.383H703.299V171.399H622.594V79.6011Z" fill="black"/>
<path d="M851.529 107.754C851.529 113.358 850.009 118.428 846.971 122.965C843.932 127.501 839.508 130.837 833.699 132.972L854.21 171.399H820.963L804.607 137.909H793.614V171.399H763.987V79.6011H820.427C827.04 79.6011 832.671 80.8909 837.318 83.4705C842.055 85.9611 845.585 89.3858 847.909 93.7444C850.322 98.014 851.529 102.684 851.529 107.754ZM821.365 108.955C821.365 106.553 820.561 104.552 818.952 102.951C817.343 101.35 815.377 100.549 813.053 100.549H793.614V117.494H813.053C815.377 117.494 817.343 116.694 818.952 115.093C820.561 113.403 821.365 111.357 821.365 108.955Z" fill="black"/>
<path d="M868.329 79.6011H948.096V101.617H897.957V114.292H940.856V135.374H897.957V149.383H949.034V171.399H868.329V79.6011Z" fill="black"/>
<path d="M1026.88 171.399L1022.99 158.456H990.684L986.796 171.399H956.499L990.148 79.6011H1024.6L1058.25 171.399H1026.88ZM996.851 137.909H1016.83L1007.17 105.219H1006.64L996.851 137.909Z" fill="black"/>
<path d="M1069.42 79.6011H1099.05V147.916H1146.37V171.399H1069.42V79.6011Z" fill="black"/>
<path d="M1160.18 171.399V79.6011H1189.81V171.399H1160.18Z" fill="black"/>
<path d="M1264.03 103.084V171.399H1234.41V103.084H1204.11V79.6011H1294.2V103.084H1264.03Z" fill="black"/>
<path d="M1364.94 171.399H1335.31V135.774L1298.71 79.6011H1332.76L1350.46 110.156H1351L1368.69 79.6011H1401L1364.94 135.774V171.399Z" fill="black"/>
</svg>
