<svg width="92" height="92" viewBox="0 0 92 92" fill="none" xmlns="http://www.w3.org/2000/svg">
<path d="M91.3146 53.8884C90.7611 57.7613 88.6465 59.433 84.9707 58.9035C81.2949 58.3739 79.7337 56.1727 80.2872 52.2997L80.9726 47.5041L92 49.0928L91.3146 53.8884ZM83.109 51.4416L82.9411 52.6164C82.728 54.1076 83.4175 54.9679 85.0096 55.1973L85.9713 55.3358C87.5634 55.5652 88.4661 54.9343 88.6792 53.443L88.8471 52.2682L83.109 51.4416Z" fill="black"/>
<path d="M85.1502 66.3937C84.5197 67.7607 83.6775 68.671 82.6237 69.1246C81.5751 69.5926 80.3896 69.5192 79.0672 68.9043C77.7448 68.2894 76.9173 67.4269 76.5847 66.3168C76.2574 65.221 76.409 63.9896 77.0395 62.6225C77.6701 61.2555 78.5074 60.3429 79.5514 59.8847C80.5955 59.4266 81.7836 59.5072 83.1158 60.1266C84.448 60.7461 85.2777 61.6036 85.6051 62.6994C85.9324 63.7952 85.7808 65.0266 85.1502 66.3937ZM83.1666 65.4714C83.6112 64.5076 83.28 63.7683 82.1731 63.2537L81.3356 62.8642C80.2385 62.3541 79.4677 62.581 79.0231 63.5448C78.574 64.5185 78.898 65.2604 79.9951 65.7705L80.8327 66.1599C81.9396 66.6745 82.7175 66.445 83.1666 65.4714Z" fill="black"/>
<path d="M67.2877 75.7322C66.8261 74.5364 66.6342 73.4917 66.7122 72.5982C66.775 71.7037 67.2392 70.8725 68.1048 70.1047C68.6307 69.6382 69.1601 69.2987 69.6933 69.0861L70.9691 70.536L69.9983 71.3971C69.3916 71.9353 69.2924 72.5511 69.7009 73.2445L77.9099 77.417L75.3131 79.7205L70.3244 76.5312L70.2394 76.6066L72.874 81.8841L70.4955 83.9938L67.2877 75.7322Z" fill="black"/>
<path d="M63.6371 87.8701C62.2802 88.5134 61.0526 88.6698 59.9542 88.3396C58.8506 88.0237 57.9878 87.2042 57.3655 85.8811C56.7433 84.558 56.6591 83.3634 57.1128 82.2974C57.5613 81.2458 58.464 80.3983 59.8208 79.7551C61.1777 79.1119 62.403 78.9505 63.4968 79.271C64.5906 79.5915 65.4509 80.4182 66.0777 81.7511C66.7045 83.084 66.7937 84.2762 66.3452 85.3279C65.8966 86.3795 64.9939 87.2269 63.6371 87.8701ZM62.7038 85.8855C63.6604 85.432 63.8783 84.6515 63.3575 83.544L62.9634 82.7061C62.4472 81.6084 61.7108 81.2863 60.7542 81.7398C59.7878 82.1979 59.5627 82.9758 60.0789 84.0735L60.4729 84.9115C60.9938 86.0189 61.7374 86.3436 62.7038 85.8855Z" fill="black"/>
<path d="M48.2908 83.1162L48.6927 84.3705C48.9542 83.8594 49.3369 83.4286 49.8408 83.078C50.3357 82.7397 50.882 82.5252 51.4797 82.4344C52.4617 82.2852 53.2394 82.4465 53.8127 82.9185C54.3861 83.3904 54.7503 84.1408 54.9053 85.1695L55.7339 90.667L52.5479 91.1511L51.7774 86.0394C51.7225 85.675 51.5874 85.3941 51.372 85.1966C51.1476 85.0115 50.8646 84.9449 50.5231 84.9968C50.1281 85.0568 49.8273 85.234 49.6206 85.5285C49.4139 85.823 49.3388 86.1578 49.3953 86.5328L50.1464 91.5159L46.9603 92L45.6811 83.5127L48.2908 83.1162Z" fill="black"/>
<path d="M32.0125 80.7898L31.7129 85.7428L31.7741 85.7641L34.599 81.6871L37.5681 82.717L37.73 91.855L34.4548 90.7189L34.8802 85.4999L34.773 85.4627L31.853 89.8163L28.8227 88.7652L29.248 83.5462L29.1409 83.509L26.2515 87.8733L23.2824 86.8433L29.0434 79.7599L32.0125 80.7898Z" fill="black"/>
<path d="M16.9727 81.9815C15.957 81.1569 15.2693 80.3129 14.9096 79.4494C14.5431 78.5944 14.6687 77.7834 15.2864 77.0165L17.3837 74.4123C17.499 74.269 17.5605 74.1237 17.568 73.9765C17.5755 73.8293 17.5121 73.7012 17.3778 73.5921L16.9245 73.2241L18.0953 71.7703C18.1341 71.7739 18.225 71.7989 18.3681 71.8454C18.4959 71.8934 18.67 71.979 18.8902 72.102C19.1172 72.2166 19.3566 72.3761 19.6084 72.5806C20.0953 72.9758 20.4405 73.3745 20.6441 73.7768C20.8325 74.1806 20.8803 74.5609 20.7874 74.9175C21.31 74.9237 21.8297 75.011 22.3464 75.1796C22.8631 75.3482 23.3858 75.6471 23.9147 76.0765C25.476 77.344 25.7544 78.6014 24.7499 79.8487C24.2272 80.4977 23.6581 80.851 23.0424 80.9087C22.4116 80.9681 21.7179 80.7952 20.9613 80.3901C20.2048 79.9849 19.2977 79.353 18.24 78.4944L17.9753 78.8231C17.7649 79.0844 17.6977 79.3574 17.7738 79.6421C17.8415 79.9201 18.018 80.1749 18.3034 80.4066C18.5636 80.6179 18.8276 80.7555 19.0953 80.8195C19.3547 80.8768 19.5658 80.8042 19.7287 80.602L19.7694 80.5514L22.2373 82.5549C22.2118 82.6038 22.1684 82.6662 22.1074 82.7421C21.5983 83.3742 20.8965 83.6337 20.0018 83.5207C19.0988 83.4009 18.0891 82.8878 16.9727 81.9815ZM19.197 77.3061C19.9105 77.8853 20.5038 78.2346 20.977 78.3538C21.4349 78.4747 21.7691 78.4045 21.9795 78.1433C22.3188 77.7219 22.2031 77.2795 21.6323 76.8161C21.305 76.5503 20.9483 76.4071 20.5623 76.3865C20.168 76.359 19.8656 76.4759 19.6552 76.7372L19.197 77.3061Z" fill="black"/>
<path d="M7.3556 71.1069C6.79513 70.2837 6.60202 69.5104 6.77627 68.7869C6.95053 68.0633 7.46541 67.408 8.32093 66.8208L12.8926 63.683L14.7111 66.3538L10.4602 69.2714C10.1572 69.4794 9.97146 69.725 9.90288 70.0084C9.81931 70.289 9.87499 70.5724 10.0699 70.8587C10.2953 71.1898 10.585 71.3848 10.939 71.4438C11.293 71.5028 11.626 71.4252 11.9379 71.2112L16.0818 68.367L17.9003 71.0378L10.8423 75.8821L9.35278 73.6944L10.3034 72.786C9.74023 72.7655 9.19496 72.608 8.66757 72.3136C8.13408 72.0102 7.69676 71.608 7.3556 71.1069Z" fill="black"/>
<path d="M2.43222 59.7724L4.48457 59.0168L5.10892 60.7264L8.16463 59.6014C8.5295 59.4671 8.77578 59.3071 8.90348 59.1216C9.02104 58.9398 9.02036 58.6861 8.90144 58.3604L8.58927 57.5057L10.368 56.8508C10.5382 57.0652 10.7193 57.3564 10.9112 57.7244C11.1031 58.0924 11.2511 58.4189 11.3551 58.7038C11.6822 59.5993 11.7727 60.351 11.6268 60.9588C11.4771 61.5565 11.0121 61.9989 10.2317 62.2863L6.21824 63.7638L6.63076 64.8933L4.57841 65.6489L4.1213 64.3973L1.44918 64.6365L0.624157 62.3775L3.05657 61.4819L2.43222 59.7724Z" fill="black"/>
<path d="M1.26855 38.714C1.36578 37.7434 1.71796 37.0437 2.3251 36.6148C2.92149 36.1849 3.72987 36.0214 4.75024 36.1245L10.2602 36.6809L9.93775 39.8999L4.81442 39.3825C4.44924 39.3456 4.15006 39.408 3.91688 39.5696C3.67403 39.7194 3.53641 39.956 3.504 40.2796C3.46619 40.657 3.56429 40.9773 3.7983 41.2406C4.03231 41.5039 4.33727 41.6545 4.7132 41.6925L9.70764 42.1969L9.38515 45.4159L4.26183 44.8985C3.89664 44.8616 3.59746 44.924 3.36428 45.0856C3.12144 45.2354 2.98381 45.472 2.9514 45.7955C2.91359 46.1729 3.01169 46.4933 3.2457 46.7566C3.47971 47.0199 3.78468 47.1705 4.1606 47.2084L9.15504 47.7128L8.83256 50.9318L0.325902 50.0727L0.590046 47.4361L1.88389 47.3543C1.46519 46.9853 1.15342 46.5235 0.948577 45.9691C0.734076 45.4027 0.656535 44.823 0.715954 44.2299C0.844515 42.9466 1.41965 42.1333 2.44135 41.7898C2.02373 41.41 1.71195 40.9482 1.50603 40.4046C1.29045 39.849 1.21129 39.2855 1.26855 38.714Z" fill="black"/>
<path d="M5.22705 27.6536C5.88779 26.301 6.74998 25.4098 7.81364 24.9799C8.87236 24.5355 10.0559 24.6355 11.3643 25.2798C12.6728 25.9241 13.4809 26.8049 13.7888 27.9222C14.0917 29.025 13.9128 30.2527 13.252 31.6053C12.5913 32.9579 11.7339 33.8516 10.68 34.2862C9.62601 34.7209 8.43997 34.6137 7.12186 33.9646C5.80375 33.3155 4.99324 32.4396 4.69032 31.3368C4.38741 30.2339 4.56632 29.0062 5.22705 27.6536ZM7.18968 28.6201C6.72384 29.5737 7.03852 30.3202 8.13371 30.8595L8.96238 31.2675C10.0479 31.8021 10.8236 31.5925 11.2894 30.6389C11.76 29.6755 11.4525 28.9266 10.367 28.392L9.53837 27.984C8.44317 27.4447 7.66028 27.6567 7.18968 28.6201Z" fill="black"/>
<path d="M12.8022 16.6538C12.9631 16.464 13.1313 16.316 13.3066 16.2096C13.4736 16.0962 13.5613 16.043 13.5695 16.0501L15.6282 17.8104L14.9563 18.6025C14.5224 19.1141 14.3389 19.5979 14.406 20.0538C14.48 20.5014 14.7759 20.9466 15.2936 21.3893L18.1907 23.8664L16.1015 26.3295L9.59239 20.764L11.3036 18.7465L12.4264 19.4288C12.1743 18.9571 12.0902 18.4794 12.1741 17.996C12.2499 17.5055 12.4592 17.0582 12.8022 16.6538Z" fill="black"/>
<path d="M19.6453 10.8708C20.9244 9.96505 22.1108 9.57591 23.2043 9.70343C24.3066 9.82469 25.2933 10.5053 26.1644 11.7453L26.4817 12.197L21.2417 15.9076C21.5964 16.4125 21.9742 16.7152 22.3751 16.8159C22.7849 16.9103 23.2324 16.7858 23.7176 16.4422C24.1587 16.1299 24.4153 15.8088 24.4876 15.4792C24.5686 15.1433 24.5003 14.8203 24.2825 14.5103L26.8363 12.7018C27.4336 13.5521 27.5783 14.4444 27.2703 15.3787C26.9623 16.313 26.1908 17.2174 24.9558 18.092C23.659 19.0103 22.4418 19.4213 21.3042 19.325C20.1603 19.2198 19.156 18.5517 18.2912 17.3206C17.445 16.116 17.1526 14.957 17.414 13.8435C17.6753 12.7301 18.4191 11.7392 19.6453 10.8708ZM20.9364 12.4831C20.1072 13.0703 19.921 13.7924 20.3777 14.6494L22.9447 12.8316C22.6896 12.4684 22.3816 12.2556 22.0205 12.1929C21.6683 12.124 21.3069 12.2208 20.9364 12.4831Z" fill="black"/>
<path d="M29.6196 2.87682C30.395 2.60783 31.1227 2.49875 31.8026 2.54957C32.4825 2.6004 33.0686 2.80992 33.5607 3.17813C34.0494 3.5361 34.4012 4.02754 34.6163 4.65243C34.7538 5.05195 34.7904 5.44058 34.7262 5.81831C34.6585 6.18581 34.5444 6.51782 34.3837 6.81435C34.2231 7.11088 34.0083 7.44913 33.7393 7.82911C33.521 8.15712 33.3633 8.41249 33.2663 8.59521C33.1794 8.7744 33.1607 8.9357 33.2101 9.07912L33.3211 9.40181L30.704 10.3096L30.4396 9.54133C30.355 9.29547 30.3558 9.04868 30.4418 8.80095C30.5244 8.54298 30.676 8.2037 30.8968 7.78312C31.1312 7.36925 31.2947 7.01441 31.387 6.71863C31.4896 6.41931 31.4915 6.12623 31.3928 5.83939C31.2906 5.54231 31.1124 5.32319 30.8583 5.18201C30.6006 5.03059 30.3187 5.00797 30.0126 5.11415C29.3494 5.34421 29.1658 5.88949 29.462 6.75C29.5254 6.93439 29.5781 7.07092 29.62 7.15957L26.804 8.13643C26.7691 8.06826 26.7307 7.98984 26.6888 7.90118C26.6468 7.81253 26.6029 7.70161 26.5571 7.56844C26.3315 6.91281 26.3144 6.28233 26.5058 5.67698C26.6937 5.06138 27.0582 4.51069 27.5991 4.02491C28.1502 3.53558 28.8237 3.15289 29.6196 2.87682ZM31.8211 14.1534L30.8429 11.3107L33.8732 10.2595L34.8515 13.1023L31.8211 14.1534Z" fill="black"/>
<path d="M49.4366 0.500726C50.8549 0.638426 51.9926 1.04289 52.8498 1.71411C53.7081 2.37454 54.0934 3.27217 54.0058 4.40699L53.9871 4.60118L50.6508 4.27727L50.6571 4.21254C50.6882 3.8889 50.596 3.60773 50.3804 3.36902C50.1648 3.13031 49.8152 2.98748 49.3317 2.94054C48.859 2.89464 48.4869 2.9293 48.2155 3.0445C47.9549 3.16075 47.8147 3.32136 47.7949 3.52634C47.7669 3.81761 47.918 4.05006 48.2483 4.22369C48.5787 4.39731 49.118 4.59667 49.8663 4.82177C50.7405 5.09175 51.4524 5.35687 52.0022 5.61713C52.5637 5.86765 53.0375 6.24032 53.4237 6.73514C53.8098 7.22996 53.9709 7.86626 53.9068 8.64404C53.78 9.96017 53.2401 10.8932 52.287 11.4431C51.3446 11.9941 50.132 12.1975 48.6492 12.0536C46.9193 11.8856 45.5989 11.4634 44.688 10.787C43.7878 10.1116 43.4089 9.03494 43.5512 7.55698L46.9197 7.88402C46.8657 8.44499 46.9744 8.83666 47.2458 9.05901C47.5182 9.27057 47.9607 9.40608 48.5731 9.46554C49.0244 9.50935 49.3998 9.4968 49.6993 9.42787C50.0095 9.35999 50.1791 9.17502 50.2082 8.87295C50.2342 8.60325 50.0869 8.38751 49.7662 8.22571C49.4574 8.05417 48.9396 7.8569 48.2127 7.63389C47.3289 7.35207 46.6013 7.08 46.0301 6.81765C45.4599 6.54452 44.9779 6.14383 44.5841 5.6156C44.1904 5.08737 44.0335 4.40792 44.1135 3.57725C44.2309 2.3582 44.7845 1.50818 45.7744 1.02717C46.776 0.536423 47.9968 0.36094 49.4366 0.500726Z" fill="black"/>
<path d="M62.6319 6.55524C63.9224 7.10896 64.8458 7.83524 65.4024 8.7341C65.9731 9.62725 66.0167 10.6419 65.533 11.7781L62.6593 10.545C63.0411 9.64802 62.7457 8.99083 61.7729 8.57342C60.8001 8.156 60.074 8.51039 59.5946 9.63658L59.2319 10.4887C58.7568 11.6049 59.0255 12.3803 60.0379 12.8147C61.0504 13.2492 61.7518 13.0079 62.1421 12.091L64.8967 13.273C64.4088 14.4191 63.6441 15.0987 62.6025 15.3119C61.5708 15.5292 60.4098 15.361 59.1193 14.8073C57.7396 14.2153 56.8061 13.4022 56.3188 12.3681C55.8316 11.3339 55.8765 10.1392 56.4534 8.78376C57.0304 7.42834 57.8594 6.57006 58.9406 6.20891C60.0217 5.84775 61.2522 5.9632 62.6319 6.55524Z" fill="black"/>
<path d="M74.0179 13.6317C74.2149 13.7835 74.3707 13.9445 74.4855 14.1149C74.6068 14.2766 74.6641 14.3618 74.6576 14.3704L73.0115 16.5244L72.1893 15.8911C71.6583 15.482 71.1678 15.3227 70.7177 15.4132C70.2762 15.5102 69.8484 15.8296 69.4345 16.3714L67.1182 19.4025L64.5617 17.4332L69.7659 10.6228L71.8599 12.2358L71.2384 13.3964C71.6949 13.1196 72.1657 13.0109 72.6508 13.0704C73.1425 13.1214 73.5982 13.3085 74.0179 13.6317Z" fill="black"/>
<path d="M79.9485 20.0073C80.8792 21.1891 81.3083 22.3544 81.236 23.5033C81.1789 24.654 80.5788 25.6831 79.4356 26.5906C78.2924 27.4981 77.1524 27.8504 76.0156 27.6475C74.8939 27.4464 73.8678 26.755 72.9371 25.5732C72.0065 24.3915 71.5731 23.2295 71.6369 22.0873C71.7008 20.9451 72.3085 19.9169 73.4601 19.0027C74.6118 18.0885 75.7484 17.7319 76.8701 17.933C77.9917 18.1341 79.0179 18.8256 79.9485 20.0073ZM78.2338 21.3685C77.5777 20.5354 76.7712 20.4986 75.8143 21.2582L75.0903 21.8329C74.1419 22.5858 73.9958 23.3788 74.6519 24.212C75.3147 25.0537 76.1203 25.0981 77.0687 24.3452L77.7927 23.7705C78.7496 23.0109 78.8966 22.2102 78.2338 21.3685Z" fill="black"/>
<path d="M76.4653 30.594L87.0623 25.522L88.4489 28.4423L77.8519 33.5143L76.4653 30.594Z" fill="black"/>
<path d="M78.6919 35.703L89.95 32.3623L90.8632 35.4649L79.6052 38.8056L78.6919 35.703Z" fill="black"/>
</svg>
