<svg width="202" height="202" viewBox="0 0 202 202" fill="none" xmlns="http://www.w3.org/2000/svg">
<path d="M101 0L108.882 61.3763L139.651 7.68816L123.445 67.4086L172.418 29.5822L134.591 78.555L194.312 62.349L140.624 93.1184L202 101L140.624 108.882L194.312 139.651L134.591 123.445L172.418 172.418L123.445 134.591L139.651 194.312L108.882 140.624L101 202L93.1184 140.624L62.349 194.312L78.555 134.591L29.5822 172.418L67.4086 123.445L7.68816 139.651L61.3763 108.882L0 101L61.3763 93.1184L7.68816 62.349L67.4086 78.555L29.5822 29.5822L78.555 67.4086L62.349 7.68816L93.1184 61.3763L101 0Z" fill="#F75129"/>
</svg>
