<svg width="1049" height="193" viewBox="0 0 1049 193" fill="none" xmlns="http://www.w3.org/2000/svg">
<path d="M423 148.382V55.618H452.67V148.382H423Z" fill="black"/>
<path d="M512.636 54C524.451 54 534.162 56.427 541.769 61.2809C549.377 66.0449 553.27 73.1461 553.449 82.5843V84.2022H525.659V83.6629C525.659 80.9663 524.674 78.7191 522.705 76.9213C520.736 75.1236 517.738 74.2247 513.711 74.2247C509.772 74.2247 506.729 74.809 504.581 75.9775C502.523 77.1461 501.494 78.5843 501.494 80.2921C501.494 82.7191 502.926 84.5169 505.79 85.6854C508.654 86.8539 513.263 88.0674 519.618 89.3258C527.046 90.8539 533.132 92.4719 537.876 94.1798C542.709 95.7978 546.916 98.4944 550.496 102.27C554.076 106.045 555.91 111.169 556 117.64C556 128.607 552.286 136.742 544.857 142.045C537.518 147.348 527.673 150 515.322 150C500.912 150 489.679 147.573 481.624 142.719C473.659 137.865 469.676 129.281 469.676 116.966H497.734C497.734 121.64 498.943 124.787 501.359 126.404C503.776 127.933 507.535 128.697 512.636 128.697C516.396 128.697 519.483 128.292 521.9 127.483C524.406 126.674 525.659 125.011 525.659 122.494C525.659 120.247 524.272 118.584 521.497 117.506C518.812 116.337 514.382 115.124 508.206 113.865C500.688 112.247 494.468 110.584 489.545 108.876C484.623 107.079 480.326 104.157 476.657 100.112C472.987 96.0674 471.153 90.5843 471.153 83.6629C471.153 73.5056 475.046 66.0449 482.832 61.2809C490.709 56.427 500.643 54 512.636 54Z" fill="black"/>
<path d="M731.8 41C748.569 41 761.523 45.5585 770.661 54.6756C779.799 63.7926 784.368 77.0674 784.368 94.5C784.368 111.933 779.799 125.207 770.661 134.324C761.523 143.441 748.569 148 731.8 148C731.632 148 682.09 148 681.922 147.999C665.398 147.909 652.612 143.401 643.566 134.475C634.522 125.358 630 112.033 630 94.5C630 76.9672 634.522 63.6924 643.566 54.6756C652.612 45.6501 665.398 41.092 681.922 41.0014C682.09 41.0005 731.632 41 731.8 41ZM731.8 65.7963C731.631 65.7963 682.089 65.7977 681.922 65.8005C675.482 65.9066 670.562 68.0592 667.165 72.2584C663.679 76.5665 661.936 82.3773 661.936 89.691V99.309C661.936 106.623 663.679 112.434 667.165 116.742C670.562 120.941 675.482 123.093 681.922 123.2C682.089 123.202 731.631 123.204 731.8 123.204C738.489 123.204 743.576 121.05 747.062 116.742C750.642 112.434 752.432 106.623 752.432 99.309V89.691C752.432 82.3773 750.642 76.5665 747.062 72.2584C743.576 67.9504 738.489 65.7963 731.8 65.7963Z" fill="black"/>
<path d="M897.983 104.569C897.983 118.695 893.79 129.465 885.406 136.879C877.021 144.293 865.104 148 849.654 148C834.204 148 822.24 144.293 813.762 136.879C805.377 129.465 801.185 118.695 801.185 104.569V42.8034H832.414V104.118C832.414 109.929 833.875 114.588 836.795 118.094C839.715 121.5 843.955 123.204 849.513 123.204C855.071 123.204 859.311 121.45 862.231 117.944C865.246 114.437 866.753 109.829 866.753 104.118V42.8034H897.983V104.569Z" fill="black"/>
<path d="M1011.17 74.5126C1011.17 80.8244 1009.57 86.5351 1006.37 91.6447C1003.17 96.7542 998.503 100.511 992.379 102.916L1014 146.197H978.955L961.715 108.476H950.127V146.197H918.898V42.8034H978.39C985.361 42.8034 991.296 44.2561 996.195 47.1615C1001.19 49.9668 1004.91 53.824 1007.36 58.7331C1009.9 63.5421 1011.17 68.802 1011.17 74.5126ZM979.379 75.8652C979.379 73.1601 978.531 70.9059 976.835 69.1025C975.139 67.2992 973.067 66.3975 970.618 66.3975H950.127V85.4832H970.618C973.067 85.4832 975.139 84.5815 976.835 82.7781C978.531 80.8745 979.379 78.5702 979.379 75.8652Z" fill="black"/>
<path d="M59.8548 79.3483V148.382H30.2621V79.3483H0V55.618H89.983V79.3483H59.8548Z" fill="black"/>
<path d="M165.595 148.382V113.191H133.057V148.382H103.464V55.618H133.057V89.4607H165.595V55.618H195.188V148.382H165.595Z" fill="black"/>
<path d="M216.346 148.382V55.618H245.938V148.382H216.346Z" fill="black"/>
<path d="M305.749 54C317.533 54 327.218 56.427 334.806 61.2809C342.394 66.0449 346.277 73.1461 346.456 82.5843V84.2022H318.738V83.6629C318.738 80.9663 317.756 78.7191 315.792 76.9213C313.828 75.1236 310.838 74.2247 306.82 74.2247C302.893 74.2247 299.858 74.809 297.715 75.9775C295.662 77.1461 294.635 78.5843 294.635 80.2921C294.635 82.7191 296.064 84.5169 298.92 85.6854C301.777 86.8539 306.374 88.0674 312.712 89.3258C320.122 90.8539 326.192 92.4719 330.923 94.1798C335.744 95.7978 339.939 98.4944 343.51 102.27C347.081 106.045 348.911 111.169 349 117.64C349 128.607 345.295 136.742 337.886 142.045C330.566 147.348 320.746 150 308.427 150C294.055 150 282.852 147.573 274.818 142.719C266.873 137.865 262.9 129.281 262.9 116.966H290.886C290.886 121.64 292.091 124.787 294.501 126.404C296.912 127.933 300.661 128.697 305.749 128.697C309.499 128.697 312.578 128.292 314.989 127.483C317.488 126.674 318.738 125.011 318.738 122.494C318.738 120.247 317.354 118.584 314.587 117.506C311.909 116.337 307.49 115.124 301.33 113.865C293.832 112.247 287.628 110.584 282.718 108.876C277.808 107.079 273.523 104.157 269.863 100.112C266.203 96.0674 264.373 90.5843 264.373 83.6629C264.373 73.5056 268.256 66.0449 276.023 61.2809C283.878 56.427 293.787 54 305.749 54Z" fill="black"/>
<path d="M873.931 179.606C906.779 178.937 1019.14 172.322 1029.47 140.007C1064.09 31.7037 1004.46 32.1865 926.103 11.5626C833.519 -12.8075 664.813 6.62538 633.061 53.075C596.003 107.285 624.588 168.055 703.188 179.606C805.04 194.574 938.231 200.276 1007.32 171.765C1067.2 147.055 1050.93 71.243 1022.29 53.0755C942.517 2.46808 795.778 -2.4285 674.457 31.7037" stroke="black" stroke-linecap="round"/>
</svg>
