<svg width="302" height="56" viewBox="0 0 302 56" fill="none" xmlns="http://www.w3.org/2000/svg">
<path d="M121 42.5449V16.4551H129.477V42.5449H121Z" fill="black"/>
<path d="M146.61 16C149.986 16 152.76 16.6826 154.934 18.0478C157.108 19.3876 158.22 21.3848 158.271 24.0393V24.4944H150.331V24.3427C150.331 23.5843 150.05 22.9522 149.487 22.4466C148.925 21.941 148.068 21.6882 146.917 21.6882C145.792 21.6882 144.923 21.8525 144.309 22.1812C143.721 22.5098 143.427 22.9143 143.427 23.3947C143.427 24.0772 143.836 24.5829 144.654 24.9115C145.472 25.2402 146.789 25.5815 148.605 25.9354C150.727 26.3652 152.466 26.8202 153.822 27.3006C155.203 27.7556 156.404 28.514 157.427 29.5758C158.45 30.6376 158.974 32.0787 159 33.8989C159 36.9831 157.939 39.2711 155.816 40.7626C153.719 42.2542 150.907 43 147.378 43C143.261 43 140.051 42.3174 137.75 40.9522C135.474 39.5871 134.336 37.1728 134.336 33.7093H142.353C142.353 35.0239 142.698 35.9087 143.388 36.3638C144.079 36.7935 145.153 37.0084 146.61 37.0084C147.684 37.0084 148.567 36.8947 149.257 36.6671C149.973 36.4396 150.331 35.9719 150.331 35.264C150.331 34.632 149.935 34.1643 149.142 33.861C148.375 33.5323 147.109 33.191 145.345 32.8371C143.197 32.382 141.419 31.9143 140.013 31.434C138.606 30.9284 137.379 30.1067 136.331 28.9691C135.282 27.8315 134.758 26.2893 134.758 24.3427C134.758 21.486 135.87 19.3876 138.095 18.0478C140.345 16.6826 143.184 16 146.61 16Z" fill="black"/>
<path d="M209.896 13C214.656 13 218.333 14.2781 220.927 16.8343C223.521 19.3905 224.818 23.1124 224.818 28C224.818 32.8876 223.521 36.6096 220.927 39.1657C218.333 41.7219 214.656 43 209.896 43C209.849 43 195.786 42.9999 195.738 42.9996C191.048 42.9745 187.419 41.7106 184.851 39.2079C182.284 36.6517 181 32.9157 181 28C181 23.0843 182.284 19.3624 184.851 16.8343C187.419 14.3038 191.048 13.0258 195.738 13.0004C195.786 13.0001 209.849 13 209.896 13ZM209.896 19.9522C209.849 19.9522 195.786 19.9526 195.738 19.9534C193.91 19.9832 192.514 20.5867 191.549 21.764C190.56 22.9719 190.065 24.6011 190.065 26.6517V29.3483C190.065 31.3989 190.56 33.0281 191.549 34.236C192.514 35.4133 193.91 36.0168 195.738 36.0466C195.786 36.0474 209.849 36.0478 209.896 36.0478C211.795 36.0478 213.239 35.4438 214.229 34.236C215.245 33.0281 215.753 31.3989 215.753 29.3483V26.6517C215.753 24.6011 215.245 22.9719 214.229 21.764C213.239 20.5562 211.795 19.9522 209.896 19.9522Z" fill="black"/>
<path d="M257.068 30.823C257.068 34.7837 255.878 37.8034 253.498 39.882C251.118 41.9607 247.735 43 243.35 43C238.964 43 235.568 41.9607 233.162 39.882C230.782 37.8034 229.592 34.7837 229.592 30.823V13.5056H238.456V30.6966C238.456 32.3258 238.871 33.632 239.7 34.6152C240.529 35.5702 241.732 36.0478 243.31 36.0478C244.887 36.0478 246.091 35.5562 246.92 34.573C247.775 33.5899 248.203 32.2978 248.203 30.6966V13.5056H257.068V30.823Z" fill="black"/>
<path d="M289.198 22.3961C289.198 24.1657 288.743 25.7669 287.834 27.1994C286.925 28.632 285.601 29.6854 283.863 30.3596L290 42.4944H280.052L275.159 31.9185H271.87V42.4944H263.005V13.5056H279.892C281.871 13.5056 283.555 13.9129 284.946 14.7275C286.363 15.514 287.419 16.5955 288.115 17.9719C288.837 19.3202 289.198 20.7949 289.198 22.3961ZM280.173 22.7753C280.173 22.0169 279.932 21.3848 279.451 20.8792C278.969 20.3736 278.381 20.1208 277.686 20.1208H271.87V25.4719H277.686C278.381 25.4719 278.969 25.2191 279.451 24.7135C279.932 24.1798 280.173 23.5337 280.173 22.7753Z" fill="black"/>
<path d="M17.3219 23.1292V42.5449H8.75781V23.1292H0V16.4551H26.0409V23.1292H17.3219Z" fill="black"/>
<path d="M47.923 42.5449V32.6475H38.5065V42.5449H29.9424V16.4551H38.5065V25.9733H47.923V16.4551H56.4871V42.5449H47.923Z" fill="black"/>
<path d="M62.6101 42.5449V16.4551H71.1742V42.5449H62.6101Z" fill="black"/>
<path d="M88.4833 16C91.8934 16 94.6964 16.6826 96.8924 18.0478C99.0883 19.3876 100.212 21.3848 100.264 24.0393V24.4944H92.2422V24.3427C92.2422 23.5843 91.958 22.9522 91.3897 22.4466C90.8213 21.941 89.9559 21.6882 88.7933 21.6882C87.6566 21.6882 86.7782 21.8525 86.1582 22.1812C85.564 22.5098 85.2669 22.9143 85.2669 23.3947C85.2669 24.0772 85.6803 24.5829 86.507 24.9115C87.3337 25.2402 88.6641 25.5815 90.4984 25.9354C92.6426 26.3652 94.3994 26.8202 95.7686 27.3006C97.1636 27.7556 98.3778 28.514 99.4112 29.5758C100.445 30.6376 100.974 32.0787 101 33.8989C101 36.9831 99.9279 39.2711 97.7836 40.7626C95.6652 42.2542 92.8235 43 89.2583 43C85.099 43 81.8568 42.3174 79.5317 40.9522C77.2325 39.5871 76.0829 37.1728 76.0829 33.7093H84.1819C84.1819 35.0239 84.5307 35.9087 85.2282 36.3638C85.9257 36.7935 87.0108 37.0084 88.4833 37.0084C89.5684 37.0084 90.4596 36.8947 91.1572 36.6671C91.8805 36.4396 92.2422 35.9719 92.2422 35.264C92.2422 34.632 91.8418 34.1643 91.0409 33.861C90.2659 33.5323 88.9871 33.191 87.2045 32.8371C85.0344 32.382 83.239 31.9143 81.8181 31.434C80.3972 30.9284 79.1571 30.1067 78.0979 28.9691C77.0387 27.8315 76.5091 26.2893 76.5091 24.3427C76.5091 21.486 77.6329 19.3876 79.8805 18.0478C82.1539 16.6826 85.0215 16 88.4833 16Z" fill="black"/>
<path d="M250.92 51.4958C260.37 51.3068 292.698 49.4367 295.67 40.3005C305.63 9.68064 288.472 9.81713 265.93 3.9863C239.293 -2.90369 190.756 2.59042 181.621 15.7228C170.959 31.0492 179.183 48.2301 201.796 51.4958C231.1 55.7277 269.419 57.3398 289.296 49.2791C306.524 42.2929 301.842 20.8593 293.603 15.7229C270.652 1.41506 228.435 0.030685 193.531 9.68064" stroke="black" stroke-linecap="round"/>
</svg>
