<svg width="785" height="141" viewBox="0 0 785 141" fill="none" xmlns="http://www.w3.org/2000/svg">
<path fill-rule="evenodd" clip-rule="evenodd" d="M784.325 140.787H0V128.787H784.325V140.787Z" fill="black"/>
<path d="M35.7162 94.6304L3 2.38146H34.6435L53.147 64.0595H53.6833L72.3208 2.38146H102.623L70.0414 94.6304H35.7162Z" fill="black"/>
<path d="M156.275 0.772461C172.187 0.772461 184.478 4.83964 193.148 12.974C201.819 21.1083 206.154 32.9523 206.154 48.5059C206.154 64.0595 201.819 75.9035 193.148 84.0379C184.478 92.1722 172.187 96.2394 156.275 96.2394C140.364 96.2394 128.073 92.2169 119.403 84.1719C110.821 76.0376 106.531 64.1489 106.531 48.5059C106.531 32.8629 110.821 21.019 119.403 12.974C128.073 4.83964 140.364 0.772461 156.275 0.772461ZM156.275 22.8961C149.929 22.8961 145.102 24.818 141.795 28.6617C138.487 32.5054 136.833 37.6899 136.833 44.2153V52.7966C136.833 59.3219 138.487 64.5065 141.795 68.3502C145.102 72.1939 149.929 74.1157 156.275 74.1157C162.622 74.1157 167.449 72.1939 170.756 68.3502C174.153 64.5065 175.852 59.3219 175.852 52.7966V44.2153C175.852 37.6899 174.153 32.5054 170.756 28.6617C167.449 24.818 162.622 22.8961 156.275 22.8961Z" fill="black"/>
<path d="M266.09 0.772461C279.767 0.772461 290.583 4.21392 298.538 11.0968C306.494 17.8904 310.472 27.6337 310.472 40.3269H282.18C282.18 34.9636 280.75 30.7176 277.89 27.589C275.118 24.4604 271.141 22.8961 265.956 22.8961C259.967 22.8961 255.542 24.7733 252.682 28.5276C249.911 32.2819 248.525 37.5111 248.525 44.2153V52.7966C248.525 59.4113 249.911 64.6406 252.682 68.4843C255.542 72.2386 259.878 74.1157 265.688 74.1157C271.409 74.1157 275.744 72.6408 278.694 69.691C281.644 66.7412 283.119 62.5846 283.119 57.2213H310.472C310.472 69.8251 306.583 79.479 298.806 86.1832C291.119 92.8873 280.214 96.2394 266.09 96.2394C250.358 96.2394 238.425 92.2169 230.29 84.1719C222.245 76.127 218.223 64.2383 218.223 48.5059C218.223 32.7735 222.245 20.8849 230.29 12.8399C238.425 4.79495 250.358 0.772461 266.09 0.772461Z" fill="black"/>
<path d="M388.283 94.6304L384.394 81.6244H352.08L348.192 94.6304H317.889L351.544 2.38146H386.003L419.658 94.6304H388.283ZM358.248 60.9756H378.226L368.572 28.1253H368.036L358.248 60.9756Z" fill="black"/>
<path d="M474.63 25.98V94.6304H444.997V25.98H414.695V2.38146H504.798V25.98H474.63Z" fill="black"/>
<path d="M519.639 94.6304V2.38146H549.271V94.6304H519.639Z" fill="black"/>
<path d="M616.268 0.772461C632.179 0.772461 644.47 4.83964 653.141 12.974C661.812 21.1083 666.147 32.9523 666.147 48.5059C666.147 64.0595 661.812 75.9035 653.141 84.0379C644.47 92.1722 632.179 96.2394 616.268 96.2394C600.357 96.2394 588.066 92.2169 579.396 84.1719C570.814 76.0376 566.524 64.1489 566.524 48.5059C566.524 32.8629 570.814 21.019 579.396 12.974C588.066 4.83964 600.357 0.772461 616.268 0.772461ZM616.268 22.8961C609.922 22.8961 605.095 24.818 601.787 28.6617C598.48 32.5054 596.826 37.6899 596.826 44.2153V52.7966C596.826 59.3219 598.48 64.5065 601.787 68.3502C605.095 72.1939 609.922 74.1157 616.268 74.1157C622.615 74.1157 627.442 72.1939 630.749 68.3502C634.146 64.5065 635.844 59.3219 635.844 52.7966V44.2153C635.844 37.6899 634.146 32.5054 630.749 28.6617C627.442 24.818 622.615 22.8961 616.268 22.8961Z" fill="black"/>
<path d="M748.073 94.6304L709.323 49.8468V94.6304H682.104V2.38146H707.982L746.732 47.8355V2.38146H773.951V94.6304H748.073Z" fill="black"/>
</svg>
