<svg width="1159" height="99" viewBox="0 0 1159 99" fill="none" xmlns="http://www.w3.org/2000/svg">
<path d="M684.47 3.61798H721.202L688.09 41.7753L721.872 96.382H686.883L667.713 62.4045L651.627 75.618V96.382H622V3.61798H651.627V43.2584L684.47 3.61798Z" fill="black"/>
<path d="M799.626 96.382L760.884 51.3483V96.382H733.67V3.61798H759.543L798.286 49.3258V3.61798H825.499V96.382H799.626Z" fill="black"/>
<path d="M891.188 2C891.338 2 941.908 2.00037 942.058 2.0011C957.747 2.07773 969.886 6.16725 978.473 14.2697C987.142 22.4494 991.476 34.3596 991.476 50C991.476 65.6404 987.142 77.5506 978.473 85.7303C969.886 93.8327 957.747 97.9223 942.058 97.9989C941.908 97.9996 891.338 98 891.188 98C875.28 98 862.991 93.9551 854.322 85.8652C845.743 77.6854 841.453 65.7303 841.453 50C841.453 34.2697 845.743 22.3595 854.322 14.2697C862.991 6.08989 875.28 2 891.188 2ZM891.188 24.2472C884.842 24.2472 880.016 26.1798 876.71 30.0449C873.403 33.9101 871.75 39.1236 871.75 45.6854V54.3146C871.75 60.8764 873.403 66.0899 876.71 69.9551C880.016 73.8202 884.842 75.7528 891.188 75.7528C891.339 75.7528 941.908 75.7517 942.058 75.7495C948.181 75.6597 952.857 73.7282 956.085 69.9551C959.482 66.0899 961.18 60.8764 961.18 54.3146V45.6854C961.18 39.1236 959.482 33.9101 956.085 30.0449C952.857 26.2717 948.181 24.3403 942.058 24.2505C941.908 24.2483 891.339 24.2472 891.188 24.2472Z" fill="black"/>
<path d="M1074.51 96.382L1062.58 39.8876H1062.04L1050.11 96.382H1017.54L995.955 3.61798H1026.79L1037.38 56.2023H1037.91L1048.37 3.61798H1077.6L1088.72 56.2023H1089.26L1099.18 3.61798H1128.67L1107.09 96.382H1074.51Z" fill="black"/>
<path d="M1130.58 96.382V69.5506H1159V96.382H1130.58Z" fill="black"/>
<path d="M78.4939 96L66.5725 39.9709H66.0367L54.1152 96H21.5657L0 4H30.8082L41.3901 56.1512H41.9259L52.3739 4H81.5747L92.6924 56.1512H93.2282L103.14 4H132.609L111.043 96H78.4939Z" fill="black"/>
<path d="M143.191 4H279.062V26.064H172.794V38.7674H271.829V49.3314V59.8954H172.794V73.936H280V96H143.191V4Z" fill="black"/>
<path fill-rule="evenodd" clip-rule="evenodd" d="M313 11C313 4.92487 317.925 0 324 0C337.631 0 346.972 7.40832 353.242 16.276C359.194 24.6931 363.135 35.4263 366.335 44.5735C366.762 45.7932 367.176 46.9849 367.58 48.1479C370.448 56.4075 372.815 63.2215 375.724 68.385C379.005 74.208 380.982 74.4118 381.893 74.4118C386.998 74.4118 390.001 72.4313 392.768 68.2798C396.045 63.3645 398.322 56.2356 400.772 47.1901C401.051 46.1599 401.335 45.0949 401.625 44.0044C403.637 36.4393 405.977 27.6435 409.509 20.6628C413.822 12.1413 421.371 3.5254 434.511 3.23793C440.638 3.10388 446.086 4.90937 450.618 8.2993C454.944 11.5351 457.938 15.8345 460.108 20.035C464.216 27.9871 466.584 38.1421 468.552 46.5838L468.668 47.0825C470.853 56.4525 472.65 63.9731 475.301 69.2905C477.755 74.2102 479.411 74.4118 480.688 74.4118C482.36 74.4118 484.529 73.7709 487.637 68.6126C490.876 63.238 493.444 55.646 496.413 46.4454C496.556 46.002 496.7 45.554 496.846 45.1021C499.486 36.9013 502.548 27.3918 506.782 19.9289C511.289 11.9839 518.948 3.23529 531.659 3.23529C544.508 3.23529 552.222 12.3356 556.731 20.385C561.164 28.298 564.358 38.4217 567.114 47.1565L567.319 47.8066C570.337 57.3686 572.916 65.3775 576.121 71.0983C579.359 76.8797 581.32 77 582 77C588.075 77 593 81.9249 593 88C593 94.0751 588.075 99 582 99C569.151 99 561.436 89.8997 556.927 81.8503C552.494 73.9373 549.3 63.8136 546.545 55.0788L546.339 54.4286C543.321 44.8667 540.743 36.8578 537.538 31.137C534.299 25.3556 532.339 25.2353 531.659 25.2353C530.84 25.2353 528.981 25.3837 525.917 30.7843C522.824 36.2373 520.369 43.846 517.38 53.1079L517.35 53.2016C514.576 61.7952 511.284 71.9973 506.48 79.9683C501.546 88.1555 493.489 96.4118 480.688 96.4118C467.491 96.4118 459.866 87.6354 455.614 79.1084C451.716 71.2933 449.409 61.3845 447.475 53.0738C447.397 52.7397 447.32 52.4081 447.243 52.0793C445.065 42.7423 443.236 35.3079 440.562 30.1323C439.301 27.6903 438.2 26.4847 437.441 25.9165C436.887 25.5024 436.259 25.2049 434.992 25.2327C433.344 25.2687 431.611 25.7116 429.139 30.5964C426.727 35.3623 425.039 41.6527 422.91 49.5863C422.619 50.674 422.318 51.7925 422.007 52.9422C419.659 61.61 416.626 72.1539 411.074 80.483C405.012 89.5761 395.666 96.4118 381.893 96.4118C368.877 96.4118 361.138 87.314 356.557 79.1848C352.593 72.1486 349.502 63.2058 346.752 55.2464C346.351 54.0865 345.958 52.9475 345.569 51.8383C342.261 42.3826 339.193 34.5128 335.279 28.9777C331.684 23.8932 328.303 22 324 22C317.925 22 313 17.0751 313 11Z" fill="#FF6AFF"/>
</svg>
