<svg width="333" height="326" viewBox="0 0 333 326" fill="none" xmlns="http://www.w3.org/2000/svg">
<path d="M306.236 162.78L333 164.852L332.634 169.591L322.624 168.816L322.609 169.012C323.078 169.294 323.569 169.679 324.084 170.167C324.607 170.655 325.036 171.294 325.369 172.084C325.711 172.874 325.837 173.858 325.746 175.036C325.626 176.59 325.122 177.96 324.232 179.146C323.351 180.342 322.112 181.247 320.513 181.861C318.922 182.484 317.012 182.709 314.781 182.536C312.577 182.366 310.732 181.858 309.246 181.015C307.76 180.171 306.66 179.094 305.946 177.783C305.232 176.472 304.936 175.027 305.057 173.448C305.146 172.296 305.412 171.355 305.854 170.625C306.296 169.896 306.805 169.321 307.38 168.9C307.964 168.489 308.51 168.175 309.017 167.96L309.039 167.685L305.876 167.44L306.236 162.78ZM315.914 168.204C314.616 168.104 313.464 168.199 312.46 168.49C311.456 168.79 310.652 169.267 310.049 169.923C309.454 170.588 309.118 171.422 309.041 172.426C308.96 173.473 309.171 174.372 309.674 175.122C310.186 175.873 310.916 176.465 311.864 176.898C312.82 177.341 313.926 177.611 315.18 177.708C316.426 177.804 317.546 177.711 318.541 177.428C319.536 177.145 320.335 176.672 320.938 176.007C321.542 175.343 321.884 174.483 321.966 173.427C322.044 172.414 321.844 171.534 321.367 170.786C320.891 170.038 320.187 169.444 319.257 169.003C318.326 168.571 317.212 168.305 315.914 168.204Z" fill="#F75129"/>
<path d="M309.474 199.708L320.811 202.464L319.692 207.083L300.127 202.327L301.212 197.849L304.689 198.694L304.739 198.49C303.75 197.781 303.031 196.836 302.579 195.655C302.126 194.482 302.078 193.159 302.434 191.688C302.746 190.403 303.305 189.337 304.113 188.489C304.928 187.651 305.949 187.088 307.179 186.802C308.417 186.517 309.817 186.565 311.379 186.945L323.837 189.973L322.718 194.591L310.974 191.737C309.734 191.436 308.667 191.536 307.771 192.039C306.876 192.542 306.295 193.347 306.027 194.452C305.862 195.133 305.868 195.832 306.045 196.551C306.221 197.269 306.587 197.912 307.142 198.479C307.703 199.057 308.481 199.467 309.474 199.708Z" fill="#F75129"/>
<path d="M306.271 227.565L307.474 223.376C307.925 223.429 308.386 223.387 308.858 223.249C309.326 223.12 309.766 222.865 310.176 222.485C310.587 222.105 310.931 221.575 311.21 220.894C311.584 219.979 311.701 219.128 311.56 218.342C311.415 217.564 311.026 217.049 310.392 216.799C309.854 216.568 309.332 216.586 308.827 216.851C308.318 217.125 307.761 217.691 307.155 218.549L305.173 221.453C304.071 223.062 302.932 224.127 301.756 224.647C300.576 225.175 299.318 225.17 297.98 224.63C296.811 224.141 295.917 223.372 295.298 222.323C294.684 221.285 294.371 220.065 294.36 218.66C294.349 217.256 294.662 215.776 295.298 214.221C296.233 211.937 297.462 210.294 298.986 209.293C300.518 208.295 302.196 208.014 304.019 208.45L302.677 212.908C301.757 212.757 300.953 212.91 300.266 213.365C299.579 213.821 299.028 214.555 298.614 215.568C298.187 216.613 298.058 217.539 298.228 218.346C298.395 219.162 298.794 219.7 299.424 219.958C299.958 220.178 300.483 220.152 301 219.882C301.513 219.619 302.038 219.097 302.576 218.315L304.545 215.406C305.649 213.768 306.818 212.701 308.05 212.205C309.291 211.711 310.589 211.747 311.944 212.313C313.095 212.776 313.962 213.497 314.545 214.473C315.132 215.462 315.424 216.618 315.421 217.941C315.423 219.275 315.119 220.688 314.509 222.178C313.614 224.365 312.445 225.895 311.002 226.768C309.555 227.65 307.978 227.916 306.271 227.565Z" fill="#F75129"/>
<path d="M290.341 226.062L308.005 235.737L305.729 239.907L288.064 230.232L290.341 226.062ZM309.368 239.207C309.728 238.547 310.257 238.098 310.954 237.861C311.659 237.629 312.321 237.682 312.943 238.023C313.571 238.367 313.974 238.897 314.151 239.612C314.336 240.332 314.248 241.022 313.887 241.683C313.523 242.351 312.99 242.797 312.29 243.022C311.593 243.259 310.93 243.205 310.301 242.861C309.68 242.521 309.277 241.991 309.093 241.271C308.911 240.563 309.003 239.875 309.368 239.207Z" fill="#F75129"/>
<path d="M292.529 245.733L282.914 238.887L285.663 235.013L302.073 246.696L299.445 250.399L296.657 248.414L296.52 248.606C297.171 249.639 297.473 250.761 297.427 251.974C297.376 253.194 296.915 254.418 296.044 255.645C295.239 256.78 294.296 257.595 293.214 258.092C292.127 258.596 290.96 258.753 289.712 258.563C288.459 258.38 287.18 257.818 285.875 256.878L275.426 249.438L278.175 245.564L288.025 252.578C289.122 253.359 290.183 253.684 291.208 253.555C292.227 253.432 293.091 252.872 293.8 251.873C294.281 251.195 294.559 250.486 294.635 249.745C294.712 249.016 294.58 248.304 294.237 247.609C293.889 246.921 293.319 246.295 292.529 245.733Z" fill="#F75129"/>
<path d="M265.816 259.447C267.223 257.996 268.738 257.037 270.363 256.567C271.988 256.11 273.629 256.139 275.286 256.654C276.95 257.174 278.537 258.169 280.047 259.639C281.533 261.084 282.563 262.635 283.137 264.292C283.711 265.961 283.815 267.612 283.45 269.246C283.09 270.885 282.241 272.395 280.901 273.777C280.037 274.668 279.077 275.369 278.021 275.88C276.966 276.403 275.845 276.679 274.659 276.709C273.467 276.745 272.24 276.49 270.978 275.945C269.722 275.406 268.46 274.521 267.194 273.289L266.151 272.274L277.649 260.417L279.943 262.649L271.614 271.238C272.272 271.866 272.989 272.289 273.764 272.506C274.546 272.73 275.325 272.738 276.1 272.528C276.87 272.325 277.571 271.897 278.204 271.244C278.88 270.547 279.305 269.77 279.478 268.914C279.657 268.063 279.617 267.225 279.358 266.399C279.099 265.586 278.649 264.862 278.01 264.227L276.007 262.279C275.167 261.462 274.297 260.914 273.397 260.636C272.503 260.365 271.629 260.35 270.773 260.591C269.924 260.839 269.14 261.333 268.422 262.074C267.941 262.57 267.575 263.086 267.323 263.622C267.077 264.164 266.949 264.717 266.939 265.28C266.929 265.843 267.054 266.399 267.315 266.946L263.871 269.781C263.226 268.763 262.864 267.667 262.785 266.492C262.707 265.329 262.918 264.144 263.42 262.936C263.928 261.734 264.726 260.571 265.816 259.447Z" fill="#F75129"/>
<path d="M253.569 289.94L256.714 286.927C257.077 287.2 257.497 287.396 257.973 287.515C258.443 287.639 258.951 287.641 259.497 287.519C260.042 287.398 260.606 287.113 261.189 286.666C261.972 286.064 262.501 285.387 262.774 284.637C263.04 283.892 262.962 283.251 262.54 282.714C262.191 282.244 261.731 281.996 261.161 281.971C260.584 281.951 259.818 282.159 258.863 282.595L255.692 284.105C253.931 284.94 252.411 285.286 251.134 285.142C249.849 285.004 248.765 284.365 247.88 283.224C247.116 282.212 246.73 281.097 246.722 279.878C246.712 278.672 247.055 277.46 247.752 276.24C248.448 275.021 249.462 273.9 250.793 272.877C252.748 271.375 254.635 270.575 256.456 270.478C258.281 270.388 259.872 270.991 261.228 272.288L257.829 275.463C257.109 274.869 256.338 274.595 255.515 274.643C254.693 274.69 253.848 275.047 252.981 275.713C252.087 276.4 251.51 277.136 251.252 277.92C250.986 278.708 251.06 279.374 251.475 279.915C251.826 280.374 252.293 280.616 252.875 280.643C253.451 280.676 254.167 280.489 255.024 280.084L258.188 278.563C259.965 277.705 261.51 277.372 262.825 277.564C264.145 277.763 265.248 278.449 266.135 279.621C266.897 280.602 267.285 281.661 267.297 282.799C267.308 283.949 266.979 285.095 266.312 286.237C265.643 287.391 264.671 288.458 263.395 289.438C261.523 290.877 259.744 291.61 258.058 291.637C256.365 291.67 254.868 291.104 253.569 289.94Z" fill="#F75129"/>
<path d="M234.537 301.2L238.078 298.667C238.398 298.988 238.786 299.242 239.241 299.428C239.688 299.618 240.191 299.692 240.748 299.65C241.305 299.607 241.904 299.406 242.544 299.046C243.405 298.562 244.024 297.968 244.402 297.264C244.771 296.565 244.785 295.919 244.444 295.328C244.165 294.812 243.745 294.501 243.185 294.395C242.616 294.293 241.829 294.39 240.822 294.685L237.468 295.727C235.606 296.303 234.053 296.428 232.809 296.104C231.557 295.783 230.574 294.996 229.861 293.741C229.249 292.63 229.025 291.471 229.19 290.263C229.352 289.068 229.865 287.917 230.727 286.81C231.59 285.702 232.753 284.737 234.216 283.915C236.364 282.707 238.346 282.184 240.162 282.348C241.981 282.52 243.47 283.344 244.629 284.82L240.812 287.478C240.184 286.787 239.46 286.407 238.639 286.336C237.818 286.266 236.931 286.498 235.978 287.034C234.995 287.587 234.32 288.232 233.952 288.971C233.577 289.714 233.556 290.383 233.89 290.979C234.172 291.482 234.6 291.789 235.172 291.899C235.737 292.013 236.473 291.931 237.379 291.652L240.726 290.598C242.607 290.002 244.184 289.893 245.458 290.271C246.736 290.657 247.731 291.493 248.442 292.779C249.057 293.859 249.29 294.963 249.14 296.091C248.987 297.23 248.499 298.318 247.676 299.353C246.85 300.4 245.736 301.317 244.334 302.105C242.276 303.262 240.411 303.734 238.738 303.52C237.057 303.311 235.657 302.537 234.537 301.2Z" fill="#F75129"/>
<path d="M212.704 306.823L209.404 295.478L213.959 294.148L219.592 313.509L215.238 314.781L214.281 311.491L214.055 311.557C213.925 312.771 213.467 313.839 212.68 314.762C211.884 315.687 210.765 316.36 209.322 316.781C207.988 317.171 206.743 317.224 205.586 316.942C204.422 316.662 203.409 316.059 202.549 315.134C201.679 314.212 201.024 312.977 200.583 311.428L196.996 299.1L201.551 297.77L204.933 309.392C205.309 310.686 205.939 311.601 206.823 312.136C207.699 312.674 208.724 312.771 209.898 312.428C210.695 312.196 211.353 311.812 211.871 311.278C212.383 310.755 212.72 310.114 212.882 309.355C213.035 308.6 212.976 307.755 212.704 306.823Z" fill="#F75129"/>
<path d="M183.221 300.955C185.223 300.698 187.006 300.894 188.568 301.541C190.123 302.198 191.389 303.244 192.365 304.681C193.343 306.127 193.965 307.896 194.232 309.988C194.494 312.046 194.335 313.902 193.753 315.556C193.164 317.22 192.218 318.576 190.916 319.625C189.615 320.683 188.011 321.334 186.104 321.578C184.874 321.736 183.687 321.685 182.543 321.426C181.393 321.176 180.344 320.692 179.398 319.975C178.444 319.259 177.642 318.294 176.994 317.08C176.347 315.875 175.911 314.395 175.687 312.641L175.503 311.196L191.872 309.099L192.277 312.277L180.42 313.796C180.544 314.697 180.841 315.475 181.313 316.13C181.785 316.793 182.389 317.285 183.126 317.605C183.854 317.927 184.669 318.03 185.571 317.914C186.533 317.791 187.348 317.448 188.016 316.886C188.686 316.333 189.176 315.652 189.487 314.845C189.79 314.047 189.889 313.201 189.784 312.305L189.43 309.531C189.281 308.368 188.941 307.396 188.41 306.617C187.88 305.847 187.206 305.289 186.386 304.944C185.568 304.608 184.648 304.505 183.625 304.636C182.94 304.724 182.332 304.898 181.802 305.16C181.273 305.431 180.829 305.784 180.47 306.218C180.112 306.652 179.864 307.165 179.728 307.756L175.271 307.824C175.399 306.625 175.799 305.541 176.468 304.573C177.13 303.615 178.032 302.819 179.176 302.188C180.321 301.565 181.669 301.154 183.221 300.955Z" fill="#F75129"/>
<path d="M161.451 302.074C163.469 302.121 165.202 302.581 166.651 303.456C168.09 304.338 169.185 305.563 169.935 307.13C170.685 308.706 171.036 310.548 170.987 312.657C170.939 314.731 170.504 316.542 169.682 318.09C168.85 319.647 167.713 320.846 166.268 321.688C164.824 322.539 163.141 322.942 161.219 322.898C159.978 322.869 158.812 322.641 157.721 322.212C156.621 321.793 155.656 321.158 154.828 320.307C153.991 319.456 153.343 318.381 152.884 317.083C152.424 315.794 152.214 314.266 152.255 312.499L152.289 311.042L168.787 311.424L168.713 314.627L156.762 314.35C156.75 315.26 156.928 316.074 157.296 316.792C157.663 317.518 158.188 318.095 158.868 318.522C159.54 318.949 160.33 319.174 161.239 319.195C162.209 319.217 163.066 319.001 163.811 318.545C164.555 318.098 165.141 317.499 165.57 316.747C165.989 316.004 166.213 315.182 166.243 314.281L166.308 311.485C166.335 310.312 166.144 309.301 165.735 308.451C165.326 307.61 164.743 306.957 163.984 306.493C163.226 306.038 162.331 305.798 161.3 305.774C160.61 305.758 159.983 305.84 159.42 306.019C158.856 306.208 158.364 306.49 157.945 306.865C157.525 307.241 157.204 307.71 156.981 308.274L152.564 307.673C152.87 306.507 153.427 305.495 154.233 304.638C155.031 303.79 156.042 303.139 157.268 302.686C158.493 302.242 159.888 302.038 161.451 302.074Z" fill="#F75129"/>
<path d="M141.878 300.275C143.434 300.56 144.753 301.215 145.837 302.241C146.92 303.267 147.679 304.607 148.114 306.262C148.549 307.917 148.568 309.833 148.171 312.011C147.768 314.216 147.068 316.009 146.069 317.393C145.06 318.783 143.866 319.752 142.487 320.3C141.106 320.857 139.655 320.996 138.134 320.718C136.973 320.505 136.055 320.132 135.38 319.599C134.703 319.075 134.195 318.497 133.857 317.866C133.518 317.243 133.272 316.668 133.119 316.142L132.926 316.107L131.12 326L126.44 325.143L131.267 298.692L135.858 299.533L135.287 302.658L135.571 302.71C135.899 302.272 136.341 301.824 136.896 301.365C137.449 300.914 138.134 300.568 138.951 300.326C139.768 300.084 140.744 300.067 141.878 300.275ZM139.876 303.872C138.887 303.691 137.996 303.804 137.202 304.21C136.407 304.625 135.741 305.282 135.204 306.18C134.667 307.078 134.281 308.169 134.047 309.452C133.813 310.735 133.79 311.883 133.978 312.896C134.158 313.908 134.548 314.74 135.148 315.393C135.74 316.044 136.539 316.461 137.544 316.646C138.585 316.836 139.502 316.724 140.297 316.309C141.093 315.894 141.754 315.241 142.281 314.35C142.808 313.459 143.183 312.397 143.408 311.166C143.634 309.926 143.66 308.787 143.485 307.75C143.3 306.719 142.911 305.861 142.317 305.173C141.712 304.493 140.899 304.06 139.876 303.872Z" fill="#F75129"/>
<path d="M107.009 306.351L111.251 307.319C111.224 307.773 111.292 308.232 111.456 308.696C111.611 309.157 111.89 309.582 112.292 309.971C112.694 310.361 113.242 310.675 113.935 310.915C114.869 311.238 115.723 311.307 116.499 311.122C117.267 310.934 117.757 310.516 117.972 309.867C118.171 309.316 118.124 308.795 117.831 308.305C117.53 307.811 116.935 307.286 116.045 306.728L113.039 304.91C111.373 303.898 110.247 302.818 109.663 301.672C109.07 300.522 109.005 299.263 109.468 297.895C109.89 296.698 110.606 295.761 111.616 295.083C112.616 294.41 113.815 294.029 115.215 293.939C116.614 293.849 118.106 294.078 119.692 294.627C122.021 295.433 123.728 296.57 124.812 298.038C125.893 299.514 126.267 301.176 125.935 303.025L121.416 301.933C121.514 301.004 121.317 300.209 120.824 299.547C120.331 298.886 119.568 298.376 118.536 298.019C117.471 297.65 116.54 297.574 115.745 297.789C114.941 298.002 114.428 298.431 114.205 299.076C114.017 299.622 114.072 300.146 114.37 300.648C114.661 301.146 115.211 301.642 116.021 302.136L119.031 303.941C120.725 304.954 121.854 306.062 122.419 307.267C122.98 308.48 123.017 309.78 122.53 311.167C122.133 312.345 121.464 313.252 120.523 313.89C119.571 314.533 118.435 314.89 117.116 314.961C115.786 315.038 114.361 314.813 112.842 314.287C110.612 313.516 109.021 312.433 108.069 311.038C107.108 309.641 106.755 308.078 107.009 306.351Z" fill="#F75129"/>
<path d="M77.2915 290.468L81.2289 292.323C81.1055 292.76 81.0742 293.223 81.1348 293.711C81.1879 294.195 81.3693 294.67 81.6788 295.136C81.9884 295.603 82.4564 296.027 83.0828 296.411C83.9255 296.926 84.7455 297.177 85.5429 297.162C86.3329 297.143 86.9017 296.839 87.2495 296.252C87.5622 295.756 87.6277 295.237 87.4461 294.696C87.2571 294.149 86.7878 293.508 86.0383 292.773L83.4901 290.352C82.0785 289.007 81.2097 287.711 80.8838 286.465C80.5504 285.215 80.7558 283.972 81.4998 282.735C82.1677 281.656 83.0677 280.894 84.1997 280.448C85.3197 280.005 86.5727 279.889 87.9588 280.101C89.3449 280.314 90.7538 280.858 92.1857 281.734C94.2887 283.02 95.7128 284.497 96.458 286.163C97.1986 287.836 97.2092 289.54 96.4897 291.274L92.3087 289.24C92.6034 288.353 92.5807 287.534 92.2404 286.782C91.9001 286.031 91.2639 285.37 90.3317 284.799C89.3697 284.211 88.4771 283.937 87.6541 283.977C86.8235 284.012 86.2306 284.321 85.8754 284.904C85.5747 285.397 85.5167 285.92 85.7011 286.474C85.8782 287.023 86.3095 287.626 86.9953 288.281L89.5503 290.691C90.9888 292.042 91.8551 293.367 92.1491 294.665C92.4386 295.97 92.197 297.248 91.4244 298.499C90.7851 299.564 89.9377 300.307 88.8823 300.728C87.815 301.152 86.6294 301.257 85.3258 301.045C84.0101 300.835 82.6662 300.31 81.294 299.47C79.2805 298.238 77.9577 296.839 77.3256 295.273C76.6861 293.702 76.6747 292.101 77.2915 290.468Z" fill="#F75129"/>
<path d="M75.2631 269.631C76.7646 270.902 77.7867 272.335 78.3293 273.929C78.8719 275.523 78.9448 277.173 78.5479 278.877C78.1443 280.575 77.2712 282.22 75.9286 283.811C74.5859 285.402 73.1094 286.541 71.499 287.229C69.8819 287.911 68.2436 288.117 66.584 287.846C64.9244 287.576 63.3438 286.805 61.8423 285.533C60.3408 284.262 59.3188 282.829 58.7762 281.235C58.2336 279.641 58.1669 277.991 58.5761 276.286C58.9786 274.575 59.8512 272.925 61.1938 271.334C62.5365 269.743 64.0135 268.609 65.6249 267.934C67.2297 267.253 68.8619 267.047 70.5215 267.318C72.1811 267.588 73.7616 268.359 75.2631 269.631ZM72.7891 272.522C71.975 271.832 71.1053 271.48 70.1801 271.464C69.2493 271.456 68.3288 271.719 67.4188 272.255C66.5021 272.786 65.6488 273.519 64.859 274.454C64.0636 275.397 63.4811 276.365 63.1116 277.359C62.7298 278.354 62.6207 279.31 62.7843 280.228C62.9479 281.146 63.4368 281.949 64.2509 282.639C65.0851 283.345 65.9709 283.706 66.9084 283.72C67.8393 283.729 68.7659 283.465 69.6882 282.928C70.5983 282.392 71.451 281.652 72.2464 280.71C73.0362 279.774 73.6192 278.812 73.9954 277.824C74.3649 276.83 74.4678 275.875 74.3042 274.957C74.1283 274.04 73.6233 273.228 72.7891 272.522Z" fill="#F75129"/>
<path d="M41.6053 275.132L61.1974 256.751L64.4411 260.22L44.8489 278.601L41.6053 275.132Z" fill="#F75129"/>
<path d="M43.0154 247.694L33.6319 254.637L30.8128 250.814L47.0071 238.832L49.7406 242.539L46.8623 244.668L46.9869 244.837C48.1636 244.533 49.349 244.586 50.5432 244.997C51.7322 245.402 52.7758 246.213 53.674 247.431C54.4579 248.494 54.9156 249.608 55.0469 250.773C55.166 251.936 54.9409 253.082 54.3717 254.211C53.7954 255.345 52.8606 256.39 51.5673 257.347L41.2561 264.976L38.4369 261.153L48.1577 253.961C49.1839 253.201 49.7916 252.316 49.9807 251.306C50.1699 250.295 49.927 249.333 49.252 248.417C48.8367 247.854 48.2973 247.41 47.6338 247.085C46.9703 246.759 46.2433 246.628 45.4529 246.69C44.6502 246.751 43.8377 247.086 43.0154 247.694Z" fill="#F75129"/>
<path d="M21.7525 235.132L24.9661 233.357L30.5565 243.508L27.3429 245.284L21.7525 235.132ZM21.7391 245.111L19.4473 240.949L35.9972 231.805C36.5558 231.496 36.9378 231.175 37.1434 230.841C37.337 230.505 37.4094 230.165 37.3603 229.822C37.3113 229.479 37.1918 229.135 37.0018 228.79C36.8583 228.53 36.7084 228.303 36.5519 228.109C36.3913 227.908 36.264 227.759 36.17 227.661L39.0319 225.165C39.2308 225.345 39.4901 225.616 39.8098 225.979C40.1254 226.335 40.4533 226.803 40.7936 227.385C41.3982 228.41 41.7584 229.436 41.8741 230.462C41.9822 231.492 41.8041 232.455 41.3397 233.351C40.871 234.24 40.0837 234.985 38.9777 235.586L21.7391 245.111Z" fill="#F75129"/>
<path d="M37.3748 221.186L18.9512 229.318L17.0378 224.969L35.4614 216.837L37.3748 221.186ZM15.3744 228.286C15.6775 228.975 15.7103 229.668 15.473 230.366C15.2277 231.067 14.7812 231.561 14.1335 231.847C13.4778 232.136 12.8128 232.133 12.1385 231.838C11.4563 231.546 10.9636 231.055 10.6606 230.367C10.354 229.67 10.3251 228.975 10.574 228.281C10.8113 227.584 11.2578 227.09 11.9135 226.8C12.5612 226.515 13.2262 226.518 13.9084 226.809C14.5792 227.097 15.0678 227.589 15.3744 228.286Z" fill="#F75129"/>
<path d="M30.9399 203.408C31.5114 205.293 31.5929 207.052 31.1842 208.685C30.7756 210.319 29.9427 211.744 28.6856 212.959C27.4259 214.165 25.8011 215.071 23.8112 215.677C21.8213 216.282 19.9637 216.436 18.2385 216.138C16.5107 215.831 15.0234 215.113 13.7766 213.983C12.5297 212.853 11.6205 211.346 11.049 209.461C10.4775 207.577 10.3961 205.818 10.8047 204.184C11.2134 202.55 12.0517 201.129 13.3197 199.919C14.5852 198.702 16.2129 197.79 18.2028 197.185C20.1928 196.579 22.0474 196.431 23.7668 196.74C25.4837 197.041 26.9655 197.757 28.2124 198.887C29.4592 200.017 30.3684 201.524 30.9399 203.408ZM27.2953 204.49C26.9854 203.468 26.4462 202.699 25.6777 202.183C24.9009 201.669 23.9851 201.39 22.9303 201.345C21.873 201.291 20.7591 201.443 19.5886 201.799C18.4097 202.158 17.3957 202.654 16.5467 203.287C15.6868 203.915 15.0767 204.659 14.7164 205.518C14.3561 206.378 14.331 207.319 14.6408 208.341C14.9583 209.388 15.5068 210.172 16.2862 210.694C17.063 211.208 17.9842 211.49 19.0499 211.541C20.1046 211.586 21.2215 211.429 22.4004 211.07C23.5709 210.714 24.582 210.223 25.4335 209.598C26.2825 208.965 26.8872 208.218 27.2475 207.359C27.5968 206.493 27.6128 205.537 27.2953 204.49Z" fill="#F75129"/>
<path d="M14.4784 187.254L26.1681 185.665L26.8059 190.375L6.85554 193.086L6.24587 188.584L9.63588 188.124L9.60416 187.889C8.42489 187.582 7.43808 186.969 6.64373 186.053C5.84821 185.127 5.34942 183.919 5.14737 182.427C4.96059 181.048 5.0923 179.806 5.5425 178.703C5.99153 177.591 6.73637 176.677 7.77703 175.961C8.81651 175.237 10.1335 174.771 11.7279 174.563L24.4307 172.837L25.0685 177.547L13.0931 179.174C11.7596 179.355 10.7632 179.844 10.1038 180.64C9.44332 181.428 9.19528 182.429 9.35974 183.643C9.47133 184.467 9.75243 185.175 10.203 185.768C10.6438 186.353 11.2266 186.781 11.9513 187.054C12.6749 187.318 13.5172 187.384 14.4784 187.254Z" fill="#F75129"/>
<path d="M9.55445 150.901L9.94276 155.242C9.50356 155.356 9.08881 155.563 8.69849 155.862C8.30834 156.152 7.99043 156.548 7.74476 157.051C7.49909 157.554 7.36917 158.173 7.355 158.909C7.33595 159.897 7.53397 160.733 7.94909 161.415C8.36437 162.088 8.91283 162.427 9.59446 162.432C10.1797 162.452 10.6599 162.247 11.0353 161.816C11.4108 161.377 11.7264 160.648 11.9821 159.628L12.7822 156.203C13.2296 154.303 13.9078 152.898 14.8168 151.988C15.726 151.069 16.9015 150.619 18.3432 150.638C19.6098 150.671 20.721 151.065 21.6766 151.818C22.6236 152.563 23.3555 153.589 23.8722 154.894C24.3889 156.2 24.6311 157.693 24.5987 159.373C24.5512 161.841 23.9974 163.818 22.9375 165.303C21.8688 166.788 20.4056 167.657 18.5479 167.91L18.1916 163.268C19.1042 163.075 19.7987 162.642 20.2749 161.969C20.7511 161.295 20.9997 160.411 21.0208 159.317C21.0426 158.188 20.8285 157.278 20.3786 156.586C19.9289 155.886 19.3633 155.529 18.6818 155.516C18.1052 155.505 17.6247 155.719 17.2405 156.158C16.8563 156.588 16.5549 157.265 16.3361 158.189L15.549 161.615C15.1099 163.541 14.4052 164.959 13.435 165.868C12.4561 166.777 11.2328 167.213 9.76524 167.176C8.52446 167.16 7.45634 166.803 6.56088 166.103C5.65684 165.394 4.96764 164.422 4.49325 163.187C4.0103 161.943 3.78434 160.516 3.81537 158.906C3.8609 156.543 4.3991 154.693 5.42996 153.356C6.46099 152.01 7.83582 151.192 9.55445 150.901Z" fill="#F75129"/>
<path d="M26.0383 136.477L0 129.938L1.15391 125.328L10.8928 127.774L10.9407 127.582C10.5255 127.226 10.1051 126.764 9.67951 126.196C9.24542 125.627 8.93011 124.925 8.73357 124.091C8.52855 123.254 8.56949 122.263 8.85637 121.117C9.23463 119.606 9.96136 118.34 11.0366 117.319C12.1054 116.288 13.4792 115.605 15.158 115.268C16.8304 114.921 18.7515 115.02 20.9214 115.565C23.0658 116.104 24.7999 116.914 26.1238 117.995C27.4477 119.076 28.3518 120.323 28.8362 121.735C29.3206 123.147 29.3705 124.622 28.9858 126.159C28.7053 127.279 28.2861 128.162 27.7283 128.807C27.1705 129.452 26.5725 129.934 25.9344 130.252C25.2899 130.559 24.6995 130.776 24.1632 130.903L24.0963 131.171L27.1731 131.943L26.0383 136.477ZM17.4055 129.504C18.6684 129.821 19.8192 129.92 20.8578 129.802C21.8984 129.676 22.7708 129.34 23.4748 128.795C24.1724 128.239 24.6434 127.473 24.8878 126.496C25.1428 125.478 25.0852 124.556 24.7148 123.732C24.336 122.906 23.7155 122.2 22.8533 121.613C21.9848 121.016 20.9403 120.565 19.7197 120.258C18.5077 119.954 17.3876 119.857 16.3597 119.969C15.3317 120.081 14.4647 120.414 13.7585 120.967C13.0524 121.521 12.5708 122.311 12.3137 123.339C12.0672 124.324 12.1164 125.225 12.4613 126.042C12.8062 126.86 13.4002 127.564 14.2433 128.155C15.0885 128.737 16.1426 129.187 17.4055 129.504Z" fill="#F75129"/>
<path d="M29.0195 99.565L18.3096 94.9328L20.1906 90.5693L38.6742 98.5638L36.8504 102.795L33.5652 101.374L33.4821 101.567C34.3368 102.432 34.887 103.485 35.1327 104.726C35.3817 105.959 35.2066 107.27 34.6074 108.661C34.0843 109.874 33.3531 110.83 32.4138 111.53C31.4699 112.218 30.3679 112.6 29.1079 112.674C27.8398 112.746 26.4677 112.462 24.9916 111.824L13.2227 106.733L15.1037 102.37L26.1986 107.169C27.3699 107.675 28.4391 107.756 29.4061 107.412C30.3732 107.068 31.0819 106.373 31.5322 105.328C31.8093 104.685 31.9213 103.995 31.8683 103.257C31.8152 102.519 31.5629 101.823 31.1115 101.171C30.6555 100.506 29.9582 99.971 29.0195 99.565Z" fill="#F75129"/>
<path d="M36.9232 72.5272L35.028 76.4505C34.5927 76.3222 34.131 76.2856 33.6428 76.341C33.1593 76.3888 32.6831 76.5653 32.2142 76.8702C31.7453 77.1751 31.3161 77.6391 30.9266 78.2623C30.4027 79.1007 30.1436 79.9193 30.1495 80.7182C30.1601 81.5096 30.4565 82.0827 31.0389 82.4376C31.5305 82.7562 32.0478 82.8275 32.5907 82.6516C33.1383 82.4683 33.7833 82.0054 34.5257 81.2627L36.9701 78.7371C38.329 77.338 39.632 76.4821 40.8789 76.1694C42.1305 75.8493 43.3697 76.0687 44.5965 76.8276C45.6658 77.5085 46.4168 78.4183 46.8495 79.557C47.2794 80.6837 47.3808 81.94 47.1538 83.326C46.9268 84.712 46.3682 86.1172 45.478 87.5417C44.1704 89.6339 42.6809 91.044 41.0094 91.7721C39.3305 92.4955 37.6295 92.4873 35.9062 91.7475L37.9836 87.5822C38.8652 87.8872 39.6831 87.8734 40.4373 87.5409C41.1915 87.2083 41.8584 86.5783 42.438 85.6509C43.0361 84.6939 43.3197 83.8029 43.2888 82.9781C43.2625 82.1458 42.9605 81.5485 42.3828 81.1863C41.894 80.8797 41.3721 80.8158 40.8171 80.9945C40.2668 81.1657 39.6607 81.5911 38.9989 82.2708L36.5656 84.8033C35.2002 86.2293 33.8681 87.0824 32.5693 87.3626C31.263 87.6382 29.9901 87.3821 28.7504 86.5944C27.694 85.9423 26.9615 85.0854 26.5528 84.0237C26.1414 82.9499 26.0492 81.7613 26.2761 80.4579C26.5003 79.1424 27.0389 77.8021 27.8921 76.437C29.144 74.4338 30.5551 73.1243 32.1256 72.5084C33.7007 71.8852 35.2999 71.8914 36.9232 72.5272Z" fill="#F75129"/>
<path d="M51.9115 77.2724L36.0731 64.8223L39.0024 61.0833L54.8408 73.5334L51.9115 77.2724ZM35.2979 61.1755C34.834 61.7676 34.2389 62.1232 33.5126 62.2421C32.7794 62.3556 32.1344 62.1935 31.5776 61.7558C31.0139 61.3127 30.7033 60.7237 30.646 59.9888C30.5817 59.2484 30.7816 58.5822 31.2455 57.99C31.7148 57.3909 32.3134 57.0381 33.0412 56.9314C33.7675 56.8125 34.4125 56.9746 34.9762 57.4177C35.533 57.8554 35.8435 58.4445 35.9078 59.1848C35.9705 59.9128 35.7673 60.5764 35.2979 61.1755Z" fill="#F75129"/>
<path d="M53.4336 56.9727L61.7751 65.3283L58.42 68.689L44.1837 54.4289L47.3906 51.2167L49.8096 53.6398L49.9765 53.4727C49.5069 52.3462 49.3956 51.1888 49.6428 50.0005C49.8961 48.8059 50.5542 47.6764 51.617 46.6118C52.5994 45.6277 53.6653 44.981 54.8146 44.6715C55.97 44.3558 57.1471 44.3961 58.3458 44.7922C59.5507 45.1821 60.7185 45.9496 61.8493 47.0946L70.9138 56.1743L67.5586 59.5351L59.0132 50.9753C58.0616 50.0221 57.0699 49.5239 56.038 49.4806C55.0123 49.4311 54.0669 49.8396 53.2019 50.7061C52.6149 51.294 52.2225 51.947 52.0248 52.665C51.8271 53.3705 51.8394 54.0947 52.0619 54.8374C52.2905 55.5739 52.7477 56.2857 53.4336 56.9727Z" fill="#F75129"/>
<path d="M81.6584 48.1821C80.0304 49.3774 78.3764 50.0709 76.6964 50.2626C75.0183 50.442 73.405 50.1398 71.8563 49.356C70.3024 48.5651 68.903 47.319 67.658 45.6177C66.4336 43.9446 65.6762 42.2433 65.3857 40.514C65.0972 38.7723 65.269 37.1268 65.9012 35.5774C66.5282 34.0209 67.6169 32.6734 69.1674 31.535C70.1682 30.8002 71.2314 30.2691 72.357 29.9418C73.4846 29.6023 74.6355 29.5169 75.8099 29.6856C76.9914 29.8491 78.1591 30.3049 79.3132 31.0528C80.4622 31.7937 81.5584 32.8772 82.6019 34.3032L83.4621 35.4786L70.1525 45.2512L68.2617 42.6674L77.903 35.5883C77.3587 34.8593 76.7222 34.3227 75.9937 33.9786C75.26 33.6274 74.4933 33.4903 73.6937 33.5673C72.9012 33.6392 72.1385 33.9442 71.4055 34.4823C70.6232 35.0567 70.0755 35.7519 69.7625 36.5678C69.4443 37.3766 69.3443 38.2097 69.4625 39.0671C69.5826 39.9123 69.9052 40.701 70.4302 41.4333L72.0808 43.6888C72.7731 44.6348 73.5398 45.3198 74.3811 45.744C75.2172 46.1611 76.0771 46.322 76.9608 46.2266C77.8393 46.1242 78.6944 45.7677 79.526 45.1571C80.0828 44.7483 80.5298 44.3006 80.8672 43.8141C81.1995 43.3206 81.4175 42.7969 81.5215 42.2431C81.6254 41.6892 81.5941 41.1208 81.4274 40.5377L85.2951 38.3165C85.7618 39.4281 85.9363 40.5697 85.8186 41.7414C85.7028 42.9008 85.2972 44.0343 84.6017 45.1419C83.901 46.2424 82.9199 47.2558 81.6584 48.1821Z" fill="#F75129"/>
<path d="M98.9087 20.0327L95.3035 22.4731C94.9914 22.1432 94.6104 21.8795 94.1604 21.6819C93.7182 21.4802 93.2179 21.3933 92.6596 21.4213C92.1012 21.4492 91.4975 21.6348 90.8483 21.978C89.975 22.4396 89.3408 23.0174 88.9456 23.7113C88.5581 24.4011 88.5273 25.0459 88.8532 25.6456C89.1187 26.1683 89.5303 26.4901 90.088 26.611C90.6535 26.7277 91.4434 26.6516 92.4577 26.3826L95.8374 25.4272C97.7138 24.9004 99.2696 24.8153 100.505 25.1718C101.748 25.5242 102.71 26.337 103.39 27.6102C103.974 28.7368 104.168 29.9012 103.971 31.1037C103.778 32.2943 103.237 33.4319 102.346 34.5165C101.455 35.6011 100.267 36.5356 98.7837 37.32C96.6044 38.4721 94.6095 38.9428 92.7989 38.7321C90.9844 38.5136 89.5172 37.6512 88.3975 36.145L92.2815 33.5869C92.8912 34.2939 93.6055 34.6932 94.4244 34.7848C95.2434 34.8764 96.1359 34.6669 97.1019 34.1562C98.0988 33.6292 98.7906 33.0012 99.1772 32.2722C99.5715 31.5392 99.6096 30.8708 99.2915 30.267C99.0223 29.7561 98.603 29.4384 98.0334 29.3139C97.4716 29.1853 96.7343 29.2485 95.8213 29.5035L92.4477 30.4705C90.5521 31.0173 88.9725 31.0854 87.7088 30.6747C86.4409 30.2562 85.4683 29.3947 84.7908 28.0901C84.2039 26.995 83.9997 25.8855 84.1783 24.7618C84.3606 23.6262 84.8764 22.5519 85.7259 21.5387C86.579 20.5136 87.7165 19.6252 89.1385 18.8735C91.2251 17.7704 93.1018 17.3474 94.7687 17.6043C96.4433 17.8572 97.8233 18.6667 98.9087 20.0327Z" fill="#F75129"/>
<path d="M119.284 12.1608L115.371 14.0668C115.109 13.6961 114.769 13.3811 114.351 13.1218C113.942 12.8596 113.459 12.7029 112.902 12.6516C112.345 12.6003 111.721 12.6986 111.03 12.9465C110.101 13.28 109.392 13.7623 108.902 14.3933C108.422 15.0214 108.3 15.6554 108.538 16.2952C108.728 16.8502 109.09 17.227 109.625 17.4255C110.168 17.6211 110.961 17.6575 112.003 17.5346L115.483 17.0669C117.415 16.8107 118.967 16.9465 120.14 17.4741C121.321 17.9989 122.158 18.9396 122.653 20.2963C123.072 21.4941 123.099 22.6743 122.735 23.8369C122.377 24.9883 121.68 26.0379 120.645 26.9856C119.61 27.9333 118.303 28.6905 116.724 29.2572C114.404 30.0895 112.362 30.2734 110.6 29.8087C108.834 29.3357 107.503 28.2745 106.607 26.6249L110.813 24.6418C111.317 25.428 111.968 25.9243 112.765 26.1308C113.563 26.3374 114.476 26.2562 115.505 25.8872C116.566 25.5065 117.339 24.9826 117.825 24.3157C118.318 23.6458 118.45 22.9894 118.221 22.3467C118.026 21.8028 117.656 21.429 117.109 21.2252C116.571 21.0184 115.833 20.9767 114.893 21.1L111.417 21.5802C109.463 21.8534 107.89 21.6973 106.696 21.112C105.5 20.5184 104.659 19.528 104.172 18.1406C103.745 16.9735 103.7 15.8463 104.035 14.7591C104.375 13.6606 105.038 12.67 106.021 11.7871C107.01 10.893 108.262 10.1744 109.775 9.6313C111.997 8.83439 113.914 8.68101 115.528 9.17116C117.15 9.65836 118.402 10.6549 119.284 12.1608Z" fill="#F75129"/>
<path d="M141.899 10.1559L143.26 21.8935L138.547 22.4418L136.224 2.40963L140.729 1.88551L141.124 5.28942L141.358 5.26215C141.688 4.08704 142.318 3.11051 143.249 2.33259C144.188 1.55365 145.403 1.07733 146.896 0.903638C148.277 0.743071 149.513 0.898819 150.606 1.37088C151.707 1.84194 152.605 2.60544 153.299 3.6614C154.002 4.71634 154.442 6.04422 154.619 7.64502L156.098 20.3999L151.385 20.9483L149.99 8.92371C149.835 7.58476 149.367 6.57746 148.584 5.90182C147.811 5.22518 146.817 4.95754 145.601 5.09892C144.777 5.19486 144.065 5.46278 143.465 5.90268C142.872 6.33287 142.433 6.90826 142.147 7.62885C141.87 8.34843 141.787 9.19076 141.899 10.1559Z" fill="#F75129"/>
<path d="M170.708 20.8262C168.692 20.7404 166.968 20.2466 165.537 19.3446C164.115 18.4343 163.043 17.1885 162.323 15.6072C161.604 14.0171 161.288 12.1683 161.378 10.0608C161.466 7.98817 161.936 6.18591 162.788 4.65397C163.649 3.11365 164.81 1.93652 166.27 1.12255C167.73 0.299847 169.421 -0.070645 171.342 0.0110761C172.581 0.0638234 173.743 0.314736 174.826 0.763813C175.918 1.20452 176.87 1.85828 177.681 2.7251C178.502 3.59228 179.129 4.67904 179.563 5.98537C179.998 7.28296 180.178 8.81501 180.103 10.5815L180.042 12.0376L163.554 11.3361L163.69 8.13537L175.633 8.64352C175.663 7.73366 175.501 6.91638 175.147 6.19169C174.793 5.45824 174.28 4.87134 173.608 4.43098C172.944 3.99098 172.158 3.75167 171.25 3.71304C170.281 3.67181 169.42 3.87171 168.667 4.31274C167.914 4.74503 167.316 5.33285 166.873 6.07622C166.44 6.81121 166.2 7.62889 166.153 8.52926L166.034 11.3233C165.984 12.4952 166.156 13.51 166.548 14.3677C166.94 15.2167 167.511 15.8805 168.261 16.3592C169.011 16.8291 169.9 17.086 170.931 17.1299C171.62 17.1592 172.249 17.0896 172.816 16.9209C173.383 16.7436 173.88 16.4712 174.307 16.1039C174.733 15.7366 175.063 15.2732 175.297 14.7137L179.702 15.4005C179.373 16.5604 178.797 17.5609 177.974 18.402C177.161 19.2347 176.137 19.8657 174.903 20.2951C173.669 20.7157 172.271 20.8927 170.708 20.8262Z" fill="#F75129"/>
<path d="M191.551 23.2109C189.57 22.8245 187.939 22.0784 186.658 20.9726C185.388 19.8598 184.515 18.4678 184.038 16.7965C183.563 15.1167 183.527 13.2415 183.93 11.1709C184.326 9.13465 185.059 7.42286 186.13 6.03551C187.211 4.64123 188.534 3.65085 190.099 3.06435C191.666 2.46926 193.393 2.35572 195.28 2.72374C196.498 2.96127 197.609 3.38304 198.613 3.98903C199.627 4.5881 200.471 5.37686 201.144 6.35533C201.826 7.33547 202.284 8.50387 202.519 9.86052C202.756 11.2086 202.705 12.7504 202.368 14.4859L202.09 15.9164L185.892 12.7573L186.503 9.61276L198.237 11.9011C198.402 11.0059 198.363 10.1736 198.121 9.40405C197.881 8.62593 197.461 7.96889 196.862 7.43294C196.271 6.89865 195.53 6.54452 194.638 6.37055C193.686 6.18487 192.804 6.25375 191.994 6.57718C191.185 6.89202 190.506 7.38387 189.958 8.05272C189.419 8.71466 189.06 9.48726 188.879 10.3705L188.346 13.1156C188.122 14.2668 188.14 15.2959 188.4 16.2026C188.662 17.1008 189.127 17.8426 189.797 18.428C190.468 19.0047 191.31 19.3918 192.322 19.5892C193 19.7214 193.631 19.7465 194.217 19.6645C194.804 19.574 195.336 19.379 195.813 19.0796C196.29 18.7802 196.685 18.3713 197 17.853L201.253 19.1908C200.755 20.2886 200.036 21.1918 199.097 21.9004C198.168 22.6021 197.062 23.0729 195.778 23.3129C194.496 23.5444 193.087 23.5104 191.551 23.2109Z" fill="#F75129"/>
<path d="M210.221 28.0696C208.734 27.5298 207.542 26.664 206.644 25.4722C205.746 24.2804 205.219 22.8324 205.065 21.1283C204.91 19.4242 205.209 17.5311 205.962 15.4491C206.724 13.3425 207.713 11.6902 208.927 10.4924C210.152 9.28935 211.49 8.53225 212.941 8.2211C214.395 7.90172 215.849 8.00598 217.303 8.53387C218.413 8.93651 219.256 9.45683 219.834 10.0948C220.414 10.7246 220.819 11.3789 221.047 12.0577C221.279 12.7282 221.426 13.3357 221.49 13.88L221.674 13.9471L225.096 4.49179L229.569 6.11575L220.422 31.3958L216.035 29.8032L217.116 26.816L216.845 26.7176C216.448 27.0949 215.938 27.4637 215.315 27.8241C214.695 28.1762 213.962 28.4036 213.116 28.5062C212.271 28.6088 211.306 28.4633 210.221 28.0696ZM212.792 24.8554C213.737 25.1983 214.634 25.2355 215.484 24.9669C216.337 24.69 217.103 24.1534 217.782 23.357C218.46 22.5606 219.021 21.5493 219.465 20.3232C219.909 19.097 220.122 17.9687 220.104 16.9382C220.095 15.9107 219.848 15.0252 219.364 14.2816C218.889 13.5411 218.17 12.9963 217.209 12.6473C216.215 12.2865 215.292 12.2445 214.439 12.5213C213.586 12.7982 212.825 13.3322 212.158 14.1233C211.491 14.9145 210.944 15.8985 210.518 17.0752C210.09 18.2602 209.875 19.3788 209.876 20.431C209.887 21.478 210.129 22.3897 210.601 23.1661C211.084 23.9374 211.815 24.5004 212.792 24.8554Z" fill="#F75129"/>
<path d="M245.926 27.9582L241.904 26.2941C242.007 25.8514 242.016 25.3875 241.932 24.9026C241.856 24.4219 241.652 23.9561 241.32 23.5052C240.989 23.0543 240.501 22.6524 239.857 22.2997C238.991 21.8251 238.16 21.6143 237.364 21.6673C236.576 21.7244 236.022 22.0546 235.703 22.6578C235.414 23.1682 235.373 23.6896 235.581 24.2221C235.796 24.7589 236.295 25.3766 237.079 26.0753L239.74 28.3708C241.214 29.6472 242.144 30.8997 242.529 32.1282C242.922 33.3608 242.776 34.6129 242.092 35.8842C241.476 36.9936 240.614 37.7981 239.504 38.2978C238.407 38.794 237.161 38.9695 235.766 38.8241C234.372 38.6787 232.938 38.2029 231.466 37.3966C229.304 36.2123 227.811 34.8059 226.987 33.1774C226.167 31.5412 226.075 29.8397 226.711 28.073L230.984 29.905C230.732 30.8045 230.794 31.6215 231.17 32.3561C231.546 33.0907 232.213 33.7205 233.171 34.2454C234.16 34.7871 235.065 35.0183 235.885 34.9388C236.713 34.8635 237.291 34.5264 237.618 33.9274C237.894 33.4205 237.927 32.8949 237.717 32.3505C237.514 31.8102 237.054 31.2293 236.338 30.6075L233.67 28.3235C232.169 27.0421 231.24 25.7603 230.885 24.4781C230.533 23.1882 230.713 21.9002 231.425 20.6142C232.013 19.5195 232.824 18.7365 233.858 18.2654C234.904 17.7908 236.083 17.6286 237.395 17.7788C238.719 17.9255 240.087 18.3852 241.498 19.1579C243.568 20.2917 244.956 21.6257 245.662 23.1598C246.376 24.6981 246.464 26.2976 245.926 27.9582Z" fill="#F75129"/>
<path d="M272.613 48.4661L269.041 45.9776C269.236 45.5671 269.344 45.116 269.366 44.6243C269.394 44.1384 269.295 43.6397 269.068 43.1281C268.84 42.6165 268.45 42.1193 267.896 41.6365C267.151 40.9871 266.385 40.6028 265.596 40.4837C264.814 40.3704 264.203 40.5741 263.762 41.0947C263.371 41.5313 263.219 42.0319 263.308 42.5965C263.403 43.1669 263.759 43.8775 264.375 44.7282L266.483 47.5415C267.65 49.1047 268.29 50.5276 268.404 51.8102C268.523 53.0985 268.113 54.2902 267.173 55.3852C266.335 56.3367 265.32 56.9375 264.13 57.1874C262.951 57.4366 261.697 57.3405 260.366 56.8992C259.034 56.4578 257.736 55.6854 256.471 54.5819C254.612 52.9611 253.455 51.2669 252.998 49.4994C252.547 47.7252 252.821 46.0435 253.82 44.4543L257.603 47.1609C257.164 47.9854 257.05 48.7968 257.26 49.595C257.47 50.3932 257.987 51.1515 258.811 51.8699C259.661 52.6113 260.495 53.0313 261.313 53.1297C262.138 53.2338 262.774 53.0285 263.221 52.5135C263.6 52.0778 263.745 51.5715 263.655 50.9945C263.573 50.4232 263.248 49.7571 262.681 48.996L260.565 46.1926C259.372 44.6188 258.739 43.1674 258.666 41.8386C258.599 40.5032 259.05 39.2838 260.021 38.1805C260.829 37.2373 261.788 36.6466 262.899 36.4084C264.022 36.1692 265.209 36.2639 266.458 36.6922C267.721 37.1197 268.958 37.8622 270.171 38.9198C271.95 40.4716 273.021 42.0725 273.382 43.7226C273.751 45.3784 273.494 46.9595 272.613 48.4661Z" fill="#F75129"/>
<path d="M271.073 69.1014C269.799 67.602 269.023 66.0216 268.747 64.3603C268.471 62.6989 268.667 61.0599 269.335 59.4433C270.01 57.8334 271.139 56.3531 272.722 55.0024C274.305 53.6517 275.947 52.7684 277.648 52.3523C279.355 51.9429 281.004 52.007 282.598 52.5447C284.191 53.0824 285.625 54.101 286.9 55.6004C288.175 57.0997 288.95 58.6801 289.227 60.3415C289.503 62.0029 289.301 63.6414 288.62 65.257C287.944 66.8792 286.815 68.3657 285.232 69.7164C283.648 71.0671 282.007 71.9443 280.307 72.348C278.613 72.7584 276.969 72.6948 275.376 72.1571C273.782 71.6193 272.348 70.6008 271.073 69.1014ZM273.984 66.6527C274.675 67.4657 275.476 67.9553 276.387 68.1216C277.303 68.2821 278.254 68.1722 279.24 67.7918C280.23 67.418 281.191 66.8339 282.123 66.0394C283.061 65.2392 283.793 64.379 284.319 63.4588C284.857 62.5396 285.12 61.6139 285.108 60.6815C285.096 59.7492 284.744 58.8765 284.053 58.0635C283.345 57.2305 282.53 56.7304 281.607 56.5632C280.69 56.4027 279.733 56.5121 278.735 56.8915C277.75 57.2719 276.789 57.8622 275.851 58.6624C274.919 59.4569 274.188 60.3109 273.656 61.2244C273.13 62.1446 272.873 63.0709 272.885 64.0032C272.91 64.9366 273.276 65.8197 273.984 66.6527Z" fill="#F75129"/>
<path d="M305.688 69.863L283.308 84.7111L280.688 80.7485L303.068 65.9005L305.688 69.863Z" fill="#F75129"/>
<path d="M299.754 96.7088L310.17 91.4468L312.306 95.6906L294.33 104.772L292.258 100.657L295.453 99.043L295.359 98.8554C294.148 98.9575 292.988 98.7051 291.88 98.0983C290.776 97.4993 289.884 96.5238 289.203 95.1717C288.609 93.9916 288.345 92.8162 288.411 91.6456C288.489 90.4788 288.904 89.3872 289.654 88.3707C290.413 87.3503 291.51 86.4775 292.945 85.7523L304.391 79.9701L306.528 84.2138L295.738 89.6649C294.598 90.2403 293.851 91.0102 293.495 91.9744C293.138 92.9386 293.216 93.9287 293.728 94.9447C294.042 95.5699 294.499 96.0987 295.099 96.5311C295.698 96.9636 296.393 97.2156 297.182 97.2872C297.984 97.3627 298.841 97.1699 299.754 96.7088Z" fill="#F75129"/>
<path d="M318.494 112.272L315.029 113.485L311.209 102.542L314.673 101.328L318.494 112.272ZM320.169 102.435L321.736 106.921L303.894 113.171C303.292 113.382 302.862 113.635 302.604 113.929C302.357 114.229 302.229 114.552 302.22 114.898C302.211 115.244 302.272 115.603 302.402 115.975C302.5 116.256 302.61 116.505 302.732 116.722C302.857 116.947 302.957 117.116 303.033 117.228L299.796 119.211C299.63 119 299.419 118.689 299.165 118.278C298.913 117.874 298.667 117.357 298.429 116.727C298.004 115.615 297.819 114.544 297.876 113.513C297.941 112.479 298.277 111.56 298.884 110.753C299.494 109.956 300.395 109.353 301.586 108.945L320.169 102.435Z" fill="#F75129"/>
<path d="M300.847 123.608L320.376 118.704L321.53 123.314L302.001 128.219L300.847 123.608ZM323.728 120.326C323.545 119.596 323.629 118.907 323.981 118.259C324.341 117.609 324.864 117.198 325.55 117.026C326.245 116.851 326.9 116.966 327.515 117.371C328.139 117.774 328.542 118.341 328.724 119.071C328.909 119.81 328.821 120.5 328.459 121.141C328.107 121.789 327.584 122.2 326.889 122.374C326.203 122.547 325.548 122.432 324.924 122.029C324.312 121.632 323.913 121.064 323.728 120.326Z" fill="#F75129"/>
<path d="M304.227 142.198C303.978 140.244 304.191 138.496 304.866 136.954C305.541 135.411 306.6 134.146 308.042 133.159C309.485 132.18 311.238 131.558 313.301 131.294C315.364 131.03 317.221 131.189 318.872 131.772C320.524 132.363 321.871 133.32 322.912 134.643C323.953 135.965 324.598 137.603 324.848 139.557C325.097 141.51 324.884 143.258 324.209 144.801C323.533 146.343 322.47 147.605 321.018 148.585C319.567 149.574 317.811 150.2 315.748 150.464C313.685 150.728 311.831 150.564 310.188 149.972C308.545 149.388 307.203 148.435 306.162 147.112C305.121 145.789 304.476 144.151 304.227 142.198ZM308.001 141.741C308.136 142.8 308.539 143.649 309.211 144.286C309.891 144.923 310.748 145.351 311.78 145.572C312.814 145.801 313.937 145.838 315.151 145.683C316.373 145.527 317.455 145.207 318.398 144.724C319.35 144.25 320.076 143.618 320.574 142.831C321.073 142.043 321.255 141.12 321.119 140.061C320.981 138.976 320.571 138.11 319.89 137.465C319.209 136.829 318.348 136.396 317.306 136.168C316.273 135.947 315.146 135.915 313.924 136.072C312.71 136.227 311.632 136.542 310.688 137.016C309.745 137.498 309.025 138.133 308.526 138.92C308.037 139.715 307.862 140.656 308.001 141.741Z" fill="#F75129"/>
</svg>
