<svg width="716" height="432" viewBox="0 0 716 432" fill="none" xmlns="http://www.w3.org/2000/svg">
<path d="M239.005 17.104C239.005 19.12 238.461 20.944 237.373 22.576C236.285 24.208 234.701 25.408 232.621 26.176L239.965 40H228.061L222.205 27.952H218.269V40H207.661V6.976H227.869C230.237 6.976 232.253 7.44 233.917 8.368C235.613 9.264 236.877 10.496 237.709 12.064C238.573 13.6 239.005 15.28 239.005 17.104ZM228.205 17.536C228.205 16.672 227.917 15.952 227.341 15.376C226.765 14.8 226.061 14.512 225.229 14.512H218.269V20.608H225.229C226.061 20.608 226.765 20.32 227.341 19.744C227.917 19.136 228.205 18.4 228.205 17.536ZM260.64 6.4C266.336 6.4 270.736 7.856 273.84 10.768C276.944 13.68 278.496 17.92 278.496 23.488C278.496 29.056 276.944 33.296 273.84 36.208C270.736 39.12 266.336 40.576 260.64 40.576C254.944 40.576 250.544 39.136 247.44 36.256C244.368 33.344 242.832 29.088 242.832 23.488C242.832 17.888 244.368 13.648 247.44 10.768C250.544 7.856 254.944 6.4 260.64 6.4ZM260.64 14.32C258.368 14.32 256.64 15.008 255.456 16.384C254.272 17.76 253.68 19.616 253.68 21.952V25.024C253.68 27.36 254.272 29.216 255.456 30.592C256.64 31.968 258.368 32.656 260.64 32.656C262.912 32.656 264.64 31.968 265.824 30.592C267.04 29.216 267.648 27.36 267.648 25.024V21.952C267.648 19.616 267.04 17.76 265.824 16.384C264.64 15.008 262.912 14.32 260.64 14.32ZM306.192 6.976C307.856 6.976 309.376 7.328 310.752 8.032C312.16 8.704 313.264 9.664 314.064 10.912C314.896 12.16 315.312 13.552 315.312 15.088C315.312 19.152 313.472 21.712 309.792 22.768V22.96C313.984 23.92 316.08 26.672 316.08 31.216C316.08 32.944 315.648 34.48 314.784 35.824C313.952 37.136 312.8 38.16 311.328 38.896C309.856 39.632 308.24 40 306.48 40H284.208V6.976H306.192ZM294.816 19.84H302.112C302.816 19.84 303.392 19.6 303.84 19.12C304.32 18.608 304.56 17.984 304.56 17.248V16.768C304.56 16.064 304.32 15.472 303.84 14.992C303.36 14.48 302.784 14.224 302.112 14.224H294.816V19.84ZM294.816 32.32H302.88C303.584 32.32 304.16 32.08 304.608 31.6C305.088 31.088 305.328 30.464 305.328 29.728V29.248C305.328 28.512 305.088 27.904 304.608 27.424C304.16 26.912 303.584 26.656 302.88 26.656H294.816V32.32ZM337.984 6.4C343.68 6.4 348.08 7.856 351.184 10.768C354.288 13.68 355.84 17.92 355.84 23.488C355.84 29.056 354.288 33.296 351.184 36.208C348.08 39.12 343.68 40.576 337.984 40.576C332.288 40.576 327.888 39.136 324.784 36.256C321.712 33.344 320.176 29.088 320.176 23.488C320.176 17.888 321.712 13.648 324.784 10.768C327.888 7.856 332.288 6.4 337.984 6.4ZM337.984 14.32C335.712 14.32 333.984 15.008 332.8 16.384C331.616 17.76 331.024 19.616 331.024 21.952V25.024C331.024 27.36 331.616 29.216 332.8 30.592C333.984 31.968 335.712 32.656 337.984 32.656C340.256 32.656 341.984 31.968 343.168 30.592C344.384 29.216 344.992 27.36 344.992 25.024V21.952C344.992 19.616 344.384 17.76 343.168 16.384C341.984 15.008 340.256 14.32 337.984 14.32ZM379.294 15.424V40H368.686V15.424H357.838V6.976H390.094V15.424H379.294ZM409.702 6.4C415.398 6.4 419.798 7.856 422.902 10.768C426.006 13.68 427.558 17.92 427.558 23.488C427.558 29.056 426.006 33.296 422.902 36.208C419.798 39.12 415.398 40.576 409.702 40.576C404.006 40.576 399.606 39.136 396.502 36.256C393.43 33.344 391.894 29.088 391.894 23.488C391.894 17.888 393.43 13.648 396.502 10.768C399.606 7.856 404.006 6.4 409.702 6.4ZM409.702 14.32C407.43 14.32 405.702 15.008 404.518 16.384C403.334 17.76 402.742 19.616 402.742 21.952V25.024C402.742 27.36 403.334 29.216 404.518 30.592C405.702 31.968 407.43 32.656 409.702 32.656C411.974 32.656 413.702 31.968 414.886 30.592C416.102 29.216 416.71 27.36 416.71 25.024V21.952C416.71 19.616 416.102 17.76 414.886 16.384C413.702 15.008 411.974 14.32 409.702 14.32ZM449.735 40V6.976H460.343V40H449.735ZM481.783 6.4C486.007 6.4 489.479 7.264 492.199 8.992C494.919 10.688 496.311 13.216 496.375 16.576V17.152H486.439V16.96C486.439 16 486.087 15.2 485.383 14.56C484.679 13.92 483.607 13.6 482.167 13.6C480.759 13.6 479.671 13.808 478.903 14.224C478.167 14.64 477.799 15.152 477.799 15.76C477.799 16.624 478.311 17.264 479.335 17.68C480.359 18.096 482.007 18.528 484.279 18.976C486.935 19.52 489.111 20.096 490.807 20.704C492.535 21.28 494.039 22.24 495.319 23.584C496.599 24.928 497.255 26.752 497.287 29.056C497.287 32.96 495.959 35.856 493.303 37.744C490.679 39.632 487.159 40.576 482.743 40.576C477.591 40.576 473.575 39.712 470.695 37.984C467.847 36.256 466.423 33.2 466.423 28.816H476.455C476.455 30.48 476.887 31.6 477.751 32.176C478.615 32.72 479.959 32.992 481.783 32.992C483.127 32.992 484.231 32.848 485.095 32.56C485.991 32.272 486.439 31.68 486.439 30.784C486.439 29.984 485.943 29.392 484.951 29.008C483.991 28.592 482.407 28.16 480.199 27.712C477.511 27.136 475.287 26.544 473.527 25.936C471.767 25.296 470.231 24.256 468.919 22.816C467.607 21.376 466.951 19.424 466.951 16.96C466.951 13.344 468.343 10.688 471.127 8.992C473.943 7.264 477.495 6.4 481.783 6.4Z" fill="black"/>
<path d="M208.102 104L206.71 99.344H195.142L193.75 104H182.902L194.95 70.976H207.286L219.334 104H208.102ZM197.35 91.952H204.502L201.046 80.192H200.854L197.35 91.952ZM261.302 70.976C262.966 70.976 264.486 71.328 265.862 72.032C267.27 72.704 268.374 73.664 269.174 74.912C270.006 76.16 270.422 77.552 270.422 79.088C270.422 83.152 268.582 85.712 264.902 86.768V86.96C269.094 87.92 271.19 90.672 271.19 95.216C271.19 96.944 270.758 98.48 269.894 99.824C269.062 101.136 267.91 102.16 266.438 102.896C264.966 103.632 263.35 104 261.59 104H239.318V70.976H261.302ZM249.926 83.84H257.222C257.926 83.84 258.502 83.6 258.95 83.12C259.43 82.608 259.67 81.984 259.67 81.248V80.768C259.67 80.064 259.43 79.472 258.95 78.992C258.47 78.48 257.894 78.224 257.222 78.224H249.926V83.84ZM249.926 96.32H257.99C258.694 96.32 259.27 96.08 259.718 95.6C260.198 95.088 260.438 94.464 260.438 93.728V93.248C260.438 92.512 260.198 91.904 259.718 91.424C259.27 90.912 258.694 90.656 257.99 90.656H249.926V96.32ZM293.093 70.4C298.789 70.4 303.189 71.856 306.293 74.768C309.397 77.68 310.949 81.92 310.949 87.488C310.949 93.056 309.397 97.296 306.293 100.208C303.189 103.12 298.789 104.576 293.093 104.576C287.397 104.576 282.997 103.136 279.893 100.256C276.821 97.344 275.285 93.088 275.285 87.488C275.285 81.888 276.821 77.648 279.893 74.768C282.997 71.856 287.397 70.4 293.093 70.4ZM293.093 78.32C290.821 78.32 289.093 79.008 287.909 80.384C286.725 81.76 286.133 83.616 286.133 85.952V89.024C286.133 91.36 286.725 93.216 287.909 94.592C289.093 95.968 290.821 96.656 293.093 96.656C295.365 96.656 297.093 95.968 298.277 94.592C299.493 93.216 300.101 91.36 300.101 89.024V85.952C300.101 83.616 299.493 81.76 298.277 80.384C297.093 79.008 295.365 78.32 293.093 78.32ZM349.541 90.704C349.541 95.216 348.117 98.656 345.269 101.024C342.421 103.392 338.373 104.576 333.125 104.576C327.877 104.576 323.813 103.392 320.933 101.024C318.085 98.656 316.661 95.216 316.661 90.704V70.976H327.269V90.56C327.269 92.416 327.765 93.904 328.757 95.024C329.749 96.112 331.189 96.656 333.077 96.656C334.965 96.656 336.405 96.096 337.397 94.976C338.421 93.856 338.933 92.384 338.933 90.56V70.976H349.541V90.704ZM375.654 79.424V104H365.046V79.424H354.198V70.976H386.454V79.424H375.654ZM391.766 104V70.976H402.374V104H391.766ZM408.551 87.488C408.551 81.888 410.087 77.648 413.159 74.768C416.263 71.856 420.663 70.4 426.359 70.4C432.055 70.4 436.455 71.856 439.559 74.768C442.663 77.68 444.215 81.92 444.215 87.488C444.215 91.2 443.511 94.336 442.103 96.896C440.727 99.424 438.711 101.344 436.055 102.656L443.591 110.288H430.967L425.879 104.576C420.311 104.48 416.023 102.992 413.015 100.112C410.039 97.2 408.551 92.992 408.551 87.488ZM433.367 85.952C433.367 83.616 432.759 81.76 431.543 80.384C430.359 79.008 428.631 78.32 426.359 78.32C424.087 78.32 422.359 79.008 421.175 80.384C419.991 81.76 419.399 83.616 419.399 85.952V89.024C419.399 91.36 419.991 93.216 421.175 94.592C422.359 95.968 424.087 96.656 426.359 96.656C428.631 96.656 430.359 95.968 431.543 94.592C432.759 93.216 433.367 91.36 433.367 89.024V85.952ZM482.807 90.704C482.807 95.216 481.383 98.656 478.535 101.024C475.687 103.392 471.639 104.576 466.391 104.576C461.143 104.576 457.079 103.392 454.199 101.024C451.351 98.656 449.927 95.216 449.927 90.704V70.976H460.535V90.56C460.535 92.416 461.031 93.904 462.023 95.024C463.015 96.112 464.455 96.656 466.343 96.656C468.231 96.656 469.671 96.096 470.663 94.976C471.687 93.856 472.199 92.384 472.199 90.56V70.976H482.807V90.704ZM489.911 70.976H518.471V78.896H500.519V83.456H515.879V91.04H500.519V96.08H518.807V104H489.911V70.976Z" fill="black"/>
<path d="M138.984 134.4C144.68 134.4 149.08 135.856 152.184 138.768C155.288 141.68 156.84 145.92 156.84 151.488C156.84 157.056 155.288 161.296 152.184 164.208C149.08 167.12 144.68 168.576 138.984 168.576C133.288 168.576 128.888 167.136 125.784 164.256C122.712 161.344 121.176 157.088 121.176 151.488C121.176 145.888 122.712 141.648 125.784 138.768C128.888 135.856 133.288 134.4 138.984 134.4ZM138.984 142.32C136.712 142.32 134.984 143.008 133.8 144.384C132.616 145.76 132.024 147.616 132.024 149.952V153.024C132.024 155.36 132.616 157.216 133.8 158.592C134.984 159.968 136.712 160.656 138.984 160.656C141.256 160.656 142.984 159.968 144.168 158.592C145.384 157.216 145.992 155.36 145.992 153.024V149.952C145.992 147.616 145.384 145.76 144.168 144.384C142.984 143.008 141.256 142.32 138.984 142.32ZM195.432 154.704C195.432 159.216 194.008 162.656 191.16 165.024C188.312 167.392 184.264 168.576 179.016 168.576C173.768 168.576 169.704 167.392 166.824 165.024C163.976 162.656 162.552 159.216 162.552 154.704V134.976H173.16V154.56C173.16 156.416 173.656 157.904 174.648 159.024C175.64 160.112 177.08 160.656 178.968 160.656C180.856 160.656 182.296 160.096 183.288 158.976C184.312 157.856 184.824 156.384 184.824 154.56V134.976H195.432V154.704ZM221.544 143.424V168H210.936V143.424H200.088V134.976H232.344V143.424H221.544ZM251.049 134.4C255.273 134.4 258.745 135.264 261.465 136.992C264.185 138.688 265.577 141.216 265.641 144.576V145.152H255.705V144.96C255.705 144 255.353 143.2 254.649 142.56C253.945 141.92 252.873 141.6 251.433 141.6C250.025 141.6 248.937 141.808 248.169 142.224C247.433 142.64 247.065 143.152 247.065 143.76C247.065 144.624 247.577 145.264 248.601 145.68C249.625 146.096 251.273 146.528 253.545 146.976C256.201 147.52 258.377 148.096 260.073 148.704C261.801 149.28 263.305 150.24 264.585 151.584C265.865 152.928 266.521 154.752 266.553 157.056C266.553 160.96 265.225 163.856 262.569 165.744C259.945 167.632 256.425 168.576 252.009 168.576C246.857 168.576 242.841 167.712 239.961 165.984C237.113 164.256 235.689 161.2 235.689 156.816H245.721C245.721 158.48 246.153 159.6 247.017 160.176C247.881 160.72 249.225 160.992 251.049 160.992C252.393 160.992 253.497 160.848 254.361 160.56C255.257 160.272 255.705 159.68 255.705 158.784C255.705 157.984 255.209 157.392 254.217 157.008C253.257 156.592 251.673 156.16 249.465 155.712C246.777 155.136 244.553 154.544 242.793 153.936C241.033 153.296 239.497 152.256 238.185 150.816C236.873 149.376 236.217 147.424 236.217 144.96C236.217 141.344 237.609 138.688 240.393 136.992C243.209 135.264 246.761 134.4 251.049 134.4ZM288.234 134.4C293.93 134.4 298.33 135.856 301.434 138.768C304.538 141.68 306.09 145.92 306.09 151.488C306.09 157.056 304.538 161.296 301.434 164.208C298.33 167.12 293.93 168.576 288.234 168.576C282.538 168.576 278.138 167.136 275.034 164.256C271.962 161.344 270.426 157.088 270.426 151.488C270.426 145.888 271.962 141.648 275.034 138.768C278.138 135.856 282.538 134.4 288.234 134.4ZM288.234 142.32C285.962 142.32 284.234 143.008 283.05 144.384C281.866 145.76 281.274 147.616 281.274 149.952V153.024C281.274 155.36 281.866 157.216 283.05 158.592C284.234 159.968 285.962 160.656 288.234 160.656C290.506 160.656 292.234 159.968 293.418 158.592C294.634 157.216 295.242 155.36 295.242 153.024V149.952C295.242 147.616 294.634 145.76 293.418 144.384C292.234 143.008 290.506 142.32 288.234 142.32ZM344.682 154.704C344.682 159.216 343.258 162.656 340.41 165.024C337.562 167.392 333.514 168.576 328.266 168.576C323.018 168.576 318.954 167.392 316.074 165.024C313.226 162.656 311.802 159.216 311.802 154.704V134.976H322.41V154.56C322.41 156.416 322.906 157.904 323.898 159.024C324.89 160.112 326.33 160.656 328.218 160.656C330.106 160.656 331.546 160.096 332.538 158.976C333.562 157.856 334.074 156.384 334.074 154.56V134.976H344.682V154.704ZM383.13 145.104C383.13 147.12 382.586 148.944 381.498 150.576C380.41 152.208 378.826 153.408 376.746 154.176L384.09 168H372.186L366.33 155.952H362.394V168H351.786V134.976H371.994C374.362 134.976 376.378 135.44 378.042 136.368C379.738 137.264 381.002 138.496 381.834 140.064C382.698 141.6 383.13 143.28 383.13 145.104ZM372.33 145.536C372.33 144.672 372.042 143.952 371.466 143.376C370.89 142.8 370.186 142.512 369.354 142.512H362.394V148.608H369.354C370.186 148.608 370.89 148.32 371.466 147.744C372.042 147.136 372.33 146.4 372.33 145.536ZM404.046 134.4C408.942 134.4 412.814 135.632 415.662 138.096C418.51 140.528 419.934 144.016 419.934 148.56H409.806C409.806 146.64 409.294 145.12 408.27 144C407.278 142.88 405.854 142.32 403.998 142.32C401.854 142.32 400.27 142.992 399.246 144.336C398.254 145.68 397.758 147.552 397.758 149.952V153.024C397.758 155.392 398.254 157.264 399.246 158.64C400.27 159.984 401.822 160.656 403.902 160.656C405.95 160.656 407.502 160.128 408.558 159.072C409.614 158.016 410.142 156.528 410.142 154.608H419.934C419.934 159.12 418.542 162.576 415.758 164.976C413.006 167.376 409.102 168.576 404.046 168.576C398.414 168.576 394.142 167.136 391.23 164.256C388.35 161.376 386.91 157.12 386.91 151.488C386.91 145.856 388.35 141.6 391.23 138.72C394.142 135.84 398.414 134.4 404.046 134.4ZM426.141 168V134.976H436.749V168H426.141ZM467.934 168L454.062 151.968V168H444.318V134.976H453.582L467.454 151.248V134.976H477.198V168H467.934ZM500.91 134.4C504.078 134.4 506.926 134.88 509.454 135.84C511.982 136.8 513.982 138.224 515.454 140.112C516.958 141.968 517.71 144.24 517.71 146.928H507.582C507.582 145.552 506.974 144.448 505.758 143.616C504.542 142.752 503.07 142.32 501.342 142.32C498.846 142.32 496.958 142.992 495.678 144.336C494.398 145.648 493.758 147.52 493.758 149.952V153.024C493.758 155.456 494.398 157.344 495.678 158.688C496.958 160 498.846 160.656 501.342 160.656C503.07 160.656 504.542 160.256 505.758 159.456C506.974 158.624 507.582 157.568 507.582 156.288H500.094V149.568H517.71V168H512.238L511.182 164.736C508.174 167.296 504.238 168.576 499.374 168.576C493.902 168.576 489.79 167.152 487.038 164.304C484.286 161.424 482.91 157.152 482.91 151.488C482.91 145.888 484.462 141.648 487.566 138.768C490.702 135.856 495.15 134.4 500.91 134.4ZM554.143 134.4C558.367 134.4 561.839 135.264 564.559 136.992C567.279 138.688 568.671 141.216 568.735 144.576V145.152H558.799V144.96C558.799 144 558.447 143.2 557.743 142.56C557.039 141.92 555.967 141.6 554.527 141.6C553.119 141.6 552.031 141.808 551.263 142.224C550.527 142.64 550.159 143.152 550.159 143.76C550.159 144.624 550.671 145.264 551.695 145.68C552.719 146.096 554.367 146.528 556.639 146.976C559.295 147.52 561.471 148.096 563.167 148.704C564.895 149.28 566.399 150.24 567.679 151.584C568.959 152.928 569.615 154.752 569.647 157.056C569.647 160.96 568.319 163.856 565.663 165.744C563.039 167.632 559.519 168.576 555.103 168.576C549.951 168.576 545.935 167.712 543.055 165.984C540.207 164.256 538.783 161.2 538.783 156.816H548.815C548.815 158.48 549.247 159.6 550.111 160.176C550.975 160.72 552.319 160.992 554.143 160.992C555.487 160.992 556.591 160.848 557.455 160.56C558.351 160.272 558.799 159.68 558.799 158.784C558.799 157.984 558.303 157.392 557.311 157.008C556.351 156.592 554.767 156.16 552.559 155.712C549.871 155.136 547.647 154.544 545.887 153.936C544.127 153.296 542.591 152.256 541.279 150.816C539.967 149.376 539.311 147.424 539.311 144.96C539.311 141.344 540.703 138.688 543.487 136.992C546.303 135.264 549.855 134.4 554.143 134.4ZM593.919 143.424V168H583.311V143.424H572.463V134.976H604.719V143.424H593.919Z" fill="black"/>
<path d="M179.908 198.4C184.132 198.4 187.604 199.264 190.324 200.992C193.044 202.688 194.436 205.216 194.5 208.576V209.152H184.564V208.96C184.564 208 184.212 207.2 183.508 206.56C182.804 205.92 181.732 205.6 180.292 205.6C178.884 205.6 177.796 205.808 177.028 206.224C176.292 206.64 175.924 207.152 175.924 207.76C175.924 208.624 176.436 209.264 177.46 209.68C178.484 210.096 180.132 210.528 182.404 210.976C185.06 211.52 187.236 212.096 188.932 212.704C190.66 213.28 192.164 214.24 193.444 215.584C194.724 216.928 195.38 218.752 195.412 221.056C195.412 224.96 194.084 227.856 191.428 229.744C188.804 231.632 185.284 232.576 180.868 232.576C175.716 232.576 171.7 231.712 168.82 229.984C165.972 228.256 164.548 225.2 164.548 220.816H174.58C174.58 222.48 175.012 223.6 175.876 224.176C176.74 224.72 178.084 224.992 179.908 224.992C181.252 224.992 182.356 224.848 183.22 224.56C184.116 224.272 184.564 223.68 184.564 222.784C184.564 221.984 184.068 221.392 183.076 221.008C182.116 220.592 180.532 220.16 178.324 219.712C175.636 219.136 173.412 218.544 171.652 217.936C169.892 217.296 168.356 216.256 167.044 214.816C165.732 213.376 165.076 211.424 165.076 208.96C165.076 205.344 166.468 202.688 169.252 200.992C172.068 199.264 175.62 198.4 179.908 198.4ZM219.205 198.976C221.253 198.976 223.077 199.456 224.677 200.416C226.277 201.344 227.525 202.64 228.421 204.304C229.317 205.936 229.765 207.776 229.765 209.824V210.448C229.765 212.496 229.317 214.352 228.421 216.016C227.525 217.68 226.277 218.992 224.677 219.952C223.077 220.88 221.253 221.344 219.205 221.344H211.285V232H200.677V198.976H219.205ZM211.285 213.616H215.653C216.773 213.616 217.605 213.328 218.149 212.752C218.725 212.176 219.013 211.392 219.013 210.4V210.016C219.013 208.992 218.725 208.208 218.149 207.664C217.605 207.088 216.773 206.8 215.653 206.8H211.285V213.616ZM235.318 198.976H263.878V206.896H245.926V211.456H261.286V219.04H245.926V224.08H264.214V232H235.318V198.976ZM283.83 198.4C288.054 198.4 291.526 199.264 294.246 200.992C296.966 202.688 298.358 205.216 298.422 208.576V209.152H288.486V208.96C288.486 208 288.134 207.2 287.43 206.56C286.726 205.92 285.654 205.6 284.214 205.6C282.806 205.6 281.718 205.808 280.95 206.224C280.214 206.64 279.846 207.152 279.846 207.76C279.846 208.624 280.358 209.264 281.382 209.68C282.406 210.096 284.054 210.528 286.326 210.976C288.982 211.52 291.158 212.096 292.854 212.704C294.582 213.28 296.086 214.24 297.366 215.584C298.646 216.928 299.302 218.752 299.334 221.056C299.334 224.96 298.006 227.856 295.35 229.744C292.726 231.632 289.206 232.576 284.79 232.576C279.638 232.576 275.622 231.712 272.742 229.984C269.894 228.256 268.47 225.2 268.47 220.816H278.502C278.502 222.48 278.934 223.6 279.798 224.176C280.662 224.72 282.006 224.992 283.83 224.992C285.174 224.992 286.278 224.848 287.142 224.56C288.038 224.272 288.486 223.68 288.486 222.784C288.486 221.984 287.99 221.392 286.998 221.008C286.038 220.592 284.454 220.16 282.246 219.712C279.558 219.136 277.334 218.544 275.574 217.936C273.814 217.296 272.278 216.256 270.966 214.816C269.654 213.376 268.998 211.424 268.998 208.96C268.998 205.344 270.39 202.688 273.174 200.992C275.99 199.264 279.542 198.4 283.83 198.4ZM305.079 232V198.976H315.687V232H305.079ZM345.383 232L343.991 227.344H332.423L331.031 232H320.183L332.231 198.976H344.567L356.615 232H345.383ZM334.631 219.952H341.783L338.327 208.192H338.135L334.631 219.952ZM360.615 198.976H371.223V223.552H388.167V232H360.615V198.976ZM393.11 232V198.976H403.718V232H393.11ZM425.206 224.08H440.902V232H408.886V228.592L424.198 206.896H410.038V198.976H440.518V202.384L425.206 224.08ZM446.407 232V198.976H457.015V232H446.407ZM488.199 232L474.327 215.968V232H464.583V198.976H473.847L487.719 215.248V198.976H497.463V232H488.199ZM521.176 198.4C524.344 198.4 527.192 198.88 529.72 199.84C532.248 200.8 534.248 202.224 535.72 204.112C537.224 205.968 537.976 208.24 537.976 210.928H527.848C527.848 209.552 527.24 208.448 526.024 207.616C524.808 206.752 523.336 206.32 521.608 206.32C519.112 206.32 517.224 206.992 515.944 208.336C514.664 209.648 514.024 211.52 514.024 213.952V217.024C514.024 219.456 514.664 221.344 515.944 222.688C517.224 224 519.112 224.656 521.608 224.656C523.336 224.656 524.808 224.256 526.024 223.456C527.24 222.624 527.848 221.568 527.848 220.288H520.36V213.568H537.976V232H532.504L531.448 228.736C528.44 231.296 524.504 232.576 519.64 232.576C514.168 232.576 510.056 231.152 507.304 228.304C504.552 225.424 503.176 221.152 503.176 215.488C503.176 209.888 504.728 205.648 507.832 202.768C510.968 199.856 515.416 198.4 521.176 198.4Z" fill="black"/>
<path d="M214.423 296V262.976H225.031V296H214.423ZM256.215 296L242.343 279.968V296H232.599V262.976H241.863L255.735 279.248V262.976H265.479V296H256.215ZM316.936 296V284.096C316.936 282.624 316.984 281.12 317.08 279.584C317.208 278.016 317.336 276.704 317.464 275.648C317.592 274.592 317.672 273.92 317.704 273.632H317.512L311.416 296H303.112L296.968 273.68H296.776C296.808 273.968 296.888 274.64 297.016 275.696C297.176 276.72 297.32 278.016 297.448 279.584C297.576 281.12 297.64 282.624 297.64 284.096V296H287.896V262.976H302.872L307.864 282.032H308.056L313 262.976H327.448V296H316.936ZM350.312 262.4C356.008 262.4 360.408 263.856 363.512 266.768C366.616 269.68 368.168 273.92 368.168 279.488C368.168 285.056 366.616 289.296 363.512 292.208C360.408 295.12 356.008 296.576 350.312 296.576C344.616 296.576 340.216 295.136 337.112 292.256C334.04 289.344 332.504 285.088 332.504 279.488C332.504 273.888 334.04 269.648 337.112 266.768C340.216 263.856 344.616 262.4 350.312 262.4ZM350.312 270.32C348.04 270.32 346.312 271.008 345.128 272.384C343.944 273.76 343.352 275.616 343.352 277.952V281.024C343.352 283.36 343.944 285.216 345.128 286.592C346.312 287.968 348.04 288.656 350.312 288.656C352.584 288.656 354.312 287.968 355.496 286.592C356.712 285.216 357.32 283.36 357.32 281.024V277.952C357.32 275.616 356.712 273.76 355.496 272.384C354.312 271.008 352.584 270.32 350.312 270.32ZM395.864 262.976C397.528 262.976 399.048 263.328 400.424 264.032C401.832 264.704 402.936 265.664 403.736 266.912C404.568 268.16 404.984 269.552 404.984 271.088C404.984 275.152 403.144 277.712 399.464 278.768V278.96C403.656 279.92 405.752 282.672 405.752 287.216C405.752 288.944 405.32 290.48 404.456 291.824C403.624 293.136 402.472 294.16 401 294.896C399.528 295.632 397.912 296 396.152 296H373.88V262.976H395.864ZM384.488 275.84H391.784C392.488 275.84 393.064 275.6 393.512 275.12C393.992 274.608 394.232 273.984 394.232 273.248V272.768C394.232 272.064 393.992 271.472 393.512 270.992C393.032 270.48 392.456 270.224 391.784 270.224H384.488V275.84ZM384.488 288.32H392.552C393.256 288.32 393.832 288.08 394.28 287.6C394.76 287.088 395 286.464 395 285.728V285.248C395 284.512 394.76 283.904 394.28 283.424C393.832 282.912 393.256 282.656 392.552 282.656H384.488V288.32ZM411.72 296V262.976H422.328V296H411.72ZM429.896 262.976H440.504V287.552H457.448V296H429.896V262.976ZM461.911 262.976H490.471V270.896H472.519V275.456H487.879V283.04H472.519V288.08H490.807V296H461.911V262.976Z" fill="black"/>
<path d="M319.977 360L318.585 355.344H307.017L305.625 360H294.777L306.825 326.976H319.161L331.209 360H319.977ZM309.225 347.952H316.377L312.921 336.192H312.729L309.225 347.952ZM358.824 360L344.952 343.968V360H335.208V326.976H344.472L358.344 343.248V326.976H368.088V360H358.824ZM389.497 326.976C401.049 326.976 406.825 332.48 406.825 343.488C406.825 354.496 401.049 360 389.497 360H375.193V326.976H389.497ZM385.801 352.08H389.305C393.753 352.08 395.977 349.696 395.977 344.928V342.048C395.977 337.28 393.753 334.896 389.305 334.896H385.801V352.08Z" fill="black"/>
<path d="M28.6866 390.4C33.5826 390.4 37.4546 391.632 40.3026 394.096C43.1506 396.528 44.5746 400.016 44.5746 404.56H34.4466C34.4466 402.64 33.9346 401.12 32.9106 400C31.9186 398.88 30.4946 398.32 28.6386 398.32C26.4946 398.32 24.9106 398.992 23.8866 400.336C22.8946 401.68 22.3986 403.552 22.3986 405.952V409.024C22.3986 411.392 22.8946 413.264 23.8866 414.64C24.9106 415.984 26.4626 416.656 28.5426 416.656C30.5906 416.656 32.1426 416.128 33.1986 415.072C34.2546 414.016 34.7826 412.528 34.7826 410.608H44.5746C44.5746 415.12 43.1826 418.576 40.3986 420.976C37.6466 423.376 33.7426 424.576 28.6866 424.576C23.0546 424.576 18.7826 423.136 15.8706 420.256C12.9906 417.376 11.5506 413.12 11.5506 407.488C11.5506 401.856 12.9906 397.6 15.8706 394.72C18.7826 391.84 23.0546 390.4 28.6866 390.4ZM66.718 390.4C72.414 390.4 76.814 391.856 79.918 394.768C83.022 397.68 84.574 401.92 84.574 407.488C84.574 413.056 83.022 417.296 79.918 420.208C76.814 423.12 72.414 424.576 66.718 424.576C61.022 424.576 56.622 423.136 53.518 420.256C50.446 417.344 48.91 413.088 48.91 407.488C48.91 401.888 50.446 397.648 53.518 394.768C56.622 391.856 61.022 390.4 66.718 390.4ZM66.718 398.32C64.446 398.32 62.718 399.008 61.534 400.384C60.35 401.76 59.758 403.616 59.758 405.952V409.024C59.758 411.36 60.35 413.216 61.534 414.592C62.718 415.968 64.446 416.656 66.718 416.656C68.99 416.656 70.718 415.968 71.902 414.592C73.118 413.216 73.726 411.36 73.726 409.024V405.952C73.726 403.616 73.118 401.76 71.902 400.384C70.718 399.008 68.99 398.32 66.718 398.32ZM113.902 424L100.03 407.968V424H90.2864V390.976H99.5504L113.422 407.248V390.976H123.166V424H113.902ZM144.143 390.4C148.367 390.4 151.839 391.264 154.559 392.992C157.279 394.688 158.671 397.216 158.735 400.576V401.152H148.799V400.96C148.799 400 148.447 399.2 147.743 398.56C147.039 397.92 145.967 397.6 144.527 397.6C143.119 397.6 142.031 397.808 141.263 398.224C140.527 398.64 140.159 399.152 140.159 399.76C140.159 400.624 140.671 401.264 141.695 401.68C142.719 402.096 144.367 402.528 146.639 402.976C149.295 403.52 151.471 404.096 153.167 404.704C154.895 405.28 156.399 406.24 157.679 407.584C158.959 408.928 159.615 410.752 159.647 413.056C159.647 416.96 158.319 419.856 155.663 421.744C153.039 423.632 149.519 424.576 145.103 424.576C139.951 424.576 135.935 423.712 133.055 421.984C130.207 420.256 128.783 417.2 128.783 412.816H138.815C138.815 414.48 139.247 415.6 140.111 416.176C140.975 416.72 142.319 416.992 144.143 416.992C145.487 416.992 146.591 416.848 147.455 416.56C148.351 416.272 148.799 415.68 148.799 414.784C148.799 413.984 148.303 413.392 147.311 413.008C146.351 412.592 144.767 412.16 142.559 411.712C139.871 411.136 137.647 410.544 135.887 409.936C134.127 409.296 132.591 408.256 131.279 406.816C129.967 405.376 129.311 403.424 129.311 400.96C129.311 397.344 130.703 394.688 133.487 392.992C136.303 391.264 139.855 390.4 144.143 390.4ZM181.327 390.4C187.023 390.4 191.423 391.856 194.527 394.768C197.631 397.68 199.183 401.92 199.183 407.488C199.183 413.056 197.631 417.296 194.527 420.208C191.423 423.12 187.023 424.576 181.327 424.576C175.631 424.576 171.231 423.136 168.127 420.256C165.055 417.344 163.519 413.088 163.519 407.488C163.519 401.888 165.055 397.648 168.127 394.768C171.231 391.856 175.631 390.4 181.327 390.4ZM181.327 398.32C179.055 398.32 177.327 399.008 176.143 400.384C174.959 401.76 174.367 403.616 174.367 405.952V409.024C174.367 411.36 174.959 413.216 176.143 414.592C177.327 415.968 179.055 416.656 181.327 416.656C183.599 416.656 185.327 415.968 186.511 414.592C187.727 413.216 188.335 411.36 188.335 409.024V405.952C188.335 403.616 187.727 401.76 186.511 400.384C185.327 399.008 183.599 398.32 181.327 398.32ZM204.896 390.976H215.504V415.552H232.448V424H204.896V390.976ZM236.911 390.976H265.471V398.896H247.519V403.456H262.879V411.04H247.519V416.08H265.807V424H236.911V390.976ZM267.904 426.304L275.584 388.672H281.392L273.76 426.304H267.904ZM303.439 390.976C305.487 390.976 307.311 391.456 308.911 392.416C310.511 393.344 311.759 394.64 312.655 396.304C313.551 397.936 313.999 399.776 313.999 401.824V402.448C313.999 404.496 313.551 406.352 312.655 408.016C311.759 409.68 310.511 410.992 308.911 411.952C307.311 412.88 305.487 413.344 303.439 413.344H295.519V424H284.911V390.976H303.439ZM295.519 405.616H299.887C301.007 405.616 301.839 405.328 302.383 404.752C302.959 404.176 303.247 403.392 303.247 402.4V402.016C303.247 400.992 302.959 400.208 302.383 399.664C301.839 399.088 301.007 398.8 299.887 398.8H295.519V405.616ZM335.296 390.4C340.192 390.4 344.064 391.632 346.912 394.096C349.76 396.528 351.184 400.016 351.184 404.56H341.056C341.056 402.64 340.544 401.12 339.52 400C338.528 398.88 337.104 398.32 335.248 398.32C333.104 398.32 331.52 398.992 330.496 400.336C329.504 401.68 329.008 403.552 329.008 405.952V409.024C329.008 411.392 329.504 413.264 330.496 414.64C331.52 415.984 333.072 416.656 335.152 416.656C337.2 416.656 338.752 416.128 339.808 415.072C340.864 414.016 341.392 412.528 341.392 410.608H351.184C351.184 415.12 349.792 418.576 347.008 420.976C344.256 423.376 340.352 424.576 335.296 424.576C329.664 424.576 325.392 423.136 322.48 420.256C319.6 417.376 318.16 413.12 318.16 407.488C318.16 401.856 319.6 397.6 322.48 394.72C325.392 391.84 329.664 390.4 335.296 390.4ZM391.424 390.976C393.472 390.976 395.296 391.456 396.896 392.416C398.496 393.344 399.744 394.64 400.64 396.304C401.536 397.936 401.984 399.776 401.984 401.824V402.448C401.984 404.496 401.536 406.352 400.64 408.016C399.744 409.68 398.496 410.992 396.896 411.952C395.296 412.88 393.472 413.344 391.424 413.344H383.504V424H372.896V390.976H391.424ZM383.504 405.616H387.872C388.992 405.616 389.824 405.328 390.368 404.752C390.944 404.176 391.232 403.392 391.232 402.4V402.016C391.232 400.992 390.944 400.208 390.368 399.664C389.824 399.088 388.992 398.8 387.872 398.8H383.504V405.616ZM407.536 390.976H418.144V415.552H435.088V424H407.536V390.976ZM461.68 424L460.288 419.344H448.72L447.328 424H436.48L448.528 390.976H460.864L472.912 424H461.68ZM450.928 411.952H458.08L454.624 400.192H454.432L450.928 411.952ZM492.591 399.424V424H481.983V399.424H471.135V390.976H503.391V399.424H492.591ZM508.224 390.976H534.912V398.896H518.832V404.56H532.656V412.144H518.832V424H508.224V390.976ZM556.656 390.4C562.352 390.4 566.752 391.856 569.856 394.768C572.96 397.68 574.512 401.92 574.512 407.488C574.512 413.056 572.96 417.296 569.856 420.208C566.752 423.12 562.352 424.576 556.656 424.576C550.96 424.576 546.56 423.136 543.456 420.256C540.384 417.344 538.848 413.088 538.848 407.488C538.848 401.888 540.384 397.648 543.456 394.768C546.56 391.856 550.96 390.4 556.656 390.4ZM556.656 398.32C554.384 398.32 552.656 399.008 551.472 400.384C550.288 401.76 549.696 403.616 549.696 405.952V409.024C549.696 411.36 550.288 413.216 551.472 414.592C552.656 415.968 554.384 416.656 556.656 416.656C558.928 416.656 560.656 415.968 561.84 414.592C563.056 413.216 563.664 411.36 563.664 409.024V405.952C563.664 403.616 563.056 401.76 561.84 400.384C560.656 399.008 558.928 398.32 556.656 398.32ZM611.568 401.104C611.568 403.12 611.024 404.944 609.936 406.576C608.848 408.208 607.264 409.408 605.184 410.176L612.528 424H600.624L594.768 411.952H590.832V424H580.224V390.976H600.432C602.8 390.976 604.816 391.44 606.48 392.368C608.176 393.264 609.44 394.496 610.272 396.064C611.136 397.6 611.568 399.28 611.568 401.104ZM600.768 401.536C600.768 400.672 600.48 399.952 599.904 399.376C599.328 398.8 598.624 398.512 597.792 398.512H590.832V404.608H597.792C598.624 404.608 599.328 404.32 599.904 403.744C600.48 403.136 600.768 402.4 600.768 401.536ZM645.951 424V412.096C645.951 410.624 645.999 409.12 646.095 407.584C646.223 406.016 646.351 404.704 646.479 403.648C646.607 402.592 646.687 401.92 646.719 401.632H646.527L640.431 424H632.127L625.983 401.68H625.791C625.823 401.968 625.903 402.64 626.031 403.696C626.191 404.72 626.335 406.016 626.463 407.584C626.591 409.12 626.655 410.624 626.655 412.096V424H616.911V390.976H631.887L636.879 410.032H637.071L642.015 390.976H656.463V424H645.951ZM676.783 390.4C681.007 390.4 684.479 391.264 687.199 392.992C689.919 394.688 691.311 397.216 691.375 400.576V401.152H681.439V400.96C681.439 400 681.087 399.2 680.383 398.56C679.679 397.92 678.607 397.6 677.167 397.6C675.759 397.6 674.671 397.808 673.903 398.224C673.167 398.64 672.799 399.152 672.799 399.76C672.799 400.624 673.311 401.264 674.335 401.68C675.359 402.096 677.007 402.528 679.279 402.976C681.935 403.52 684.111 404.096 685.807 404.704C687.535 405.28 689.039 406.24 690.319 407.584C691.599 408.928 692.255 410.752 692.287 413.056C692.287 416.96 690.959 419.856 688.303 421.744C685.679 423.632 682.159 424.576 677.743 424.576C672.591 424.576 668.575 423.712 665.695 421.984C662.847 420.256 661.423 417.2 661.423 412.816H671.455C671.455 414.48 671.887 415.6 672.751 416.176C673.615 416.72 674.959 416.992 676.783 416.992C678.127 416.992 679.231 416.848 680.095 416.56C680.991 416.272 681.439 415.68 681.439 414.784C681.439 413.984 680.943 413.392 679.951 413.008C678.991 412.592 677.407 412.16 675.199 411.712C672.511 411.136 670.287 410.544 668.527 409.936C666.767 409.296 665.231 408.256 663.919 406.816C662.607 405.376 661.951 403.424 661.951 400.96C661.951 397.344 663.343 394.688 666.127 392.992C668.943 391.264 672.495 390.4 676.783 390.4Z" fill="black"/>
</svg>
