<svg width="192" height="48" viewBox="0 0 192 48" fill="none" xmlns="http://www.w3.org/2000/svg">
<path d="M9.45132 48H1.35214C1.11738 48 1 47.8879 1 47.6637L1.14086 0.341552C1.14086 0.162175 1.23476 0.0724856 1.42257 0.0724856H15.2968C19.7103 0.0724856 23.1964 1.36176 25.7553 3.94032C28.3377 6.49645 29.6288 9.98311 29.6288 14.4003C29.6288 17.6291 28.9598 20.4431 27.6217 22.8423C26.2601 25.219 24.4994 27.0576 22.3396 28.3581C20.1798 29.6586 17.8322 30.3089 15.2968 30.3089H9.80346V47.6637C9.80346 47.8879 9.68608 48 9.45132 48ZM15.2968 8.24539L9.80346 8.31265V21.9678H15.2968C16.8227 21.9678 18.1491 21.2727 19.276 19.8825C20.4028 18.4699 20.9662 16.6425 20.9662 14.4003C20.9662 12.6065 20.4615 11.1379 19.452 9.99432C18.4426 8.82837 17.0575 8.24539 15.2968 8.24539Z" fill="black"/>
<path d="M32.0938 47.6637L41.0381 0.341552C41.0851 0.162175 41.2024 0.0724856 41.3903 0.0724856H51.8488C52.0366 0.0724856 52.1539 0.162175 52.2009 0.341552L60.7931 47.6637C60.8166 47.8879 60.7226 48 60.5114 48H52.5178C52.2831 48 52.1539 47.8879 52.1305 47.6637L51.3558 42.6187H41.5311L40.7564 47.6637C40.7329 47.8879 40.6156 48 40.4043 48H32.3755C32.1877 48 32.0938 47.8879 32.0938 47.6637ZM46.2146 15.9138L42.9749 35.253H49.912L46.954 15.9138L46.5315 13.3577L46.2146 15.9138Z" fill="black"/>
<path d="M73.1531 48H65.9343C65.5587 48 65.3709 47.843 65.3709 47.5291L65.3004 0.610619C65.3004 0.251864 65.4883 0.0724856 65.8639 0.0724856H72.3784L84.5624 27.2146L84.2103 0.610619C84.2103 0.251864 84.4216 0.0724856 84.8441 0.0724856H91.9925C92.2742 0.0724856 92.4151 0.251864 92.4151 0.610619L92.4855 47.5964C92.4855 47.8655 92.3681 48 92.1334 48H85.7949L73.294 22.6405L73.8222 47.4619C73.8222 47.8206 73.5992 48 73.1531 48Z" fill="black"/>
<path d="M130.39 47.9327L99.1057 48C98.871 48 98.7536 47.8879 98.7536 47.6637L98.8944 0.341552C98.8944 0.162175 98.9883 0.0724856 99.1761 0.0724856L131.024 0.00521897C133.7 -0.0620477 136.118 0.52093 138.278 1.75415C140.461 2.98738 142.198 4.65783 143.489 6.76552C144.804 8.85079 145.461 11.1603 145.461 13.694V33.4704C145.461 36.1162 144.792 38.5378 143.454 40.7352C142.092 42.9102 140.285 44.6479 138.031 45.9484C135.777 47.2264 133.23 47.8879 130.39 47.9327ZM131.024 8.24539L107.627 8.31265L107.557 39.5244H130.39C132.174 39.5244 133.676 38.9302 134.897 37.7418C136.118 36.5535 136.728 35.1296 136.728 33.4704V13.6267C136.728 12.1693 136.165 10.9024 135.038 9.82616C133.911 8.72747 132.573 8.20054 131.024 8.24539Z" fill="black"/>
<path d="M148.701 47.6637L157.645 0.341552C157.692 0.162175 157.81 0.0724856 157.997 0.0724856H168.456C168.644 0.0724856 168.761 0.162175 168.808 0.341552L177.4 47.6637C177.424 47.8879 177.33 48 177.118 48H169.125C168.89 48 168.761 47.8879 168.738 47.6637L167.963 42.6187H158.138L157.363 47.6637C157.34 47.8879 157.223 48 157.011 48H148.983C148.795 48 148.701 47.8879 148.701 47.6637ZM162.822 15.9138L159.582 35.253H166.519L163.561 15.9138L163.139 13.3577L162.822 15.9138Z" fill="black"/>
<ellipse cx="185.911" cy="43.6947" rx="4.50737" ry="4.30507" fill="#F75129"/>
</svg>
